<?xml version="1.0" encoding="iso-8859-1"?>
<!-- Generator: Adobe Illustrator 19.0.0, SVG Export Plug-In . SVG Version: 6.00 Build 0)  -->
<svg version="1.1" id="Layer_1" xmlns="http://www.w3.org/2000/svg" xmlns:xlink="http://www.w3.org/1999/xlink" x="0px" y="0px"
	 viewBox="0 0 473.66 473.66" style="enable-background:new 0 0 473.66 473.66;" xml:space="preserve">
<circle style="fill:#49A0AE;" cx="236.83" cy="236.83" r="236.83"/>
<path style="fill:#4A86C5;" d="M462.383,309.091c0.868-2.707,1.657-5.449,2.431-8.197
	C464.044,303.646,463.232,306.383,462.383,309.091z"/>
<polygon style="fill:#377CA5;" points="464.833,300.841 464.833,300.841 464.818,300.894 "/>
<g>
	<path style="fill:#F1F1F1;" d="M340.387,225.44c-3.324-0.871-13.739-5.318-26.484,8.769c-10.676,11.806-6.215,23.271-2.782,28.746
		c18.982,50.204,35.103,49.759,35.664,36.435c16.492,13.623,36.221,25.474,52.515,22.385c3.594-0.688,1.051-4.069-3.194-7.95
		c8.16,3.242,16.177,4.682,23.447,3.134c3.71-0.782,0.789-4.297-3.799-8.238c6.559,1.597,12.89,1.915,18.623,0.37
		c3.526-0.946,0.782-4.076-3.71-7.573C361.06,228.17,340.387,225.44,340.387,225.44z"/>
	<path style="fill:#F1F1F1;" d="M134.082,230.952c3.373-1.073,14.068-6.137,26.016,7.229c10.007,11.204,4.88,22.942,1.111,28.634
		c-21.933,51.397-38.054,51.898-37.833,38.581c-17.31,14.611-37.762,27.639-53.91,25.5c-3.564-0.475-0.811-4.013,3.661-8.149
		c-8.354,3.721-16.477,5.636-23.672,4.514c-3.661-0.565-0.542-4.263,4.286-8.481c-6.66,1.982-13.014,2.674-18.675,1.462
		c-3.485-0.74-0.546-4.035,4.155-7.808C113.208,234.89,134.082,230.952,134.082,230.952z"/>
</g>
<path style="fill:#E9C29C;" d="M329.614,244.822c0,51.688-41.879,93.572-93.557,93.572c-51.666,0-93.549-41.883-93.549-93.572
	c0-51.658,41.88-93.553,93.549-93.553C287.734,151.27,329.614,193.16,329.614,244.822z"/>
<g>
	<ellipse style="fill:#343433;" cx="208.02" cy="250.44" rx="12.819" ry="13.541"/>
	<path style="fill:#343433;" d="M276.392,250.443c0,7.483-5.755,13.541-12.834,13.541c-7.072,0-12.804-6.058-12.804-13.541
		c0-7.479,5.733-13.556,12.804-13.556C270.637,236.887,276.392,242.964,276.392,250.443z"/>
</g>
<g>
	<path style="fill:#FFFFFF;" d="M272.69,245.305c0,2.984-2.277,5.422-5.119,5.422c-2.82,0-5.112-2.438-5.112-5.422
		c0-2.995,2.292-5.411,5.112-5.411C270.409,239.89,272.69,242.309,272.69,245.305z"/>
	<path style="fill:#FFFFFF;" d="M217.019,245.305c0,2.984-2.292,5.422-5.134,5.422c-2.827,0-5.119-2.438-5.119-5.422
		c0-2.995,2.292-5.411,5.119-5.411C214.726,239.89,217.019,242.309,217.019,245.305z"/>
</g>
<g>
	<polygon style="fill:#703116;" points="188.796,226.282 190.053,231.367 219.438,234.561 221.319,225.231 	"/>
	<polygon style="fill:#703116;" points="283.594,226.282 282.338,231.367 252.952,234.561 251.064,225.231 	"/>
</g>
<path style="fill:#C4916B;" d="M244.239,263.21c0,0,15.011,14.173,10.239,22.116c-4.76,7.943-32.905,8.223-36.936,0
	c-4.039-8.22,10.254-22.116,10.254-22.116H244.239z"/>
<path style="fill:#E9C29C;" d="M243.54,262.234c0,0,13.709,13.896,9.356,21.682s-30.055,8.055-33.742,0
	c-3.695-8.055,9.371-21.682,9.371-21.682H243.54z"/>
<path style="fill:#703116;" d="M287.076,180.326c9.416,23.185,40.746,57.021,61.695,27.467c0,0-8.751,0.572-23.182-10.291
	c0.995-2.704,1.832-6.058,2.3-10.231c0.269-2.393-4.237-5.06-9.626-7.363c0.176-1.028,0.337-2.109,0.467-3.257
	c0.359-3.201-7.861-6.903-15.28-9.562c-0.138-1.066-0.329-2.176-0.553-3.347c-0.505-2.506-6.223-3.661-12.49-4.166
	c-0.161-1.249-0.359-2.562-0.643-3.96c-0.935-4.686-20.13-4.652-27.018-4.487c-0.239-0.703-0.497-1.425-0.789-2.165
	c-1.571-4.057-17.389-1.649-25.309-0.172l-0.868-1.032c0,0-27.366-7.412-29.711-2.087c-0.868,1.948-1.541,3.758-2.061,5.445
	c-7.393-0.15-25.425-0.041-26.33,4.499c-0.284,1.399-0.49,2.711-0.643,3.96c-6.268,0.509-11.985,1.66-12.49,4.166
	c-0.236,1.17-0.415,2.277-0.561,3.343c-7.412,2.663-15.631,6.361-15.272,9.566c0.131,1.148,0.284,2.229,0.467,3.257
	c-5.389,2.304-9.902,4.97-9.633,7.363c0.868,7.674,2.958,12.599,5.033,15.71c-13.014,9.083-20.803,8.567-20.803,8.567
	c20.5,28.922,46.805,3.093,56.744-19.756c0.337-0.172,0.658-0.337,0.972-0.494c2.726,11.451,8.65,13.717,8.65,13.717
	c1.242-8.956,7.341-15.579,13.395-20.067c2.913,6.866,6.896,8.388,6.896,8.388c0.927-6.701,4.6-12.079,8.919-16.233
	c2.199,14.461,9.263,17.176,9.263,17.176c0.774-5.576,3.448-10.235,6.813-14.038c0.542,1.443,0.942,2.969,1.163,4.585
	c0,0,5.243-2.008,7.7-12.12c0.366-0.236,0.729-0.475,1.096-0.703c3.71,3.687,6.806,8.407,7.618,14.225c0,0,4.903-1.877,7.442-11.136
	c5.041,4.009,9.824,9.693,10.852,17.168c0,0,8.238-3.156,8.956-21.387c0.239,0.086,0.475,0.172,0.714,0.262
	c2.098,2.075,3.915,4.51,5.28,7.371"/>
<path style="fill:#C39574;" d="M237.242,310.448c-0.123,0-0.236-0.004-0.352-0.004c-17.135-0.187-29.434-14.087-29.954-14.678
	c-0.561-0.647-0.497-1.63,0.153-2.195c0.643-0.557,1.623-0.494,2.191,0.15c0.116,0.138,11.933,13.455,27.658,13.616
	c0.101,0.004,0.198,0.004,0.292,0.004c9.304,0,18.193-4.592,26.439-13.638c0.576-0.632,1.563-0.681,2.199-0.105
	c0.636,0.58,0.681,1.563,0.101,2.199C257.118,305.519,247.455,310.448,237.242,310.448z"/>
<path style="fill:#F6E7BE;" d="M234.875,94.387c-36.352,0-65.824,9.143-65.824,20.426s29.472,20.429,65.824,20.429
	s65.816-9.147,65.816-20.429S271.228,94.387,234.875,94.387z M234.875,125.796c-22.774,0-41.236-5.725-41.236-12.797
	s18.466-12.801,41.236-12.801s41.236,5.729,41.236,12.801C276.111,120.07,257.649,125.796,234.875,125.796z"/>
<g>
</g>
<g>
</g>
<g>
</g>
<g>
</g>
<g>
</g>
<g>
</g>
<g>
</g>
<g>
</g>
<g>
</g>
<g>
</g>
<g>
</g>
<g>
</g>
<g>
</g>
<g>
</g>
<g>
</g>
</svg>
