<?xml version="1.0" encoding="iso-8859-1"?>
<!-- Generator: Adobe Illustrator 19.0.0, SVG Export Plug-In . SVG Version: 6.00 Build 0)  -->
<svg version="1.1" id="Layer_1" xmlns="http://www.w3.org/2000/svg" xmlns:xlink="http://www.w3.org/1999/xlink" x="0px" y="0px"
	 viewBox="0 0 502.367 502.367" style="enable-background:new 0 0 502.367 502.367;" xml:space="preserve">
<path style="fill:#05961D;" d="M414.4,161.483c0,0,67.2-4.8,75.2,19.2c8,24.8-36,55.2-65.6,28.8c0,0,22.4,31.2,0.8,40
	c-21.6,8.8-50.4-2.4-44-30.4c0,0-8.8,13.6-28-2.4c-20-16,31.2-64.8,31.2-64.8L414.4,161.483z"/>
<g>
	<path style="fill:#046812;" d="M424.8,250.283c-21.6,8.8-50.4-2.4-44-30.4c0,0-8.8,13.6-28-2.4c-20-16,31.2-64.8,31.2-64.8
		l31.2,8.8"/>
	<path style="fill:#046812;" d="M489.6,180.684c8,24.8-36,55.2-65.6,28.8"/>
</g>
<path style="fill:#EF4D4E;" d="M47.2,372.684l-11.2-11.2c-48-48-48-125.6,0-172.8c16.8-16.8,44.8-16.8,61.6,0s16.8,44.8,0,61.6
	c-13.6,13.6-13.6,36,0,50.4l11.2,11.2c13.6,13.6,36,13.6,50.4,0L428,41.484c16.8-16.8,44.8-16.8,61.6,0c16.8,16.8,16.8,44.8,0,61.6
	L220,372.684C172,420.684,94.4,420.684,47.2,372.684z"/>
<path style="fill:#C11724;" d="M489.6,103.084L220,372.684c-44.8,44.8-116,47.2-164,8"/>
<path style="fill:#80EDE3;" d="M364,105.484l123.2-0.8l0,0c12.8-12,16.8-26.4,14.4-37.6h-99.2L364,105.484z"/>
<path style="fill:#55CEBF;" d="M364,105.484l123.2-0.8l0,0c10.4-10.4,17.6-24,14.4-37.6"/>
<polygon style="fill:#80EDE3;" points="445.6,147.083 322.4,147.083 282.4,187.083 405.6,187.083 "/>
<polyline style="fill:#55CEBF;" points="283.2,187.083 405.6,187.083 445.6,147.083 "/>
<g>
	<path style="fill:#80EDE3;" d="M96,187.083c-14.4-14.4-42.4-16-58.4,0H96z"/>
	<polygon style="fill:#80EDE3;" points="365.6,227.083 242.4,227.083 202.4,267.083 325.6,267.083 	"/>
</g>
<polyline style="fill:#55CEBF;" points="211.2,267.083 325.6,267.083 365.6,227.083 "/>
<path style="fill:#80EDE3;" d="M0,267.083h87.2c2.4-7.2,4-12,9.6-17.6c8-8.8,10.4-14.4,12-22.4H9.6C4,243.083,0.8,259.083,0,267.083
	z"/>
<path style="fill:#55CEBF;" d="M9.6,227.083c-5.6,12.8-8.8,27.2-9.6,40h87.2c2.4-8,4-12,9.6-17.6"/>
<path style="fill:#80EDE3;" d="M29.6,355.083h208l48-48H162.4l0,0c-16.8,18.4-40,19.2-56,2.4l-2.4-2.4H4
	C8.8,323.083,16,339.083,29.6,355.083z"/>
<g>
	<polyline style="fill:#55CEBF;" points="35.2,355.083 237.6,355.083 278.4,314.284 	"/>
	<path style="fill:#55CEBF;" d="M188.8,395.083H77.6C115.2,413.483,155.2,411.883,188.8,395.083z"/>
</g>
<path style="fill:#21C140;" d="M397.6,211.083c-4.8,4.8-8.8,0-13.6-4.8l-58.4-58.4c-4.8-4.8-10.4-8.8-4.8-13.6l23.2-23.2
	c4.8-4.8,13.6-4.8,18.4,0l58.4,58.4c4.8,4.8,4.8,13.6,0,18.4L397.6,211.083z"/>
<path style="fill:#05961D;" d="M344,111.084c4.8-4.8,13.6-4.8,18.4,0l58.4,58.4c4.8,4.8,4.8,13.6,0,18.4l-23.2,23.2
	c-4.8,4.8-8.8,0-13.6-4.8"/>
<path style="fill:#FF7B82;" d="M488.8,52.683c-0.8,4.8-12.8,6.4-26.4,4s-24-8.8-23.2-13.6s12.8-6.4,26.4-4
	C480,41.484,490.4,47.883,488.8,52.683z"/>
<g>
	<circle style="fill:#30D84C;" cx="355.2" cy="140.684" r="4.8"/>
	<circle style="fill:#30D84C;" cx="373.6" cy="158.283" r="4.8"/>
	<circle style="fill:#30D84C;" cx="391.2" cy="175.883" r="4.8"/>
</g>
<g>
	<path style="fill:#046812;" d="M371.2,239.083c0,0,29.6,58.4-37.6,106.4c-67.2,47.2-33.6,103.2,14.4,96.8c0,0-27.2,19.2-47.2,11.2
		c0,0-3.2,11.2,8,20c0,0-84-17.6-48.8-86.4c19.2-36.8,69.6-36,102.4-87.2C383.2,268.684,371.2,239.083,371.2,239.083z"/>
	<path style="fill:#046812;" d="M371.2,243.083c0,0,43.2,26.4,18.4,84.8c-24.8,58.4,20,81.6,48.8,57.6c0,0-10.4,23.2-26.4,26.4
		c0,0,2.4,8.8,13.6,10.4c0,0-62.4,22.4-67.2-36.8c-2.4-32,31.2-52,32-98.4C391.2,257.483,371.2,243.083,371.2,243.083z"/>
</g>
<g>
</g>
<g>
</g>
<g>
</g>
<g>
</g>
<g>
</g>
<g>
</g>
<g>
</g>
<g>
</g>
<g>
</g>
<g>
</g>
<g>
</g>
<g>
</g>
<g>
</g>
<g>
</g>
<g>
</g>
</svg>
