<?xml version="1.0" encoding="iso-8859-1"?>
<!-- Generator: Adobe Illustrator 19.0.0, SVG Export Plug-In . SVG Version: 6.00 Build 0)  -->
<svg version="1.1" id="Layer_1" xmlns="http://www.w3.org/2000/svg" xmlns:xlink="http://www.w3.org/1999/xlink" x="0px" y="0px"
	 viewBox="0 0 505.6 505.6" style="enable-background:new 0 0 505.6 505.6;" xml:space="preserve">
<ellipse style="fill:#A5A5A5;" cx="262.8" cy="492" rx="204" ry="13.6"/>
<path style="fill:#898785;" d="M262.8,504.8c-112.8,0-204-6.4-204-13.6s91.2-13.6,204-13.6"/>
<path id="SVGCleanerId_0" style="fill:#E28723;" d="M278.8,171.2c0,7.2-2.4,9.6-8,9.6H51.6c-4.8,0-12.8-2.4-12.8-9.6V116
	c0-6.4,8-15.2,12.8-15.2h219.2c4.8,0,8,8.8,8,15.2V171.2z"/>
<path style="fill:#05961D;" d="M239.6,160c0,0,24,16.8,32,8.8c8-7.2-1.6-28-18.4-24.8c0,0,15.2-6.4,8.8-15.2
	c-6.4-8-19.2-9.6-23.2,1.6c0,0,0-7.2-11.2-4.8c-11.2,1.6-2.4,31.2-2.4,31.2L239.6,160z"/>
<g>
	<path style="fill:#046812;" d="M262,129.6c-6.4-8-19.2-9.6-23.2,1.6c0,0,0-7.2-11.2-4.8c-11.2,1.6-2.4,31.2-2.4,31.2l13.6,3.2"/>
	<path style="fill:#046812;" d="M271.6,169.6c8-7.2-1.6-28-18.4-24.8"/>
</g>
<path style="fill:#EF4D4E;" d="M148.4,2.4L142,4c-28,7.2-44.8,36-37.6,64.8c2.4,9.6,12.8,16,23.2,13.6c9.6-2.4,16-12.8,13.6-23.2
	c-2.4-8,2.4-16.8,11.2-18.4l6.4-1.6c8-2.4,16.8,2.4,18.4,11.2l42.4,159.2c2.4,9.6,12.8,16,23.2,13.6c9.6-2.4,16-12.8,13.6-23.2
	l-44-160C205.2,11.2,176.4-5.6,148.4,2.4z"/>
<path style="fill:#C11724;" d="M254.8,198.4L212.4,40c-7.2-26.4-32.8-43.2-59.2-38.4"/>
<path style="fill:#80EDE3;" d="M208.4,171.2l45.6,26.4v0.8c1.6,6.4,0,12.8-4,16.8l-35.2-20L208.4,171.2z"/>
<path style="fill:#55CEBF;" d="M208.4,171.2l45.6,26.4v0.8c1.6,6.4,0,12.8-4,16.8"/>
<polygon style="fill:#80EDE3;" points="247.6,172.8 202,146.4 195.6,122.4 241.2,148.8 "/>
<polyline style="fill:#55CEBF;" points="195.6,122.4 241.2,148.8 247.6,172.8 "/>
<g>
	<path style="fill:#80EDE3;" d="M126,81.6c-9.6,1.6-18.4-3.2-21.6-12.8L126,81.6z"/>
	<polygon style="fill:#80EDE3;" points="234.8,124.8 189.2,97.6 182.8,74.4 228.4,100.8 	"/>
</g>
<polyline style="fill:#55CEBF;" points="182.8,74.4 228.4,100.8 234.8,124.8 "/>
<path style="fill:#80EDE3;" d="M108.4,30.4l32.8,19.2c-0.8,3.2-1.6,6.4-0.8,9.6c0.8,3.2,0.8,7.2,0,10.4L102.8,48
	C103.6,41.6,105.2,36,108.4,30.4z"/>
<path style="fill:#55CEBF;" d="M102.8,48c0.8-5.6,2.4-12,5.6-16.8l32.8,19.2c-0.8,3.2-1.6,6.4-0.8,9.6"/>
<path style="fill:#80EDE3;" d="M135.6,5.6l80,46.4l6.4,24l-45.6-26.4l0,0c-2.4-8-10.4-12.8-18.4-11.2l0,0L119.6,16
	C124.4,12,130,8,135.6,5.6z"/>
<g>
	<polyline style="fill:#55CEBF;" points="135.6,5.6 215.6,52 222,76 	"/>
	<path style="fill:#55CEBF;" d="M206.8,25.6L162.8,0C181.2,0.8,197.2,10.4,206.8,25.6z"/>
</g>
<path style="fill:#21C140;" d="M243.6,138.4c-0.8-3.2-3.2-1.6-6.4-0.8l-34.4,8.8c-3.2,0.8-5.6,0.8-4.8,4l4,13.6c0.8,3.2,4,4.8,7.2,4
	l34.4-8.8c3.2-0.8,4.8-4,4-7.2L243.6,138.4z"/>
<path style="fill:#05961D;" d="M202,164c0.8,3.2,4,4.8,7.2,4l34.4-8.8c3.2-0.8,4.8-4,4-7.2l-4-13.6c-0.8-3.2-3.2-1.6-6.4-0.8"/>
<path style="fill:#FF7B82;" d="M243.6,216.8c0.8-1.6-3.2-5.6-8.8-7.2c-5.6-1.6-10.4-1.6-11.2,0c-0.8,2.4,3.2,5.6,8.8,7.2
	S242.8,219.2,243.6,216.8z"/>
<g>
	<circle style="fill:#30D84C;" cx="213.2" cy="155.2" r="2.4"/>
	<circle style="fill:#30D84C;" cx="223.6" cy="152.8" r="2.4"/>
	<path style="fill:#30D84C;" d="M235.6,149.6c0-0.8-1.6-1.6-2.4-1.6c-0.8,0-1.6,1.6-1.6,2.4c0,0.8,1.6,1.6,2.4,1.6
		C235.6,151.2,236.4,150.4,235.6,149.6z"/>
</g>
<g>
	<path style="fill:#046812;" d="M240.4,122.4c0,0,23.2-15.2,8.8-48c-14.4-32,9.6-45.6,26.4-32.8c0,0-6.4-12.8-15.2-14.4
		c0,0,1.6-4.8,7.2-5.6c0,0-35.2-11.2-36.8,21.6C230,60.8,249.2,72,250,97.6C250.8,113.6,240.4,122.4,240.4,122.4z"/>
	<path style="fill:#046812;" d="M241.2,120.8c0,0,21.6-0.8,24.8-28s24.8-25.6,30.4-11.2c0,0,1.6-11.2-4-16c0,0,3.2-2.4,7.2-0.8
		c0,0-18.4-21.6-32.8-0.8c-8,11.2,0,25.6-9.6,44C251.6,119.2,241.2,120.8,241.2,120.8z"/>
</g>
<rect x="62.8" y="140.8" style="fill:#CC3636;" width="200" height="352"/>
<polyline style="fill:#A00D0D;" points="62.8,140.8 262.8,140.8 262.8,492.8 134.8,492.8 "/>
<polyline style="fill:#5B0202;" points="62.8,140.8 262.8,140.8 262.8,492.8 "/>
<g>
	<rect x="62.8" y="412.8" style="fill:#EAD681;" width="200" height="16"/>
	<rect x="62.8" y="316.8" style="fill:#EAD681;" width="200" height="24"/>
	<rect x="62.8" y="228.8" style="fill:#EAD681;" width="200" height="16"/>
	<rect x="150.8" y="236.8" style="fill:#EAD681;" width="16" height="96"/>
	<rect x="150.8" y="428.8" style="fill:#EAD681;" width="16" height="64"/>
	<rect x="94.8" y="324.8" style="fill:#EAD681;" width="16" height="96"/>
	<rect x="214.8" y="324.8" style="fill:#EAD681;" width="16" height="96"/>
	<rect x="94.8" y="148.8" style="fill:#EAD681;" width="16" height="96"/>
	<rect x="214.8" y="148.8" style="fill:#EAD681;" width="16" height="96"/>
</g>
<g>
	<path id="SVGCleanerId_0_1_" style="fill:#E28723;" d="M278.8,171.2c0,7.2-2.4,9.6-8,9.6H51.6c-4.8,0-12.8-2.4-12.8-9.6V116
		c0-6.4,8-15.2,12.8-15.2h219.2c4.8,0,8,8.8,8,15.2V171.2z"/>
</g>
<g>
	<path style="fill:#BC6713;" d="M278.8,171.2c0,7.2-2.4,9.6-8,9.6H51.6c-4.8,0-12.8-2.4-12.8-9.6"/>
	<path style="fill:#BC6713;" d="M54.8,100.8h216c4.8,0,8,8.8,8,15.2v55.2c0,7.2-2.4,9.6-8,9.6"/>
</g>
<path style="fill:#A5A5A5;" d="M399.6,144.8c-31.2,0-56.8-25.6-56.8-56.8c0-14.4,5.6-28,15.2-38.4c-24.8,8.8-41.6,32.8-41.6,60
	c0,35.2,28.8,64,64,64c29.6,0,54.4-20,61.6-48C431.6,137.6,416.4,144.8,399.6,144.8z"/>
<circle style="fill:#EDB74A;" cx="59.6" cy="123.2" r="8"/>
<g>
	<circle style="fill:#EF9C48;" cx="60.4" cy="144" r="3.2"/>
	<circle style="fill:#EF9C48;" cx="83.6" cy="136" r="3.2"/>
	<circle style="fill:#EF9C48;" cx="78.8" cy="156" r="0.8"/>
</g>
<circle style="fill:#EDB74A;" cx="62" cy="164" r="5.6"/>
<g>
	<circle style="fill:#EF9C48;" cx="96.4" cy="152" r="2.4"/>
	<circle style="fill:#EF9C48;" cx="119.6" cy="154.4" r="6.4"/>
</g>
<circle style="fill:#EDB74A;" cx="109.2" cy="136.8" r="4"/>
<g>
	<polygon style="fill:#E28723;" points="333.2,228 338,239.2 350,240.8 342,249.6 343.6,261.6 333.2,256 322,261.6 324.4,249.6 
		315.6,240.8 327.6,239.2 	"/>
	<polygon style="fill:#E28723;" points="396.4,196 400.4,203.2 408.4,204.8 402.8,210.4 403.6,219.2 396.4,215.2 389.2,219.2 
		390.8,210.4 384.4,204.8 392.4,203.2 	"/>
	<polygon style="fill:#E28723;" points="418.8,252 425.2,264.8 438.8,266.4 428.4,276.8 431.6,291.2 418.8,284 406,291.2 
		408.4,276.8 398,266.4 412.4,264.8 	"/>
</g>
<g>
</g>
<g>
</g>
<g>
</g>
<g>
</g>
<g>
</g>
<g>
</g>
<g>
</g>
<g>
</g>
<g>
</g>
<g>
</g>
<g>
</g>
<g>
</g>
<g>
</g>
<g>
</g>
<g>
</g>
</svg>
