<?xml version="1.0" encoding="iso-8859-1"?>
<!-- Generator: Adobe Illustrator 19.0.0, SVG Export Plug-In . SVG Version: 6.00 Build 0)  -->
<svg version="1.1" id="Layer_1" xmlns="http://www.w3.org/2000/svg" xmlns:xlink="http://www.w3.org/1999/xlink" x="0px" y="0px"
	 viewBox="0 0 501.845 501.845" style="enable-background:new 0 0 501.845 501.845;" xml:space="preserve">
<rect x="226.922" y="371.2" style="fill:#1B9E79;" width="48" height="128"/>
<polygon style="fill:#2ED887;" points="478.922,411.2 250.922,183.2 22.922,411.2 "/>
<polygon style="fill:#2CBF7F;" points="478.922,411.2 250.922,183.2 186.922,411.2 "/>
<polygon style="fill:#2ED887;" points="433.322,315.2 251.722,133.6 70.122,315.2 "/>
<polygon style="fill:#2CBF7F;" points="433.322,315.2 251.722,133.6 201.322,315.2 "/>
<polygon style="fill:#2ED887;" points="395.722,243.2 251.722,99.2 108.522,243.2 "/>
<polygon style="fill:#2CBF7F;" points="395.722,243.2 251.722,99.2 211.722,243.2 "/>
<polygon style="fill:#2ED887;" points="356.522,179.2 251.722,74.4 146.922,179.2 "/>
<polygon style="fill:#2CBF7F;" points="356.522,179.2 251.722,74.4 222.922,179.2 "/>
<path style="fill:#1B9E79;" d="M323.722,499.2c0,4.8-32,1.6-72,1.6s-72,3.2-72-1.6c0-4.8,32-8.8,72-8.8S323.722,494.4,323.722,499.2
	z"/>
<polygon style="fill:#FC97D3;" points="250.922,0 267.722,33.6 304.522,39.2 278.122,65.6 283.722,102.4 250.922,84.8 
	218.122,102.4 223.722,65.6 197.322,39.2 234.122,33.6 "/>
<polygon style="fill:#DD588E;" points="250.922,0 267.722,33.6 304.522,39.2 278.122,65.6 283.722,102.4 250.922,84.8 
	218.122,102.4 236.522,74.4 197.322,39.2 242.122,44 "/>
<g>
	<path style="fill:none;stroke:#FF73B9;stroke-miterlimit:10;" d="M241.322,218.4c0,20.8-16.8,37.6-37.6,37.6s-37.6-16.8-37.6-37.6"
		/>
	<path style="fill:none;stroke:#FFEF5F;stroke-miterlimit:10;" d="M293.322,140.8c0,20.8-16.8,37.6-37.6,37.6s-37.6-16.8-37.6-37.6"
		/>
	<path style="fill:none;stroke:#61F4FF;stroke-miterlimit:10;" d="M330.922,326.4c0,20.8-16.8,37.6-37.6,37.6
		c-20.8,0-37.6-16.8-37.6-37.6"/>
</g>
<g>
</g>
<g>
</g>
<g>
</g>
<g>
</g>
<g>
</g>
<g>
</g>
<g>
</g>
<g>
</g>
<g>
</g>
<g>
</g>
<g>
</g>
<g>
</g>
<g>
</g>
<g>
</g>
<g>
</g>
</svg>
