<?xml version="1.0" encoding="iso-8859-1"?>
<!-- Generator: Adobe Illustrator 19.0.0, SVG Export Plug-In . SVG Version: 6.00 Build 0)  -->
<svg version="1.1" id="Layer_1" xmlns="http://www.w3.org/2000/svg" xmlns:xlink="http://www.w3.org/1999/xlink" x="0px" y="0px"
	 viewBox="0 0 488.8 488.8" style="enable-background:new 0 0 488.8 488.8;" xml:space="preserve">
<rect x="4.4" y="176.8" style="fill:#A00D0D;" width="480" height="312"/>
<polyline style="fill:#680303;" points="4.4,176.8 484.4,176.8 484.4,488 "/>
<g>
	<rect x="4.4" y="216" style="fill:#E2E0C3;" width="480" height="12.8"/>
	<rect x="342" y="263.2" style="fill:#E2E0C3;" width="142.4" height="12.8"/>
	<rect x="366" y="310.4" style="fill:#E2E0C3;" width="118.4" height="12.8"/>
	<rect x="355.6" y="357.6" style="fill:#E2E0C3;" width="128.8" height="12.8"/>
	<rect x="367.6" y="404.8" style="fill:#E2E0C3;" width="116.8" height="12.8"/>
	<rect x="354.8" y="452" style="fill:#E2E0C3;" width="129.6" height="12.8"/>
	<rect x="4.4" y="263.2" style="fill:#E2E0C3;" width="142.4" height="12.8"/>
	<rect x="4.4" y="310.4" style="fill:#E2E0C3;" width="109.6" height="12.8"/>
	<rect x="4.4" y="357.6" style="fill:#E2E0C3;" width="115.2" height="12.8"/>
	<rect x="4.4" y="404.8" style="fill:#E2E0C3;" width="124" height="12.8"/>
	<rect x="4.4" y="452" style="fill:#E2E0C3;" width="125.6" height="12.8"/>
</g>
<rect x="238.8" y="101.6" style="fill:#1B9E79;" width="12.8" height="34.4"/>
<polygon style="fill:#2ED887;" points="306.8,112.8 244.4,50.4 182,112.8 "/>
<polygon style="fill:#2CBF7F;" points="306.8,112.8 244.4,50.4 226.8,112.8 "/>
<polygon style="fill:#2ED887;" points="294,87.2 244.4,36.8 194.8,87.2 "/>
<polygon style="fill:#2CBF7F;" points="294,87.2 244.4,36.8 230.8,87.2 "/>
<polygon style="fill:#2ED887;" points="284.4,67.2 244.4,28 205.2,67.2 "/>
<polygon style="fill:#2CBF7F;" points="284.4,67.2 244.4,28 234,67.2 "/>
<polygon style="fill:#2ED887;" points="273.2,49.6 244.4,20.8 216.4,49.6 "/>
<polygon style="fill:#2CBF7F;" points="273.2,49.6 244.4,20.8 236.4,49.6 "/>
<path style="fill:#1B9E79;" d="M264.4,136.8c0,1.6-8.8,0.8-20,0.8c-11.2,0-20,0.8-20-0.8s8.8-2.4,20-2.4
	C255.6,133.6,264.4,135.2,264.4,136.8z"/>
<polygon style="fill:#FC97D3;" points="244.4,0 249.2,8.8 258.8,10.4 251.6,17.6 253.2,28 244.4,23.2 235.6,28 237.2,17.6 230,10.4 
	239.6,8.8 "/>
<polygon style="fill:#DD588E;" points="244.4,0 249.2,8.8 258.8,10.4 251.6,17.6 253.2,28 244.4,23.2 235.6,28 240.4,20 230,10.4 
	242,12 "/>
<g>
	<path style="fill:none;stroke:#FF73B9;stroke-width:0.286;stroke-miterlimit:10;" d="M242,59.2c0,5.6-4.8,10.4-10.4,10.4
		c-5.6,0-10.4-4.8-10.4-10.4"/>
	<path style="fill:none;stroke:#FFEF5F;stroke-width:0.286;stroke-miterlimit:10;" d="M256.4,38.4c0,5.6-4.8,10.4-10.4,10.4
		s-10.4-4.8-10.4-10.4"/>
	<path style="fill:none;stroke:#61F4FF;stroke-width:0.286;stroke-miterlimit:10;" d="M266,88.8c0,5.6-4.8,10.4-10.4,10.4
		s-10.4-4.8-10.4-10.4"/>
</g>
<path style="fill:#38A31D;" d="M414,36.8c0,0,19.2-4.8,17.6-11.2s-20.8-20-27.2-7.2c-5.6,13.6-1.6,20.8-1.6,20.8l12,0.8L414,36.8z"
	/>
<path style="fill:#20890A;" d="M405.2,18.4c-5.6,13.6-1.6,20.8-1.6,20.8l12,0.8l-0.8-3.2c0,0,19.2-4.8,17.6-11.2"/>
<path style="fill:#136804;" d="M405.2,18.4c-5.6,13.6-1.6,20.8-1.6,20.8l12,0.8l-0.8-3.2"/>
<path style="fill:#38A31D;" d="M390,36.8c0,0-19.2-4.8-17.6-11.2s20.8-20,27.2-7.2c5.6,13.6,1.6,20.8,1.6,20.8l-12,0.8L390,36.8z"/>
<path style="fill:#20890A;" d="M399.6,18.4c5.6,13.6,1.6,20.8,1.6,20.8l-12,0.8v-3.2c0,0-19.2-4.8-17.6-11.2"/>
<path style="fill:#136804;" d="M399.6,18.4c5.6,13.6,1.6,20.8,1.6,20.8l-12,0.8v-3.2"/>
<path style="fill:#21B3F4;" d="M451.6,130.4c0,4-3.2,6.4-6.4,6.4h-85.6c-4,0-6.4-3.2-6.4-6.4V45.6c0-4,3.2-6.4,6.4-6.4h84.8
	c4,0,6.4,3.2,6.4,6.4v84.8H451.6z"/>
<path style="fill:#098CC6;" d="M353.2,45.6c0-4,3.2-6.4,6.4-6.4h84.8c4,0,6.4,3.2,6.4,6.4v84.8c0,4-3.2,6.4-6.4,6.4H402"/>
<g>
	<path style="fill:#F4CE89;" d="M354,59.2c4.8,0,8.8,4,8.8,8.8s-4,8.8-8.8,8.8"/>
	<circle style="fill:#F4CE89;" cx="378" cy="68" r="8.8"/>
	<circle style="fill:#F4CE89;" cx="402" cy="68" r="8.8"/>
	<circle style="fill:#F4CE89;" cx="426.8" cy="68" r="8.8"/>
	<path style="fill:#F4CE89;" d="M450.8,76.8c-4.8,0-8.8-4-8.8-8.8s4-8.8,8.8-8.8"/>
</g>
<g>
	<path style="fill:#F4B840;" d="M354,59.2c4.8,0,8.8,4,8.8,8.8s-4,8.8-8.8,8.8"/>
	<path style="fill:#F4B840;" d="M378,59.2c4.8,0,8.8,4,8.8,8.8s-4,8.8-8.8,8.8"/>
	<path style="fill:#F4B840;" d="M402,59.2c4.8,0,8.8,4,8.8,8.8s-4,8.8-8.8,8.8"/>
	<path style="fill:#F4B840;" d="M426.8,59.2c4.8,0,8.8,4,8.8,8.8s-4,8.8-8.8,8.8"/>
</g>
<g>
	<path style="fill:#F4CE89;" d="M374.8,85.6c0,4.8-4,8.8-8.8,8.8s-8.8-4-8.8-8.8s4-8.8,8.8-8.8S374.8,80.8,374.8,85.6z"/>
	<path style="fill:#F4CE89;" d="M398.8,85.6c0,4.8-4,8.8-8.8,8.8s-8.8-4-8.8-8.8s4-8.8,8.8-8.8C394.8,76.8,398.8,80.8,398.8,85.6z"
		/>
	<path style="fill:#F4CE89;" d="M423.6,85.6c0,4.8-4,8.8-8.8,8.8s-8.8-4-8.8-8.8s4-8.8,8.8-8.8C419.6,76.8,423.6,80.8,423.6,85.6z"
		/>
	<path style="fill:#F4CE89;" d="M447.6,85.6c0,4.8-4,8.8-8.8,8.8s-8.8-4-8.8-8.8s4-8.8,8.8-8.8C443.6,76.8,447.6,80.8,447.6,85.6z"
		/>
</g>
<g>
	<path style="fill:#F4B840;" d="M366,76.8c4.8,0,8.8,4,8.8,8.8s-4,8.8-8.8,8.8"/>
	<path style="fill:#F4B840;" d="M390,76.8c4.8,0,8.8,4,8.8,8.8s-4,8.8-8.8,8.8"/>
	<path style="fill:#F4B840;" d="M414.8,76.8c4.8,0,8.8,4,8.8,8.8s-4,8.8-8.8,8.8"/>
	<path style="fill:#F4B840;" d="M438.8,76.8c4.8,0,8.8,4,8.8,8.8s-4,8.8-8.8,8.8"/>
</g>
<g>
	<path style="fill:#F4CE89;" d="M354,96.8c4.8,0,8.8,4,8.8,8.8s-4,8.8-8.8,8.8"/>
	<circle style="fill:#F4CE89;" cx="378" cy="105.6" r="8.8"/>
	<circle style="fill:#F4CE89;" cx="402" cy="105.6" r="8.8"/>
	<circle style="fill:#F4CE89;" cx="426.8" cy="105.6" r="8.8"/>
	<path style="fill:#F4CE89;" d="M450.8,114.4c-4.8,0-8.8-4-8.8-8.8s4-8.8,8.8-8.8"/>
</g>
<g>
	<path style="fill:#F4B840;" d="M354,96.8c4.8,0,8.8,4,8.8,8.8s-4,8.8-8.8,8.8"/>
	<path style="fill:#F4B840;" d="M378,96.8c4.8,0,8.8,4,8.8,8.8s-4,8.8-8.8,8.8"/>
	<path style="fill:#F4B840;" d="M402,96.8c4.8,0,8.8,4,8.8,8.8s-4,8.8-8.8,8.8"/>
	<path style="fill:#F4B840;" d="M426.8,96.8c4.8,0,8.8,4,8.8,8.8s-4,8.8-8.8,8.8"/>
</g>
<g>
	<path style="fill:#F4CE89;" d="M374.8,124c0,4.8-4,8.8-8.8,8.8s-8.8-4-8.8-8.8s4-8.8,8.8-8.8S374.8,118.4,374.8,124z"/>
	<path style="fill:#F4CE89;" d="M398.8,124c0,4.8-4,8.8-8.8,8.8s-8.8-4-8.8-8.8s4-8.8,8.8-8.8S398.8,118.4,398.8,124z"/>
	<path style="fill:#F4CE89;" d="M423.6,124c0,4.8-4,8.8-8.8,8.8s-8.8-4-8.8-8.8s4-8.8,8.8-8.8S423.6,118.4,423.6,124z"/>
	<path style="fill:#F4CE89;" d="M447.6,124c0,4.8-4,8.8-8.8,8.8s-8.8-4-8.8-8.8s4-8.8,8.8-8.8S447.6,118.4,447.6,124z"/>
</g>
<g>
	<path style="fill:#F4B840;" d="M366,115.2c4.8,0,8.8,4,8.8,8.8s-4,8.8-8.8,8.8"/>
	<path style="fill:#F4B840;" d="M390,115.2c4.8,0,8.8,4,8.8,8.8s-4,8.8-8.8,8.8"/>
	<path style="fill:#F4B840;" d="M414.8,115.2c4.8,0,8.8,4,8.8,8.8s-4,8.8-8.8,8.8"/>
	<path style="fill:#F4B840;" d="M438.8,115.2c4.8,0,8.8,4,8.8,8.8s-4,8.8-8.8,8.8"/>
	<rect x="350.8" y="36.8" style="fill:#F4B840;" width="103.2" height="19.2"/>
</g>
<rect x="358.8" y="36.8" style="fill:#E28C37;" width="95.2" height="19.2"/>
<rect x="389.2" y="36.8" style="opacity:0.7;fill:#136804;enable-background:new    ;" width="25.6" height="100.8"/>
<path style="fill:#38A31D;" d="M431.6,31.2c0,0,19.2,1.6,13.6,23.2s18.4,16,18.4,16s-5.6,6.4-8.8,6.4l5.6,7.2
	c0,0-18.4,0.8-24.8-10.4s1.6-20.8,2.4-30.4C439.6,33.6,431.6,31.2,431.6,31.2z"/>
<path style="fill:#47B528;" d="M435.6,74.4c-6.4-11.2,1.6-20.8,2.4-30.4s-6.4-12.8-6.4-12.8s19.2,1.6,13.6,23.2s18.4,16,18.4,16"/>
<path style="fill:#38A31D;" d="M438,44c0.8-9.6-6.4-12.8-6.4-12.8s19.2,1.6,13.6,23.2"/>
<path style="fill:#20890A;" d="M454.8,76.8l5.6,7.2c0,0-18.4,0.8-24.8-10.4"/>
<path style="fill:#38A31D;" d="M372.4,31.2c0,0-19.2,1.6-13.6,23.2s-18.4,16-18.4,16s5.6,6.4,8.8,6.4l-5.6,7.2
	c0,0,18.4,0.8,24.8-10.4s-1.6-20.8-2.4-30.4C364.4,33.6,372.4,31.2,372.4,31.2z"/>
<path style="fill:#47B528;" d="M368.4,74.4c6.4-11.2-1.6-20.8-2.4-30.4c-1.6-10.4,6.4-12.8,6.4-12.8s-19.2,1.6-13.6,23.2
	s-18.4,16-18.4,16"/>
<path style="fill:#38A31D;" d="M366,44c-1.6-10.4,6.4-12.8,6.4-12.8s-19.2,1.6-13.6,23.2"/>
<path style="fill:#20890A;" d="M349.2,76.8l-5.6,7.2c0,0,18.4,0.8,24.8-10.4"/>
<g style="opacity:0.4;">
	<circle style="fill:#91ED77;" cx="393.2" cy="40" r="1.6"/>
	<circle style="fill:#91ED77;" cx="398.8" cy="40" r="1.6"/>
	<circle style="fill:#91ED77;" cx="405.2" cy="40" r="1.6"/>
	<circle style="fill:#91ED77;" cx="410.8" cy="40" r="1.6"/>
	<circle style="fill:#91ED77;" cx="393.2" cy="45.6" r="1.6"/>
	<circle style="fill:#91ED77;" cx="398.8" cy="45.6" r="1.6"/>
	<circle style="fill:#91ED77;" cx="405.2" cy="45.6" r="1.6"/>
	<circle style="fill:#91ED77;" cx="410.8" cy="45.6" r="1.6"/>
	<circle style="fill:#91ED77;" cx="393.2" cy="52" r="1.6"/>
	<circle style="fill:#91ED77;" cx="398.8" cy="52" r="1.6"/>
	<circle style="fill:#91ED77;" cx="405.2" cy="52" r="1.6"/>
	<circle style="fill:#91ED77;" cx="410.8" cy="52" r="1.6"/>
	<circle style="fill:#91ED77;" cx="393.2" cy="57.6" r="1.6"/>
	<circle style="fill:#91ED77;" cx="398.8" cy="57.6" r="1.6"/>
	<circle style="fill:#91ED77;" cx="405.2" cy="57.6" r="1.6"/>
	<circle style="fill:#91ED77;" cx="410.8" cy="57.6" r="1.6"/>
	<circle style="fill:#91ED77;" cx="393.2" cy="63.2" r="1.6"/>
	<circle style="fill:#91ED77;" cx="398.8" cy="63.2" r="1.6"/>
	<circle style="fill:#91ED77;" cx="405.2" cy="63.2" r="1.6"/>
	<circle style="fill:#91ED77;" cx="410.8" cy="63.2" r="1.6"/>
	<path style="fill:#91ED77;" d="M394.8,68.8c0,0.8-0.8,1.6-1.6,1.6c-0.8,0-1.6-0.8-1.6-1.6c0-0.8,0.8-1.6,1.6-1.6
		C394,67.2,394.8,68,394.8,68.8z"/>
	<path style="fill:#91ED77;" d="M400.4,68.8c0,0.8-0.8,1.6-1.6,1.6c-0.8,0-1.6-0.8-1.6-1.6c0-0.8,0.8-1.6,1.6-1.6
		C399.6,67.2,400.4,68,400.4,68.8z"/>
	<path style="fill:#91ED77;" d="M406,68.8c0,0.8-0.8,1.6-1.6,1.6c-0.8,0-1.6-0.8-1.6-1.6c0-0.8,0.8-1.6,1.6-1.6
		C406,67.2,406,68,406,68.8z"/>
	<path style="fill:#91ED77;" d="M412.4,68.8c0,0.8-0.8,1.6-1.6,1.6s-1.6-0.8-1.6-1.6c0-0.8,0.8-1.6,1.6-1.6S412.4,68,412.4,68.8z"/>
	<circle style="fill:#91ED77;" cx="393.2" cy="74.4" r="1.6"/>
	<circle style="fill:#91ED77;" cx="398.8" cy="74.4" r="1.6"/>
	<circle style="fill:#91ED77;" cx="405.2" cy="74.4" r="1.6"/>
	<circle style="fill:#91ED77;" cx="410.8" cy="74.4" r="1.6"/>
	<circle style="fill:#91ED77;" cx="393.2" cy="80.8" r="1.6"/>
	<circle style="fill:#91ED77;" cx="398.8" cy="80.8" r="1.6"/>
	<circle style="fill:#91ED77;" cx="405.2" cy="80.8" r="1.6"/>
	<circle style="fill:#91ED77;" cx="410.8" cy="80.8" r="1.6"/>
	<circle style="fill:#91ED77;" cx="393.2" cy="86.4" r="1.6"/>
	<circle style="fill:#91ED77;" cx="398.8" cy="86.4" r="1.6"/>
	<circle style="fill:#91ED77;" cx="405.2" cy="86.4" r="1.6"/>
	<circle style="fill:#91ED77;" cx="410.8" cy="86.4" r="1.6"/>
	<circle style="fill:#91ED77;" cx="393.2" cy="92" r="1.6"/>
	<circle style="fill:#91ED77;" cx="398.8" cy="92" r="1.6"/>
	<circle style="fill:#91ED77;" cx="405.2" cy="92" r="1.6"/>
	<circle style="fill:#91ED77;" cx="410.8" cy="92" r="1.6"/>
	<circle style="fill:#91ED77;" cx="393.2" cy="97.6" r="1.6"/>
	<circle style="fill:#91ED77;" cx="398.8" cy="97.6" r="1.6"/>
	<circle style="fill:#91ED77;" cx="405.2" cy="97.6" r="1.6"/>
	<circle style="fill:#91ED77;" cx="410.8" cy="97.6" r="1.6"/>
	<circle style="fill:#91ED77;" cx="393.2" cy="103.2" r="1.6"/>
	<circle style="fill:#91ED77;" cx="398.8" cy="103.2" r="1.6"/>
	<circle style="fill:#91ED77;" cx="405.2" cy="103.2" r="1.6"/>
	<circle style="fill:#91ED77;" cx="410.8" cy="103.2" r="1.6"/>
	<path style="fill:#91ED77;" d="M394.8,109.6c0,0.8-0.8,1.6-1.6,1.6c-0.8,0-1.6-0.8-1.6-1.6c0-0.8,0.8-1.6,1.6-1.6
		S394.8,108.8,394.8,109.6z"/>
	<path style="fill:#91ED77;" d="M400.4,109.6c0,0.8-0.8,1.6-1.6,1.6c-0.8,0-1.6-0.8-1.6-1.6c0-0.8,0.8-1.6,1.6-1.6
		S400.4,108.8,400.4,109.6z"/>
	<path style="fill:#91ED77;" d="M406,109.6c0,0.8-0.8,1.6-1.6,1.6c-0.8,0-1.6-0.8-1.6-1.6c0-0.8,0.8-1.6,1.6-1.6
		C406,108,406,108.8,406,109.6z"/>
	<path style="fill:#91ED77;" d="M412.4,109.6c0,0.8-0.8,1.6-1.6,1.6s-1.6-0.8-1.6-1.6c0-0.8,0.8-1.6,1.6-1.6
		S412.4,108.8,412.4,109.6z"/>
	<circle style="fill:#91ED77;" cx="393.2" cy="115.2" r="1.6"/>
	<circle style="fill:#91ED77;" cx="398.8" cy="115.2" r="1.6"/>
	<circle style="fill:#91ED77;" cx="405.2" cy="115.2" r="1.6"/>
	<circle style="fill:#91ED77;" cx="410.8" cy="115.2" r="1.6"/>
	<circle style="fill:#91ED77;" cx="393.2" cy="120.8" r="1.6"/>
	<circle style="fill:#91ED77;" cx="398.8" cy="120.8" r="1.6"/>
	<circle style="fill:#91ED77;" cx="405.2" cy="120.8" r="1.6"/>
	<circle style="fill:#91ED77;" cx="410.8" cy="120.8" r="1.6"/>
	<circle style="fill:#91ED77;" cx="393.2" cy="126.4" r="1.6"/>
	<circle style="fill:#91ED77;" cx="398.8" cy="126.4" r="1.6"/>
	<circle style="fill:#91ED77;" cx="405.2" cy="126.4" r="1.6"/>
	<circle style="fill:#91ED77;" cx="410.8" cy="126.4" r="1.6"/>
	<path style="fill:#91ED77;" d="M394.8,132c0,0.8-0.8,1.6-1.6,1.6c-0.8,0-1.6-0.8-1.6-1.6s0.8-1.6,1.6-1.6S394.8,131.2,394.8,132z"
		/>
	<path style="fill:#91ED77;" d="M400.4,132c0,0.8-0.8,1.6-1.6,1.6c-0.8,0-1.6-0.8-1.6-1.6s0.8-1.6,1.6-1.6S400.4,131.2,400.4,132z"
		/>
	<path style="fill:#91ED77;" d="M406,132c0,0.8-0.8,1.6-1.6,1.6c-0.8,0-1.6-0.8-1.6-1.6s0.8-1.6,1.6-1.6
		C406,130.4,406,131.2,406,132z"/>
	<path style="fill:#91ED77;" d="M412.4,132c0,0.8-0.8,1.6-1.6,1.6s-1.6-0.8-1.6-1.6s0.8-1.6,1.6-1.6S412.4,131.2,412.4,132z"/>
</g>
<path style="fill:#A1E5F7;" d="M126.8,113.6c8-8.8,12.8-20,12.8-32c0-26.4-20.8-47.2-47.2-47.2S45.2,55.2,45.2,81.6
	c0,12.8,4.8,24,12.8,32H126.8z"/>
<path style="fill:#61CCF2;" d="M58,113.6h68c8-8.8,12.8-20,12.8-32c0-26.4-20.8-47.2-47.2-47.2"/>
<path style="fill:#BCBCBC;" d="M137.2,125.6c0,6.4,1.6,11.2-4.8,11.2h-80c-6.4,0-6.4-4.8-6.4-11.2l0,0c0-6.4,4.8-11.2,11.2-11.2h68
	C132.4,114.4,137.2,119.2,137.2,125.6L137.2,125.6z"/>
<path style="fill:#A5A5A5;" d="M137.2,125.6L137.2,125.6c0,6.4,1.6,11.2-4.8,11.2h-80c-6.4,0-6.4-4.8-6.4-11.2l0,0"/>
<g>
	<circle style="fill:#D7F7FF;" cx="65.2" cy="63.2" r="3.2"/>
	<circle style="fill:#D7F7FF;" cx="71.6" cy="55.2" r="0.8"/>
	<circle style="fill:#D7F7FF;" cx="65.2" cy="80" r="3.2"/>
	<circle style="fill:#D7F7FF;" cx="76.4" cy="71.2" r="0.8"/>
	<circle style="fill:#D7F7FF;" cx="69.2" cy="71.2" r="0.8"/>
	<circle style="fill:#D7F7FF;" cx="74.8" cy="62.4" r="0.8"/>
	<circle style="fill:#D7F7FF;" cx="86" cy="49.6" r="0.8"/>
	<circle style="fill:#D7F7FF;" cx="78.8" cy="44.8" r="1.6"/>
	<circle style="fill:#D7F7FF;" cx="58.8" cy="90.4" r="0.8"/>
	<path style="fill:#D7F7FF;" d="M65.2,88.8C65.2,89.6,65.2,89.6,65.2,88.8c-0.8,0.8-1.6,0-1.6,0C64.4,88.8,64.4,88,65.2,88.8
		C65.2,88,65.2,88.8,65.2,88.8z"/>
	<circle style="fill:#D7F7FF;" cx="56.4" cy="96" r="1.6"/>
	<circle style="fill:#D7F7FF;" cx="57.2" cy="83.2" r="1.6"/>
	
		<ellipse transform="matrix(-0.3996 0.9167 -0.9167 -0.3996 135.232 38.1107)" style="fill:#D7F7FF;" cx="55.135" cy="63.342" rx="15.2" ry="4"/>
</g>
<path style="fill:#0EB1DD;" d="M126.8,113.6c8-8.8,12.8-20,12.8-32c0-26.4-20.8-47.2-47.2-47.2"/>
<g>
	<circle style="fill:#A1E5F7;" cx="88.4" cy="63.2" r="1.6"/>
	<circle style="fill:#A1E5F7;" cx="86" cy="71.2" r="0.8"/>
	<circle style="fill:#A1E5F7;" cx="97.2" cy="58.4" r="3.2"/>
	<path style="fill:#A1E5F7;" d="M109.2,77.6c0,0.8-0.8,1.6-0.8,1.6c-0.8,0-0.8-0.8-0.8-1.6c0-0.8,0.8-1.6,0.8-1.6
		C109.2,76.8,109.2,77.6,109.2,77.6z"/>
	<circle style="fill:#A1E5F7;" cx="86" cy="60" r="0.8"/>
	<circle style="fill:#A1E5F7;" cx="82.8" cy="72.8" r="0.8"/>
	<circle style="fill:#A1E5F7;" cx="80.4" cy="82.4" r="1.6"/>
	<circle style="fill:#A1E5F7;" cx="98" cy="68.8" r="1.6"/>
	<circle style="fill:#A1E5F7;" cx="93.2" cy="49.6" r="1.6"/>
	<circle style="fill:#A1E5F7;" cx="92.4" cy="42.4" r="0.8"/>
	<circle style="fill:#A1E5F7;" cx="91.6" cy="68.8" r="0.8"/>
	<circle style="fill:#A1E5F7;" cx="95.6" cy="76.8" r="2.4"/>
	<path style="fill:#A1E5F7;" d="M103.6,72C103.6,72.8,102.8,72.8,103.6,72c-0.8,0.8-1.6,0-1.6,0S102,71.2,103.6,72
		C102.8,71.2,103.6,72,103.6,72z"/>
	<circle style="fill:#A1E5F7;" cx="101.2" cy="64" r="0.8"/>
</g>
<g>
	<rect x="82" y="95.2" style="fill:#0A9ACC;" width="20" height="16"/>
	<path style="fill:#0A9ACC;" d="M105.2,95.2c0,0.8-0.8,1.6-1.6,1.6H80.4c-0.8,0-1.6-0.8-1.6-1.6l0,0c0-0.8,0.8-1.6,1.6-1.6h23.2
		C104.4,93.6,105.2,94.4,105.2,95.2L105.2,95.2z"/>
</g>
<g>
	<circle style="fill:#61CCF2;" cx="109.2" cy="52.8" r="0.8"/>
	<circle style="fill:#61CCF2;" cx="114.8" cy="63.2" r="3.2"/>
	<path style="fill:#61CCF2;" d="M121.2,80C121.2,80,120.4,80.8,121.2,80c-0.8,0.8-1.6,0.8-1.6,0S119.6,79.2,121.2,80
		C120.4,79.2,121.2,79.2,121.2,80z"/>
	<path style="fill:#61CCF2;" d="M122,85.6C122,86.4,122,86.4,122,85.6c-1.6,0.8-1.6,0.8-1.6,0C120.4,85.6,121.2,84.8,122,85.6
		C122,84.8,122,85.6,122,85.6z"/>
	<circle style="fill:#61CCF2;" cx="128.4" cy="83.2" r="0.8"/>
	<circle style="fill:#61CCF2;" cx="130" cy="93.6" r="2.4"/>
	<circle style="fill:#61CCF2;" cx="124.4" cy="94.4" r="0.8"/>
	<path style="fill:#61CCF2;" d="M114,71.2C114,72,114,72,114,71.2c-0.8,0.8-1.6,0-1.6,0C113.2,71.2,113.2,70.4,114,71.2
		C114,70.4,114,71.2,114,71.2z"/>
	<circle style="fill:#61CCF2;" cx="124.4" cy="71.2" r="4"/>
	<circle style="fill:#61CCF2;" cx="126" cy="80" r="1.6"/>
	<circle style="fill:#61CCF2;" cx="106.8" cy="60.8" r="0.8"/>
	<circle style="fill:#61CCF2;" cx="101.2" cy="45.6" r="0.8"/>
	<circle style="fill:#61CCF2;" cx="112.4" cy="56.8" r="0.8"/>
	<circle style="fill:#61CCF2;" cx="123.6" cy="62.4" r="0.8"/>
	<circle style="fill:#61CCF2;" cx="120.4" cy="55.2" r="2.4"/>
	<circle style="fill:#61CCF2;" cx="109.2" cy="47.2" r="1.6"/>
	<path style="fill:#61CCF2;" d="M106.8,41.6c0,0.8-0.8,1.6-1.6,1.6c-0.8,0-0.8-0.8-0.8-1.6s0.8-0.8,0.8-0.8
		C106,40,106.8,40.8,106.8,41.6z"/>
</g>
<path style="fill:#EDB311;" d="M96.4,33.6c0,1.6-1.6,2.4-2.4,2.4h-3.2c-1.6,0-2.4-1.6-2.4-2.4l0,0c0-1.6,1.6-2.4,2.4-2.4H94
	C95.6,31.2,96.4,32,96.4,33.6L96.4,33.6z"/>
<path style="fill:#EA8D13;" d="M96.4,33.6L96.4,33.6c0,1.6-1.6,2.4-2.4,2.4h-3.2c-1.6,0-2.4-1.6-2.4-2.4l0,0"/>
<g>
	<path style="fill:#0A9ACC;" d="M122.8,112c0,0.8-0.8,2.4-2.4,2.4H63.6c-0.8,0-2.4-0.8-2.4-2.4l0,0c0-0.8,0.8-2.4,2.4-2.4h57.6
		C122,109.6,122.8,110.4,122.8,112L122.8,112z"/>
	<polygon style="fill:#0A9ACC;" points="105.2,96 92.4,95.2 79.6,96 92.4,82.4 	"/>
	<path style="fill:#0A9ACC;" d="M108.4,110.4c0,0.8-0.8,1.6-1.6,1.6l0,0c-0.8,0-1.6-0.8-1.6-1.6v-8c0-0.8,0.8-1.6,1.6-1.6l0,0
		c0.8,0,1.6,0.8,1.6,1.6V110.4z"/>
	<path style="fill:#0A9ACC;" d="M114,110.4c0,0.8-0.8,1.6-1.6,1.6l0,0c-0.8,0-1.6-0.8-1.6-1.6v-8c0-0.8,0.8-1.6,1.6-1.6l0,0
		c0.8,0,1.6,0.8,1.6,1.6V110.4z"/>
	<path style="fill:#0A9ACC;" d="M118.8,110.4c0,0.8-0.8,1.6-1.6,1.6l0,0c-0.8,0-1.6-0.8-1.6-1.6v-8c0-0.8,0.8-1.6,1.6-1.6l0,0
		c0.8,0,1.6,0.8,1.6,1.6V110.4z"/>
	<path style="fill:#0A9ACC;" d="M120.4,106.4L120.4,106.4l-16,0.8c0,0-0.8,0-0.8-0.8l0,0c0,0,0-0.8,0.8-0.8L120.4,106.4
		C120.4,105.6,120.4,105.6,120.4,106.4L120.4,106.4z"/>
</g>
<circle style="fill:#61CCF2;" cx="90" cy="101.6" r="4"/>
<g>
	<rect x="89.2" y="95.2" style="fill:#0A9ACC;" width="1.6" height="13.6"/>
	<rect x="82.8" y="100.8" style="fill:#0A9ACC;" width="13.6" height="1.6"/>
	<rect x="97.2" y="82.4" style="fill:#0A9ACC;" width="4.8" height="14.4"/>
	<path style="fill:#0A9ACC;" d="M103.6,82.4c0,0.8-0.8,1.6-1.6,1.6h-4c-0.8,0-1.6-0.8-1.6-1.6l0,0c0-0.8,0.8-1.6,1.6-1.6h4
		C102.8,80.8,103.6,81.6,103.6,82.4L103.6,82.4z"/>
	<polygon style="fill:#0A9ACC;" points="75.6,104.8 77.2,104.8 74.8,100.8 75.6,100.8 74,96.8 74.8,96.8 72.4,91.2 69.2,96.8 
		70,96.8 68.4,100.8 69.2,100.8 67.6,104.8 68.4,104.8 66,109.6 70,109.6 78,109.6 	"/>
	<polygon style="fill:#0A9ACC;" points="68.4,106.4 69.2,106.4 68.4,104 68.4,104 67.6,102.4 67.6,102.4 66,99.2 64.4,102.4 
		65.2,102.4 64.4,104 64.4,104 63.6,106.4 64.4,106.4 62.8,109.6 65.2,109.6 70,109.6 	"/>
	<polygon style="fill:#0A9ACC;" points="80.4,106.4 81.2,106.4 80.4,104 81.2,104 79.6,102.4 80.4,102.4 78.8,99.2 77.2,102.4 
		77.2,102.4 76.4,104 77.2,104 75.6,106.4 76.4,106.4 74.8,109.6 78,109.6 82,109.6 	"/>
</g>
<circle style="fill:#BCBCBC;" cx="61.2" cy="126.4" r="2.4"/>
<path style="fill:#A5A5A5;" d="M58.8,126.4c0-1.6,0.8-2.4,2.4-2.4s2.4,0.8,2.4,2.4"/>
<circle style="fill:#BCBCBC;" cx="74" cy="126.4" r="2.4"/>
<path style="fill:#A5A5A5;" d="M71.6,126.4c0-1.6,0.8-2.4,2.4-2.4s2.4,0.8,2.4,2.4"/>
<circle style="fill:#BCBCBC;" cx="86" cy="126.4" r="2.4"/>
<path style="fill:#A5A5A5;" d="M83.6,126.4c0-1.6,0.8-2.4,2.4-2.4s2.4,0.8,2.4,2.4"/>
<circle style="fill:#BCBCBC;" cx="98.8" cy="126.4" r="2.4"/>
<path style="fill:#A5A5A5;" d="M95.6,126.4c0-1.6,0.8-2.4,2.4-2.4s2.4,0.8,2.4,2.4"/>
<circle style="fill:#BCBCBC;" cx="110.8" cy="126.4" r="2.4"/>
<path style="fill:#A5A5A5;" d="M108.4,126.4c0-1.6,0.8-2.4,2.4-2.4s2.4,0.8,2.4,2.4"/>
<circle style="fill:#BCBCBC;" cx="122.8" cy="126.4" r="2.4"/>
<path style="fill:#A5A5A5;" d="M120.4,126.4c0-1.6,0.8-2.4,2.4-2.4s2.4,0.8,2.4,2.4"/>
<g>
	<rect x="61.2" y="176.8" style="fill:#E2E0C3;" width="15.2" height="43.2"/>
	<rect x="178.8" y="176.8" style="fill:#E2E0C3;" width="15.2" height="43.2"/>
	<rect x="295.6" y="176.8" style="fill:#E2E0C3;" width="15.2" height="43.2"/>
	<rect x="412.4" y="176.8" style="fill:#E2E0C3;" width="15.2" height="43.2"/>
	<rect x="117.2" y="226.4" style="fill:#E2E0C3;" width="15.2" height="43.2"/>
	<rect x="6" y="226.4" style="fill:#E2E0C3;" width="15.2" height="43.2"/>
	<rect x="350.8" y="226.4" style="fill:#E2E0C3;" width="15.2" height="43.2"/>
	<rect x="467.6" y="226.4" style="fill:#E2E0C3;" width="15.2" height="43.2"/>
	<rect x="61.2" y="273.6" style="fill:#E2E0C3;" width="15.2" height="43.2"/>
	<rect x="412.4" y="273.6" style="fill:#E2E0C3;" width="15.2" height="43.2"/>
	<rect x="117.2" y="324" style="fill:#E2E0C3;" width="15.2" height="43.2"/>
	<rect x="6" y="324" style="fill:#E2E0C3;" width="15.2" height="43.2"/>
	<rect x="350.8" y="324" style="fill:#E2E0C3;" width="15.2" height="43.2"/>
	<rect x="467.6" y="324" style="fill:#E2E0C3;" width="15.2" height="43.2"/>
	<rect x="61.2" y="362.4" style="fill:#E2E0C3;" width="15.2" height="43.2"/>
	<rect x="412.4" y="362.4" style="fill:#E2E0C3;" width="15.2" height="43.2"/>
	<rect x="117.2" y="412" style="fill:#E2E0C3;" width="15.2" height="43.2"/>
	<rect x="6" y="412" style="fill:#E2E0C3;" width="15.2" height="43.2"/>
	<rect x="350.8" y="412" style="fill:#E2E0C3;" width="15.2" height="43.2"/>
	<rect x="467.6" y="412" style="fill:#E2E0C3;" width="15.2" height="43.2"/>
</g>
<rect x="126.8" y="270.4" style="fill:#2CBF7F;" width="235.2" height="217.6"/>
<polyline style="fill:#0C9675;" points="126.8,270.4 362,270.4 362,488 "/>
<polyline style="fill:#047761;" points="126.8,270.4 362,270.4 362,364 "/>
<g>
	<path style="fill:#084475;" d="M378,488h-29.6V314.4c0-24.8-20-44-44-44H185.2c-24.8,0-44,20-44,44V488h-30.4V314.4
		c0-40.8,33.6-74.4,74.4-74.4h118.4c40.8,0,74.4,33.6,74.4,74.4V488z"/>
	<rect x="4.4" y="133.6" style="fill:#084475;" width="480" height="51.2"/>
</g>
<rect x="4.4" y="153.6" style="fill:#02243E;" width="480" height="32"/>
<path style="fill:#F9DB5D;" d="M301.2,488c12-20,7.2-56.8,7.2-56.8c-7.2,30.4-19.2,39.2-19.2,39.2c36-57.6-28.8-121.6-40-143.2
	s4-30.4,4-30.4s-22.4,4-10.4,45.6c12,42.4-8,56.8-8,56.8c16-41.6-19.2-70.4-19.2-70.4s16,22.4-20.8,73.6c-30.4,43.2-8.8,76-1.6,84.8
	h108V488z"/>
<g>
	<path style="fill:#FC9A38;" d="M286,488c4-7.2,6.4-14.4,8-21.6c-2.4,3.2-4,4-4,4c1.6-3.2,3.2-6.4,4.8-9.6
		c5.6-44-27.2-92-33.6-110.4c-0.8-3.2-1.6-6.4-1.6-8.8c-1.6-2.4-4-4.8-4.8-7.2c-2.4,6.4-4,16-2.4,29.6c4.8,43.2-17.6,55.2-17.6,55.2
		c7.2-12,8.8-23.2,8.8-33.6c-3.2,9.6-8.8,12.8-8.8,12.8c5.6-14.4,4.8-27.2,1.6-37.6c-4-8.8-8.8-14.4-8.8-14.4s12,24-32,68.8
		c-6.4,6.4-11.2,12.8-15.2,19.2c-4.8,26.4,8,44.8,13.6,52h92V488z"/>
	<path style="fill:#FC9A38;" d="M302.8,463.2c-4.8,11.2-9.6,19.2-13.6,24.8h10.4C302.8,475.2,302.8,463.2,302.8,463.2z"/>
</g>
<g>
	<path style="fill:#02243E;" d="M110.8,308.8c0,1.6,0,4,0,5.6V488h29.6V314.4c0-1.6,0-4,0.8-5.6H110.8z"/>
	<path style="fill:#02243E;" d="M347.6,308.8c0,1.6,0.8,4,0.8,5.6V488h30.4V314.4c0-1.6,0-4,0-5.6H347.6z"/>
</g>
<circle style="fill:#2CBF7F;" cx="71.6" cy="189.6" r="15.2"/>
<path style="fill:#0C9675;" d="M60.4,178.4c5.6-5.6,15.2-5.6,20.8,0c5.6,5.6,5.6,15.2,0,20.8"/>
<circle style="fill:#2CBF7F;" cx="186.8" cy="189.6" r="15.2"/>
<path style="fill:#0C9675;" d="M176.4,178.4c5.6-5.6,15.2-5.6,20.8,0s5.6,15.2,0,20.8"/>
<circle style="fill:#2CBF7F;" cx="302" cy="189.6" r="15.2"/>
<path style="fill:#0C9675;" d="M291.6,178.4c5.6-5.6,15.2-5.6,20.8,0c5.6,5.6,5.6,15.2,0,20.8"/>
<circle style="fill:#2CBF7F;" cx="417.2" cy="189.6" r="15.2"/>
<path style="fill:#0C9675;" d="M406.8,178.4c5.6-5.6,15.2-5.6,20.8,0c5.6,5.6,5.6,15.2,0,20.8"/>
<polygon style="fill:#FF9700;" points="135.6,215.2 128.4,222.4 121.2,215.2 128.4,200 "/>
<g>
	<polygon style="fill:#2BD4D8;" points="103.6,209.6 93.2,209.6 93.2,199.2 109.2,193.6 	"/>
	<polygon style="fill:#2BD4D8;" points="154,209.6 163.6,209.6 163.6,199.2 147.6,193.6 	"/>
</g>
<polygon style="fill:#FF9700;" points="18.8,215.2 11.6,222.4 4.4,215.2 11.6,200 "/>
<polygon style="fill:#2BD4D8;" points="37.2,209.6 46.8,209.6 46.8,199.2 30.8,193.6 "/>
<polygon style="fill:#FF9700;" points="251.6,215.2 244.4,222.4 237.2,215.2 244.4,200 "/>
<g>
	<polygon style="fill:#2BD4D8;" points="218.8,209.6 209.2,209.6 209.2,199.2 225.2,193.6 	"/>
	<polygon style="fill:#2BD4D8;" points="270,209.6 279.6,209.6 279.6,199.2 263.6,193.6 	"/>
</g>
<polygon style="fill:#FF9700;" points="370.8,215.2 363.6,222.4 356.4,215.2 363.6,200 "/>
<g>
	<polygon style="fill:#2BD4D8;" points="338,209.6 328.4,209.6 328.4,199.2 344.4,193.6 	"/>
	<polygon style="fill:#2BD4D8;" points="388.4,209.6 398.8,209.6 398.8,199.2 382.8,193.6 	"/>
</g>
<polygon style="fill:#FF9700;" points="484.4,215.2 477.2,222.4 470,215.2 477.2,200 "/>
<polygon style="fill:#2BD4D8;" points="451.6,209.6 442,209.6 442,199.2 458,193.6 "/>
<circle style="fill:#B070ED;" cx="245.2" cy="200" r="31.2"/>
<path style="fill:#9B60BA;" d="M245.2,168.8c16.8,0,31.2,13.6,31.2,31.2c0,16.8-13.6,31.2-31.2,31.2"/>
<path style="fill:#FFB3ED;" d="M217.2,186.4h56c-0.8-1.6-1.6-2.4-2.4-4h-52C218.8,184,218,184.8,217.2,186.4z"/>
<path style="fill:#F48CD6;" d="M217.2,186.4h56c-0.8-1.6-1.6-2.4-2.4-4"/>
<path style="fill:#FFB3ED;" d="M219.6,216.8h52c0.8-0.8,1.6-2.4,2.4-4h-56C218,214.4,218.8,216,219.6,216.8z"/>
<path style="fill:#F48CD6;" d="M219.6,216.8h52c0.8-0.8,1.6-2.4,2.4-4"/>
<rect x="258.751" y="189.292" transform="matrix(-0.7061 0.7081 -0.7081 -0.7061 580.3232 141.7244)" style="fill:#F9BF30;" width="4" height="4"/>
<rect x="220.355" y="189.384" transform="matrix(-0.7071 0.7071 -0.7071 -0.7071 514.9127 169.4845)" style="fill:#FCF9C3;" width="4" height="4"/>
<rect x="227.686" y="189.693" transform="matrix(-0.7071 0.7071 -0.7071 -0.7071 527.6461 164.8279)" style="fill:#FFD77D;" width="4" height="4"/>
<rect x="235.591" y="189.46" transform="matrix(-0.7071 0.7071 -0.7071 -0.7071 540.9758 158.841)" style="fill:#FCF9C3;" width="4" height="4"/>
<polyline style="fill:#F7F131;" points="222,188.8 225.2,191.2 222,194.4 "/>
<polyline style="fill:#F9BF30;" points="230,188.8 232.4,191.2 230,194.4 "/>
<polyline style="fill:#F7F131;" points="237.2,188.8 240.4,191.2 237.2,194.4 "/>
<rect x="242.917" y="189.805" transform="matrix(-0.7061 0.7081 -0.7081 -0.7061 553.6731 153.8125)" style="fill:#F9BF30;" width="4" height="4"/>
<g>
	
		<rect x="250.819" y="189.536" transform="matrix(-0.7071 0.7071 -0.7071 -0.7071 567.0253 148.2031)" style="fill:#F7F131;" width="4" height="4"/>
	
		<rect x="266.055" y="189.614" transform="matrix(-0.7051 0.7091 -0.7091 -0.7051 592.9354 136.6431)" style="fill:#F7F131;" width="4" height="4"/>
</g>
<rect x="258.863" y="206.018" transform="matrix(-0.7061 0.7081 -0.7081 -0.7061 592.3585 170.1822)" style="fill:#F9BF30;" width="4" height="4"/>
<rect x="220.49" y="206.111" transform="matrix(-0.7071 0.7071 -0.7071 -0.7071 526.9716 197.9441)" style="fill:#FCF9C3;" width="4" height="4"/>
<rect x="227.829" y="206.436" transform="matrix(-0.7071 0.7071 -0.7071 -0.7071 539.7299 193.3092)" style="fill:#FFD77D;" width="4" height="4"/>
<rect x="235.726" y="206.196" transform="matrix(-0.7071 0.7071 -0.7071 -0.7071 553.0403 187.3142)" style="fill:#FCF9C3;" width="4" height="4"/>
<polyline style="fill:#F7F131;" points="222,205.6 225.2,208 222,211.2 "/>
<polyline style="fill:#F9BF30;" points="230,205.6 232.4,208 230,211.2 "/>
<polyline style="fill:#F7F131;" points="237.2,205.6 240.4,208 237.2,211.2 "/>
<rect x="243.029" y="206.508" transform="matrix(-0.7061 0.7081 -0.7081 -0.7061 565.6914 182.2294)" style="fill:#F9BF30;" width="4" height="4"/>
<g>
	
		<rect x="250.962" y="206.28" transform="matrix(-0.7071 0.7071 -0.7071 -0.7071 579.1091 176.6843)" style="fill:#F7F131;" width="4" height="4"/>
	
		<rect x="266.2" y="206.348" transform="matrix(-0.7051 0.7091 -0.7091 -0.7051 605.0483 165.073)" style="fill:#F7F131;" width="4" height="4"/>
</g>
<circle style="fill:#31F4A9;" cx="219.6" cy="199.2" r="2.4"/>
<circle style="fill:#FCF9C3;" cx="228.4" cy="199.2" r="2.4"/>
<circle style="fill:#31F4A9;" cx="236.4" cy="199.2" r="2.4"/>
<path style="fill:#1BE090;" d="M219.6,196.8c1.6,0,2.4,0.8,2.4,2.4c0,1.6-0.8,2.4-2.4,2.4"/>
<path style="fill:#F7F131;" d="M228.4,196.8c1.6,0,2.4,0.8,2.4,2.4c0,1.6-0.8,2.4-2.4,2.4"/>
<path style="fill:#1BE090;" d="M236.4,196.8c1.6,0,2.4,0.8,2.4,2.4c0,1.6-0.8,2.4-2.4,2.4"/>
<circle style="fill:#F7F131;" cx="245.2" cy="199.2" r="2.4"/>
<circle style="fill:#31F4A9;" cx="253.2" cy="199.2" r="2.4"/>
<circle style="fill:#F7F131;" cx="262" cy="199.2" r="2.4"/>
<circle style="fill:#31F4A9;" cx="270" cy="199.2" r="2.4"/>
<path style="fill:#B070ED;" d="M253.2,172c0,1.6-0.8,2.4-2.4,2.4h-11.2c-1.6,0-2.4-0.8-2.4-2.4v-8c0-1.6,0.8-2.4,2.4-2.4h11.2
	c1.6,0,2.4,0.8,2.4,2.4V172z"/>
<path style="fill:#9B60BA;" d="M237.2,163.2c0-1.6,0.8-2.4,2.4-2.4h11.2c1.6,0,2.4,0.8,2.4,2.4v8c0,1.6-0.8,2.4-2.4,2.4"/>
<path style="fill:#BF92FF;" d="M238,172c0.8,0.8-1.6,3.2-4.8,4.8s-5.6,3.2-6.4,2.4c-0.8-0.8,1.6-3.2,4.8-4.8
	C234.8,172,237.2,171.2,238,172z"/>
<g>
	<circle style="fill:#F48CD6;" cx="245.2" cy="156.8" r="1.6"/>
	<circle style="fill:#F48CD6;" cx="245.2" cy="148" r="1.6"/>
	<circle style="fill:#F48CD6;" cx="245.2" cy="140" r="1.6"/>
	<path style="fill:#F48CD6;" d="M219.6,150.4V148c0-0.8-0.8-0.8-0.8-0.8h-4c-0.8,0-0.8,0.8-0.8,0.8v2.4c-6.4,0.8-9.6,5.6-9.6,11.2
		c0,6.4,5.6,12,12,12s12-5.6,12-12C228.4,156,224.4,151.2,219.6,150.4z"/>
	<circle style="fill:#F48CD6;" cx="216.4" cy="144.8" r="0.8"/>
	<circle style="fill:#F48CD6;" cx="216.4" cy="141.6" r="0.8"/>
	<circle style="fill:#F48CD6;" cx="216.4" cy="138.4" r="0.8"/>
</g>
<g>
	<path style="fill:#B070ED;" d="M277.2,150.4V148c0-0.8-0.8-0.8-0.8-0.8h-4c-0.8,0-0.8,0.8-0.8,0.8v2.4c-4.8,1.6-8.8,6.4-8.8,12
		c0,6.4,5.6,12,12,12s12-5.6,12-12C286,156,282,151.2,277.2,150.4z"/>
	<circle style="fill:#B070ED;" cx="274" cy="144.8" r="0.8"/>
	<circle style="fill:#B070ED;" cx="274" cy="141.6" r="0.8"/>
	<circle style="fill:#B070ED;" cx="274" cy="138.4" r="0.8"/>
</g>
<g>
	<path style="fill:#F9DB5D;" d="M182.8,348c0,3.2-2.4,5.6-5.6,5.6s-5.6-2.4-5.6-5.6s2.4-5.6,5.6-5.6S182.8,344.8,182.8,348z"/>
	<circle style="fill:#F9DB5D;" cx="184.4" cy="371.2" r="1.6"/>
	<circle style="fill:#F9DB5D;" cx="203.6" cy="310.4" r="6.4"/>
	<circle style="fill:#F9DB5D;" cx="230" cy="320" r="0.8"/>
	<circle style="fill:#F9DB5D;" cx="307.6" cy="360.8" r="14.4"/>
	<circle style="fill:#F9DB5D;" cx="163.6" cy="470.4" r="3.2"/>
	<circle style="fill:#F9DB5D;" cx="170" cy="433.6" r="1.6"/>
	<circle style="fill:#F9DB5D;" cx="314.8" cy="399.2" r="4.8"/>
	<circle style="fill:#F9DB5D;" cx="278.8" cy="328.8" r="1.6"/>
</g>
<g>
</g>
<g>
</g>
<g>
</g>
<g>
</g>
<g>
</g>
<g>
</g>
<g>
</g>
<g>
</g>
<g>
</g>
<g>
</g>
<g>
</g>
<g>
</g>
<g>
</g>
<g>
</g>
<g>
</g>
</svg>
