<?xml version="1.0" encoding="iso-8859-1"?>
<!-- Generator: Adobe Illustrator 19.0.0, SVG Export Plug-In . SVG Version: 6.00 Build 0)  -->
<svg version="1.1" id="Layer_1" xmlns="http://www.w3.org/2000/svg" xmlns:xlink="http://www.w3.org/1999/xlink" x="0px" y="0px"
	 viewBox="0 0 473.66 473.66" style="enable-background:new 0 0 473.66 473.66;" xml:space="preserve">
<circle style="fill:#357180;" cx="236.83" cy="236.83" r="236.83"/>
<path style="fill:#EFF8F9;" d="M166.127,386.025c13.754,0.269,27.778,5.09,39.733,15.471c18.429-13.044,43.787-16.922,66.931-5.8
	c13.234-8.661,29.902-12.382,46.27-9.233c10.721-8.444,24.146-13.571,38.147-14.315c20.553-9.02,46.225-7.371,66.606,9.917
	c8.62-11.088,16.282-22.95,22.845-35.474c-9.73-6.806-20.063-10.676-30.305-12.053c-21.256-24.068-50.944-27.404-74.103-17.236
	c-14.001,0.737-27.426,5.871-38.147,14.308c-16.368-3.141-33.035,0.568-46.27,9.241c-23.144-11.125-48.506-7.251-66.931,5.793
	c-11.955-10.37-25.979-15.198-39.733-15.471c-36.229-35.87-86.003-22.882-106.211,9.611c-2.584,0.995-5.105,2.132-7.539,3.425
	c-5.288-4.446-10.897-7.868-16.667-10.415c10.078,22.408,23.503,42.983,39.688,61.037
	C80.973,362.941,130.208,350.458,166.127,386.025z"/>
<rect x="287.39" y="155.23" style="fill:#D72128;" width="41.36" height="59.725"/>
<path style="fill:#F1F1F1;" d="M311.925,175.221c17.15-0.759,30.59-0.482,30.062-12.329c-1.171-26.214-14.016-13.302-31.173-12.543
	c-17.157,0.767-32.115-10.905-30.945,15.302C280.453,178.823,294.772,175.988,311.925,175.221z"/>
<polygon style="fill:#D72128;" points="367.533,382.768 195.999,398.59 195.999,265.353 367.533,265.353 "/>
<path style="fill:#D4A074;" d="M187.835,136.199c-12.247,0-85.763,102.102-85.763,102.102h171.523
	C273.595,238.301,200.09,136.199,187.835,136.199z"/>
<polygon style="fill:#CC2128;" points="102.072,355.708 195.999,398.59 195.999,265.353 102.072,238.301 "/>
<polygon style="fill:#D4A074;" points="273.595,238.301 367.533,265.353 195.999,265.353 102.072,238.301 "/>
<path style="fill:#D72128;" d="M281.769,163.251c-12.255,0-85.771,102.102-85.771,102.102h171.531
	C367.533,265.353,294.017,163.251,281.769,163.251z"/>
<g>
	<polygon style="fill:#C12227;" points="336.898,252.593 224.588,249.867 224.595,248.846 336.913,251.569 	"/>
	<polygon style="fill:#C12227;" points="336.898,236.764 224.588,234.041 224.595,233.017 336.913,235.743 	"/>
	<polygon style="fill:#C12227;" points="336.898,220.938 224.588,218.212 224.595,217.191 336.913,219.917 	"/>
	<polygon style="fill:#C12227;" points="336.898,205.112 224.588,202.386 224.595,201.372 336.913,204.095 	"/>
	
		<rect x="193.959" y="280.511" transform="matrix(0.9999 0.0157 -0.0157 0.9999 4.4679 -4.373)" style="fill:#C12227;" width="173.594" height="3.74"/>
	
		<rect x="193.951" y="264.689" transform="matrix(0.9999 0.0157 -0.0157 0.9999 4.2195 -4.3748)" style="fill:#C12227;" width="173.594" height="3.74"/>
	
		<rect x="193.948" y="296.332" transform="matrix(0.9999 0.0157 -0.0157 0.9999 4.7163 -4.3708)" style="fill:#C12227;" width="173.594" height="3.74"/>
	
		<rect x="193.937" y="312.154" transform="matrix(0.9999 0.0157 -0.0157 0.9999 4.9647 -4.3687)" style="fill:#C12227;" width="173.594" height="3.74"/>
	
		<rect x="193.955" y="327.965" transform="matrix(0.9999 0.0157 -0.0157 0.9999 5.2129 -4.367)" style="fill:#C12227;" width="173.594" height="3.74"/>
	
		<rect x="193.953" y="343.777" transform="matrix(0.9999 0.0157 -0.0157 0.9999 5.4611 -4.3651)" style="fill:#C12227;" width="173.594" height="3.74"/>
	
		<rect x="193.952" y="359.638" transform="matrix(0.9999 0.0157 -0.0157 0.9999 5.7102 -4.3631)" style="fill:#C12227;" width="173.594" height="3.74"/>
	
		<rect x="193.93" y="375.47" transform="matrix(0.9999 0.0157 -0.0157 0.9999 5.9587 -4.3608)" style="fill:#C12227;" width="173.594" height="3.74"/>
	
		<rect x="193.959" y="391.282" transform="matrix(0.9999 0.0157 -0.0157 0.9999 6.2069 -4.3593)" style="fill:#C12227;" width="173.594" height="3.74"/>
</g>
<path style="fill:#BD2227;" d="M349.833,343.327c0,3.358-2.726,6.084-6.084,6.084h-36.842c-3.358,0-6.084-2.726-6.084-6.084v-36.842
	c0-3.358,2.726-6.084,6.084-6.084h36.842c3.358,0,6.084,2.726,6.084,6.084V343.327z"/>
<path style="fill:#E5D0C0;" d="M345.241,339.875c0,2.73-2.214,4.944-4.944,4.944h-29.932c-2.73,0-4.944-2.214-4.944-4.944v-29.932
	c0-2.726,2.214-4.936,4.944-4.936h29.932c2.73,0,4.944,2.214,4.944,4.936V339.875z"/>
<path style="fill:#BD2227;" d="M284.488,387.794l-59.212,4.843v-85.902c0-4.061,3.287-7.348,7.348-7.348h44.516
	c4.061,0,7.348,3.287,7.348,7.348V387.794L284.488,387.794z"/>
<path style="fill:#DB2127;" d="M279.892,382.85l-50.024,5.879V310.28c0-3.433,2.782-6.215,6.208-6.215h37.609
	c3.433,0,6.208,2.782,6.208,6.215v72.57H279.892z"/>
<circle style="fill:#BD2227;" cx="270.78" cy="342.69" r="3.826"/>
<g>
	<rect x="323.88" y="304.18" style="fill:#D72128;" width="3.9" height="41.823"/>
	<rect x="301.86" y="323.81" style="fill:#D72128;" width="46.28" height="3.9"/>
</g>
<path style="fill:#F1F1F1;" d="M289.937,166.654c0,0-2.191-1.986-5.333-2.636c0.153-0.06,0.228-0.086,0.228-0.086
	s-89.843-28.922-93.59-29.266c-3.74-0.344-5.441,1.702-5.441,1.702s-7.247-3.04-77.521,93.235
	c-4.353,2.752-7.393,7.135-8.582,13.631c0,0,55.664,33.058,105.205,23.473c12.995-0.722,39.505-11.548,74.829-74.186
	c0,0,4.428-8.844,16.675-3.059c12.255,5.785,40.5,94.952,77.26,77.933C373.658,267.391,374.339,242.885,289.937,166.654z"/>
<g style="opacity:0.4;">
	<path style="fill:#EBEBEC;" d="M339.501,87.188c-1.776-7.917-7.718-13.818-15.003-15.916c0.598-3.126,0.583-6.421-0.161-9.723
		c-2.883-12.883-15.665-20.99-28.552-18.1c-12.89,2.883-20.99,15.673-18.107,28.552c1.156,5.142,3.878,9.51,7.554,12.737
		c-2.943,3.968-4.222,9.128-3.052,14.338c0.819,3.639,2.711,6.757,5.265,9.102c-2.805,3.938-4.001,8.99-2.865,14.076
		c2.124,9.487,11.54,15.456,21.035,13.328c0.774-0.168,1.511-0.408,2.244-0.681c3.841,2.528,8.661,3.556,13.504,2.476
		c9.487-2.132,15.463-11.548,13.335-21.043c-0.613-2.711-1.832-5.127-3.47-7.165C337.9,104.297,341.427,95.77,339.501,87.188z"/>
</g>
<g style="opacity:0.4;">
	<path style="fill:#EBEBEC;" d="M347.601,115.186c4.046-7.419,1.316-16.727-6.107-20.773c-4.544-2.483-9.786-2.412-14.098-0.292
		c-0.101-0.153-0.213-0.299-0.314-0.445c1.133-1.081,2.132-2.345,2.921-3.792c4.054-7.419,1.316-16.727-6.114-20.781
		c-7.419-4.046-16.727-1.316-20.773,6.107c-2.865,5.243-2.33,11.409,0.834,16.017c-1.133,1.073-2.124,2.337-2.913,3.784
		c-2.797,5.112-2.36,11.118,0.598,15.68c-0.729,0.841-1.395,1.761-1.948,2.775c-4.054,7.419-1.316,16.727,6.107,20.781
		c7.427,4.054,16.735,1.316,20.781-6.107c1.066-1.948,1.649-4.031,1.817-6.107C335.511,124.935,343.831,122.093,347.601,115.186z"/>
</g>
<path style="fill:#A2D4DE;" d="M86.261,419.647c-1.578-1.357-3.164-2.726-4.712-4.069C83.12,416.936,84.66,418.331,86.261,419.647z"
	/>
<g>
	<path style="fill:#EFF8F9;" d="M81.549,415.579L81.549,415.579L81.549,415.579z"/>
	<path style="fill:#EFF8F9;" d="M357.212,372.147c-14.001,0.744-27.426,5.871-38.147,14.315c-16.368-3.149-33.035,0.568-46.27,9.233
		c-23.144-11.125-48.506-7.247-66.931,5.8c-11.955-10.377-25.979-15.198-39.733-15.471c-35.919-35.571-85.154-23.088-105.688,8.807
		c6.597,7.356,13.657,14.263,21.11,20.743c1.548,1.342,3.134,2.711,4.712,4.069c40.922,33.742,93.373,54.011,150.548,54.011
		s109.618-20.261,150.54-53.996c1.593-1.365,3.179-2.73,4.727-4.084c11.634-10.116,22.269-21.334,31.741-33.51
		C403.436,364.78,377.764,363.128,357.212,372.147z"/>
</g>
<g>
	<path style="fill:#F3F4F5;" d="M51.786,327.501c-5.535,0-10.015,4.484-10.015,10.022c0,5.523,4.476,10.015,10.015,10.015
		s10.022-4.491,10.022-10.015C61.808,331.984,57.32,327.501,51.786,327.501z"/>
	<path style="fill:#F3F4F5;" d="M3.646,278.164c0.883,5.011,1.907,9.977,3.104,14.88c1.316-1.702,2.132-3.807,2.132-6.129
		C8.881,283.123,6.75,279.866,3.646,278.164z"/>
	<circle style="fill:#F3F4F5;" cx="117.79" cy="271.53" r="10.02"/>
	<path style="fill:#F3F4F5;" d="M64.882,210.893c-5.55,0-10.03,4.491-10.03,10.022s4.476,10.022,10.03,10.022
		c5.531,0,10.007-4.491,10.007-10.022C74.889,215.384,70.409,210.893,64.882,210.893z"/>
	<path style="fill:#F3F4F5;" d="M176.381,202.913c-5.542,0-10.015,4.484-10.015,10.015c0,5.523,4.469,10.015,10.015,10.015
		c5.535,0,10.022-4.491,10.022-10.015C186.403,207.397,181.919,202.913,176.381,202.913z"/>
	<path style="fill:#F3F4F5;" d="M123.466,152.302c-5.535,0-10.022,4.491-10.022,10.015c0,5.531,4.476,10.03,10.022,10.022
		c5.535,0.007,10.015-4.491,10.015-10.022C133.48,156.797,129,152.302,123.466,152.302z"/>
	<path style="fill:#F3F4F5;" d="M20.235,163.947c0-3.979-2.345-7.393-5.71-9.005c-2.27,6.155-4.237,12.46-5.998,18.851
		c0.546,0.094,1.111,0.168,1.687,0.168C15.755,173.957,20.235,169.466,20.235,163.947z"/>
	<path style="fill:#F3F4F5;" d="M68.804,95.333c-5.535,0-10.007,4.491-10.007,10.022c0,5.523,4.469,10.022,10.007,10.015
		c5.542,0,10.03-4.491,10.03-10.015C78.83,99.824,74.346,95.333,68.804,95.333z"/>
	<path style="fill:#F3F4F5;" d="M275.319,421.342c-5.535-0.007-10.022,4.491-10.022,10.022c0,5.523,4.484,10.022,10.022,10.022
		s10.015-4.499,10.015-10.022C285.333,425.833,280.857,421.334,275.319,421.342z"/>
	<path style="fill:#F3F4F5;" d="M376.807,423.372c0,1.38,0.284,2.696,0.789,3.885c5.157-3.818,10.123-7.872,14.951-12.086
		c-1.623-1.141-3.586-1.817-5.718-1.817C381.283,413.35,376.807,417.841,376.807,423.372z"/>
	<path style="fill:#F3F4F5;" d="M333.91,362.75c-5.542,0-10.022,4.491-10.022,10.022c0,5.523,4.476,10.022,10.022,10.022
		c5.535,0,10.007-4.499,10.007-10.022C343.917,367.241,339.449,362.75,333.91,362.75z"/>
	<path style="fill:#F3F4F5;" d="M156.931,432.654c-5.531,0-10.007,4.484-10.007,10.022c0,5.523,4.476,10.015,10.007,10.015
		c5.542,0,10.03-4.491,10.03-10.015C166.961,437.137,162.477,432.654,156.931,432.654z"/>
	<path style="fill:#F3F4F5;" d="M104.024,382.054c-5.535,0-10.022,4.491-10.022,10.015c-0.007,5.531,4.476,10.03,10.022,10.03
		c5.535,0,10.007-4.499,10.015-10.03C114.038,386.545,109.558,382.054,104.024,382.054z"/>
	<path style="fill:#F3F4F5;" d="M222.946,366.65c-5.535,0-10.022,4.491-10.022,10.022c0,5.523,4.484,10.015,10.022,10.015
		s10.015-4.491,10.015-10.015C232.957,371.141,228.48,366.65,222.946,366.65z"/>
	<path style="fill:#F3F4F5;" d="M170.027,316.05c-5.535,0-10.022,4.491-10.022,10.022c0,5.523,4.476,10.03,10.022,10.022
		c5.535,0.007,10.015-4.499,10.015-10.022C180.042,320.541,175.566,316.05,170.027,316.05z"/>
	<path style="fill:#F3F4F5;" d="M281.53,308.059c-5.531,0-10.007,4.491-10.007,10.022c0,5.523,4.476,10.022,10.007,10.022
		c5.542,0,10.022-4.499,10.022-10.022C291.548,312.55,287.072,308.059,281.53,308.059z"/>
	<path style="fill:#F3F4F5;" d="M228.619,257.451c-5.535,0-10.022,4.499-10.022,10.03c0,5.523,4.476,10.022,10.022,10.022
		c5.535,0,10.015-4.499,10.015-10.022C238.633,261.95,234.157,257.451,228.619,257.451z"/>
	<path style="fill:#F3F4F5;" d="M231.76,147.526c-5.535,0-10.015,4.491-10.015,10.022c0,5.516,4.476,10.015,10.015,10.015
		s10.022-4.499,10.022-10.015C241.782,152.017,237.295,147.526,231.76,147.526z"/>
	<circle style="fill:#F3F4F5;" cx="178.85" cy="106.95" r="10.02"/>
	<path style="fill:#F3F4F5;" d="M290.359,88.935c-5.542,0-10.022,4.484-10.022,10.015c0,5.523,4.476,10.022,10.022,10.022
		c5.531,0,10.015-4.499,10.015-10.022C300.374,93.418,295.886,88.935,290.359,88.935z"/>
	<circle style="fill:#F3F4F5;" cx="237.43" cy="48.35" r="10.02"/>
	<path style="fill:#F3F4F5;" d="M356.355,42.964c3.777,0,7.019-2.117,8.728-5.194c-5.579-3.609-11.297-7.004-17.187-10.138
		c-0.972,1.548-1.556,3.358-1.556,5.318C346.344,38.465,350.828,42.964,356.355,42.964z"/>
	<path style="fill:#F3F4F5;" d="M124.18,39.954c-5.531,0-10.007,4.484-10.007,10.015c0,5.523,4.476,10.022,10.007,10.015
		c5.542,0,10.03-4.491,10.03-10.015C134.21,44.441,129.726,39.954,124.18,39.954z"/>
	<path style="fill:#F3F4F5;" d="M432.194,367.985c0,0.782,0.108,1.541,0.284,2.27c2.696-3.945,5.258-7.977,7.719-12.079
		C435.627,359.104,432.194,363.15,432.194,367.985z"/>
	<circle style="fill:#F3F4F5;" cx="389.29" cy="317.38" r="10.02"/>
	<path style="fill:#F3F4F5;" d="M447.889,248.771c-5.535,0-10.022,4.499-10.022,10.022c0,5.531,4.484,10.03,10.022,10.03
		s10.007-4.499,10.007-10.03C457.896,253.27,453.423,248.771,447.889,248.771z"/>
	<circle style="fill:#F3F4F5;" cx="336.94" cy="262.7" r="10.02"/>
	<path style="fill:#F3F4F5;" d="M284.006,202.072c-5.542,0-10.022,4.491-10.022,10.022s4.469,10.03,10.022,10.022
		c5.531,0.007,10.015-4.491,10.015-10.022C294.02,206.563,289.533,202.072,284.006,202.072z"/>
	<path style="fill:#F3F4F5;" d="M395.505,194.088c-5.535,0-10.015,4.484-10.015,10.015c0,5.523,4.476,10.022,10.015,10.022
		c5.538,0,10.022-4.499,10.022-10.022C405.527,198.571,401.043,194.088,395.505,194.088z"/>
	<circle style="fill:#F3F4F5;" cx="342.58" cy="153.51" r="10.03"/>
	<path style="fill:#F3F4F5;" d="M455.652,146.191c-1.279-3.089-2.644-6.137-4.046-9.158c-0.045,0.359-0.108,0.707-0.108,1.073
		C451.497,141.434,453.147,144.37,455.652,146.191z"/>
	<path style="fill:#F3F4F5;" d="M398.579,87.495c0,5.531,4.476,10.03,10.022,10.03c5.531,0,10.007-4.499,10.007-10.03
		c0-1.066-0.213-2.075-0.52-3.04c-1.687-2.008-3.403-4.001-5.157-5.953c-1.316-0.643-2.775-1.028-4.33-1.028
		C403.059,77.476,398.579,81.968,398.579,87.495z"/>
</g>
<g>
</g>
<g>
</g>
<g>
</g>
<g>
</g>
<g>
</g>
<g>
</g>
<g>
</g>
<g>
</g>
<g>
</g>
<g>
</g>
<g>
</g>
<g>
</g>
<g>
</g>
<g>
</g>
<g>
</g>
</svg>
