<?xml version="1.0" encoding="iso-8859-1"?>
<!-- Generator: Adobe Illustrator 19.0.0, SVG Export Plug-In . SVG Version: 6.00 Build 0)  -->
<svg version="1.1" id="Layer_1" xmlns="http://www.w3.org/2000/svg" xmlns:xlink="http://www.w3.org/1999/xlink" x="0px" y="0px"
	 viewBox="0 0 496.989 496.989" style="enable-background:new 0 0 496.989 496.989;" xml:space="preserve">
<g>
	<path style="fill:#FF7C24;" d="M249.294,80.989c0,0,6.4-46.4-60-74.4s-88.8,39.2-49.6,89.6c39.2,49.6,73.6,23.2,73.6,23.2
		s-41.6-7.2-40.8-72c0.8-38.4,68.8,8.8,68.8,40.8l11.2,2.4L249.294,80.989z"/>
	<path style="fill:#FF7C24;" d="M247.694,80.989c0,0-6.4-46.4,60-74.4s88.8,39.2,49.6,89.6c-39.2,49.6-73.6,23.2-73.6,23.2
		s41.6-7.2,40.8-72c-0.8-38.4-68.8,8.8-68.8,40.8l-11.2,2.4L247.694,80.989z"/>
</g>
<rect x="40.494" y="160.989" style="fill:#1EE2BD;" width="416" height="336"/>
<polyline style="fill:#08BF9C;" points="40.494,160.989 456.494,160.989 456.494,496.989 "/>
<rect x="40.494" y="184.989" style="fill:#1EE2BD;" width="416" height="16"/>
<polyline style="fill:#08BF9C;" points="40.494,184.989 456.494,184.989 456.494,200.989 "/>
<rect x="40.494" y="232.989" style="fill:#1EE2BD;" width="416" height="8"/>
<polyline style="fill:#08BF9C;" points="40.494,232.989 456.494,232.989 456.494,240.989 "/>
<rect x="40.494" y="280.989" style="fill:#1EE2BD;" width="416" height="8"/>
<polyline style="fill:#08BF9C;" points="40.494,280.989 456.494,280.989 456.494,288.989 "/>
<rect x="40.494" y="320.989" style="fill:#1EE2BD;" width="416" height="16"/>
<polyline style="fill:#08BF9C;" points="40.494,320.989 456.494,320.989 456.494,336.989 "/>
<rect x="40.494" y="368.989" style="fill:#1EE2BD;" width="416" height="16"/>
<polyline style="fill:#08BF9C;" points="40.494,368.989 456.494,368.989 456.494,384.989 "/>
<rect x="40.494" y="416.989" style="fill:#1EE2BD;" width="416" height="8"/>
<polyline style="fill:#08BF9C;" points="40.494,416.989 456.494,416.989 456.494,424.989 "/>
<rect x="40.494" y="464.989" style="fill:#1EE2BD;" width="416" height="8"/>
<polyline style="fill:#08BF9C;" points="40.494,464.989 456.494,464.989 456.494,472.989 "/>
<rect x="216.494" y="160.989" style="fill:#FFAA22;" width="64" height="336"/>
<polyline style="fill:#FF7C24;" points="216.494,160.989 280.494,160.989 280.494,496.989 "/>
<rect x="16.494" y="80.989" style="fill:#1E4784;" width="464" height="80"/>
<polyline style="fill:#00233F;" points="16.494,80.989 480.494,80.989 480.494,160.989 "/>
<g>
</g>
<g>
</g>
<g>
</g>
<g>
</g>
<g>
</g>
<g>
</g>
<g>
</g>
<g>
</g>
<g>
</g>
<g>
</g>
<g>
</g>
<g>
</g>
<g>
</g>
<g>
</g>
<g>
</g>
</svg>
