<?xml version="1.0" encoding="iso-8859-1"?>
<!-- Generator: Adobe Illustrator 19.0.0, SVG Export Plug-In . SVG Version: 6.00 Build 0)  -->
<svg version="1.1" id="Layer_1" xmlns="http://www.w3.org/2000/svg" xmlns:xlink="http://www.w3.org/1999/xlink" x="0px" y="0px"
	 viewBox="0 0 508 508" style="enable-background:new 0 0 508 508;" xml:space="preserve">
<path style="fill:#AD2A2A;" d="M508,501.396c0-112-112.8-201.6-252-201.6s-252,89.6-252,201.6H508z"/>
<path style="fill:#7F0A0A;" d="M0,501.396h508c0-112-115.2-201.6-254.4-201.6"/>
<circle style="fill:#F4B840;" cx="430.4" cy="106.196" r="46.4"/>
<path style="fill:#E59F23;" d="M476.8,106.196c0,25.6-20.8,46.4-46.4,46.4s-46.4-20.8-46.4-46.4"/>
<path style="fill:#CE3E3E;" d="M402.4,175.796c36-34.4,35.2-94.4-1.6-135.2c-36.8-41.6-96-48-134.4-16.8L402.4,175.796z"/>
<path style="fill:#AD2A2A;" d="M419.2,163.796c20-53.6-18.4-118.4-86.4-146.4s-141.6-8.8-164.8,44L419.2,163.796z"/>
<path style="fill:#F7CBAA;" d="M453.6,297.396c0,104.8-90.4,166.4-200.8,166.4s-201.6-61.6-201.6-166.4s90.4-220,200.8-220
	S453.6,192.596,453.6,297.396z"/>
<path style="fill:#E8B39C;" d="M252.8,76.596c111.2,0,200.8,115.2,200.8,220s-90.4,166.4-200.8,166.4"/>
<g>
	<path style="fill:#FFFFFF;" d="M180.8,225.396c-12.8,0.8-22.4,6.4-22.4,12.8l45.6-3.2C204,228.596,193.6,224.596,180.8,225.396z"/>
	<path style="fill:#FFFFFF;" d="M328.8,232.596c11.2,5.6,18.4,13.6,16,19.2l-41.6-19.2C305.6,226.996,316.8,226.996,328.8,232.596z"
		/>
</g>
<g>
	<path style="fill:#F9E8D9;" d="M168.8,312.596c-30.4,0-54.4,7.2-54.4,15.2c0,8.8,24.8,4.8,54.4,4.8c30.4,0,54.4,4,54.4-4.8
		C223.2,319.796,199.2,312.596,168.8,312.596z"/>
	<path style="fill:#F9E8D9;" d="M336,312.596c-30.4,0-54.4,7.2-54.4,15.2c0,8.8,24.8,4.8,54.4,4.8c30.4,0,54.4,4,54.4-4.8
		C391.2,319.796,366.4,312.596,336,312.596z"/>
</g>
<path style="fill:#E8B39C;" d="M203.2,301.396c0,12-9.6,22.4-22.4,22.4c-12,0-22.4-9.6-22.4-22.4c0-12,9.6-22.4,22.4-22.4
	C193.6,278.996,203.2,289.396,203.2,301.396z"/>
<circle style="fill:#F7CBAA;" cx="326.4" cy="301.396" r="22.4"/>
<path style="fill:#1E4784;" d="M203.2,294.996c0,12-9.6,22.4-22.4,22.4c-12,0-22.4-9.6-22.4-22.4c0-12,9.6-22.4,22.4-22.4
	C193.6,272.596,203.2,282.996,203.2,294.996z"/>
<path style="fill:#00233F;" d="M180.8,272.596c12,0,22.4,9.6,22.4,22.4c0,12-9.6,22.4-22.4,22.4"/>
<circle style="fill:#1E4784;" cx="326.4" cy="294.996" r="22.4"/>
<path style="fill:#00233F;" d="M326.4,272.596c12,0,22.4,9.6,22.4,22.4c0,12-9.6,22.4-22.4,22.4"/>
<path style="fill:#F9E8D9;" d="M211.2,350.996c0-7.2,18.4-36.8,40.8-36.8s40.8,30.4,40.8,36.8c0,7.2-18.4,4.8-40.8,4.8
	C229.6,355.796,211.2,358.196,211.2,350.996z"/>
<path style="fill:#E8B39C;" d="M211.2,358.996c0-7.2,18.4-28,40.8-28s40.8,20.8,40.8,28s-18.4,4.8-40.8,4.8
	C229.6,363.796,211.2,365.396,211.2,358.996z"/>
<path style="fill:#892624;" d="M273.6,418.196c0,16-9.6,20.8-20.8,20.8c-12,0-20.8-4.8-20.8-20.8s9.6-36,20.8-36
	S273.6,402.996,273.6,418.196z"/>
<path style="fill:#FFFFFF;" d="M82.4,211.796c0,0-14.4,65.6,8,82.4s13.6,33.6,13.6,33.6s14.4,0,12.8,27.2s24.8,21.6,24.8,21.6
	l-53.6,23.2c0,0-49.6-12.8-41.6-89.6c0,0-24-26.4-0.8-59.2c0,0-12.8-24.8,7.2-34.4c20-9.6,20.8-19.2,20.8-19.2L82.4,211.796z"/>
<path style="fill:#DFEAEA;" d="M73.6,197.396l8.8,14.4c0,0-14.4,65.6,8,82.4s13.6,33.6,13.6,33.6s14.4,0,12.8,27.2
	s24.8,21.6,24.8,21.6l-53.6,23.2"/>
<path style="fill:#FFFFFF;" d="M422.4,211.796c0,0,14.4,65.6-8,82.4s-13.6,33.6-13.6,33.6s-14.4,0-12.8,27.2s-24.8,21.6-24.8,21.6
	l52.8,23.2c0,0,49.6-12.8,41.6-89.6c0,0,24-26.4,0.8-59.2c0,0,12.8-24.8-7.2-34.4c-19.2-9.6-19.2-19.2-19.2-19.2L422.4,211.796z"/>
<path style="fill:#DFEAEA;" d="M432,197.396l-8.8,14.4c0,0,14.4,65.6-8,82.4s-13.6,33.6-13.6,33.6s-14.4,0-12.8,27.2
	s-24.8,21.6-24.8,21.6l52.8,23.2"/>
<path style="fill:#681111;" d="M231.2,418.196c0-16,9.6-36,20.8-36c12,0,20.8,20,20.8,36"/>
<g>
	
		<ellipse transform="matrix(0.3166 -0.9486 0.9486 0.3166 -168.8615 467.3467)" style="fill:#F9E8D9;" cx="239.914" cy="350.866" rx="2.4" ry="7.2"/>
	
		<ellipse transform="matrix(0.3168 0.9485 -0.9485 0.3168 513.1424 -11.6481)" style="fill:#F9E8D9;" cx="264.657" cy="350.375" rx="2.4" ry="7.2"/>
</g>
<path style="fill:#FFFFFF;" d="M209.6,345.396c0,0-55.2-13.6-79.2,16s-52,24-52,24s-10.4,28,18.4,50.4s23.2,1.6,28.8,20
	c3.2,11.2,21.6,20.8,34.4,22.4c0,0,6.4,21.6,36,17.6c0,0,8,8,33.6,8c23.2,0,26.4-4.8,26.4-4.8v-38.4c0,0-56-4.8-48-41.6s48-40,48-40
	v-11.2v-4.8c0,0-41.6,3.2-42.4-9.6l2.4-8H209.6z"/>
<path style="fill:#DFEAEA;" d="M97.6,433.396c28.8,22.4,23.2,2.4,28,20.8c3.2,11.2,20.8,21.6,33.6,22.4c0,0,5.6,21.6,36,17.6
	c0,0,8,8,33.6,8c23.2,0,26.4-4,26.4-4v-38.4c0,0-56-4.8-48-41.6s48-40,48-40v-11.2v-9.6"/>
<path style="fill:#C7D3D3;" d="M160,477.396c0,0,6.4,21.6,36,17.6c0,0,8,8,33.6,8c23.2,0,26.4-4.8,26.4-4.8v-38.4
	c0,0-56-4.8-48-41.6"/>
<path style="fill:#FFFFFF;" d="M295.2,345.396c0,0,55.2-13.6,79.2,16s52,24,52,24s10.4,28-18.4,50.4s-23.2,1.6-28.8,20
	c-3.2,11.2-21.6,20.8-34.4,22.4c0,0-6.4,21.6-36,17.6c0,0-4.8,8-30.4,8c-23.2,0-23.2-4.8-23.2-4.8v-38.4c0,0,52-4.8,44-41.6
	s-52-40-52-40v-11.2v-4.8c0,0,42.4,3.2,43.2-9.6l-1.6-8H295.2z"/>
<path style="fill:#DFEAEA;" d="M406.4,433.396c-28.8,22.4-22.4,2.4-28,20.8c-3.2,11.2-20.8,21.6-33.6,22.4c0,0-5.6,21.6-36,17.6
	c0,0-4.8,8-30.4,8c-23.2,0-23.2-4-23.2-4v-38.4c0,0,52-4.8,44-41.6s-52-40-52-40v-11.2v-9.6"/>
<path style="fill:#C7D3D3;" d="M345.6,477.396c0,0-6.4,21.6-36,17.6c0,0-4.8,8-30.4,8c-23.2,0-23.2-4.8-23.2-4.8v-38.4
	c0,0,52-4.8,44-41.6"/>
<path style="fill:#931B1B;" d="M433.6,189.396c-3.2-80-83.2-149.6-180.8-149.6c-98.4,0-178.4,69.6-180.8,149.6H433.6z"/>
<path style="fill:#7F0A0A;" d="M72,189.396h361.6c-3.2-80-82.4-149.6-180.8-149.6"/>
<polygon style="fill:#E8B39C;" points="112,214.996 273.6,238.996 279.2,194.996 152,194.196 "/>
<path style="fill:#FFD371;" d="M463.2,210.196c0,24-94.4-3.2-211.2-3.2s-211.2,27.2-211.2,3.2s94.4-42.4,211.2-42.4
	C368.8,166.996,463.2,186.196,463.2,210.196z"/>
<path style="fill:#F4B840;" d="M463.2,210.196c0,24-94.4-3.2-211.2-3.2s-211.2,27.2-211.2,3.2"/>
<path style="fill:#FFF0A6;" d="M357.6,178.196c0,4.8-45.6,0.8-101.6,0.8s-101.6,4-101.6-0.8s45.6-8.8,101.6-8.8
	S357.6,173.396,357.6,178.196z"/>
<g>
	<circle style="fill:#AD2A2A;" cx="62.4" cy="91.796" r="18.4"/>
	<circle style="fill:#AD2A2A;" cx="83.2" cy="62.996" r="3.2"/>
	<circle style="fill:#AD2A2A;" cx="123.2" cy="50.996" r="11.2"/>
	<circle style="fill:#AD2A2A;" cx="102.4" cy="82.996" r="2.4"/>
	<circle style="fill:#AD2A2A;" cx="88.8" cy="22.996" r="8.8"/>
	<circle style="fill:#AD2A2A;" cx="164" cy="48.596" r="4.8"/>
	<circle style="fill:#AD2A2A;" cx="66.4" cy="140.596" r="8"/>
	<circle style="fill:#AD2A2A;" cx="56" cy="126.196" r="2.4"/>
</g>
<ellipse transform="matrix(0.5417 -0.8406 0.8406 0.5417 139.3667 410.6707)" style="fill:#FFD371;" cx="446.284" cy="77.531" rx="5.6" ry="21.601"/>
<g>
</g>
<g>
</g>
<g>
</g>
<g>
</g>
<g>
</g>
<g>
</g>
<g>
</g>
<g>
</g>
<g>
</g>
<g>
</g>
<g>
</g>
<g>
</g>
<g>
</g>
<g>
</g>
<g>
</g>
</svg>
