<?xml version="1.0" encoding="iso-8859-1"?>
<!-- Generator: Adobe Illustrator 19.0.0, SVG Export Plug-In . SVG Version: 6.00 Build 0)  -->
<svg version="1.1" id="Layer_1" xmlns="http://www.w3.org/2000/svg" xmlns:xlink="http://www.w3.org/1999/xlink" x="0px" y="0px"
	 viewBox="0 0 500 500" style="enable-background:new 0 0 500 500;" xml:space="preserve">
<g>
	<path style="fill:#4C0808;" d="M228,234.4c0,30.4-44.8,32-87.2,32S64,241.6,64,211.2S44.8,160,87.2,156
		C192.8,147.2,228,204,228,234.4z"/>
	<path style="fill:#4C0808;" d="M112,208.8h127.2c0,0,22.4-1.6,20,29.6s-33.6,82.4,3.2,88c36,6.4-36,28.8-36,28.8L128,304.8
		l-25.6-89.6L112,208.8z"/>
</g>
<path style="fill:#5ECCDB;" d="M491.2,409.6c-4.8,0-8,4.8-8,8.8c0,16-12.8,30.4-29.6,30.4H424c0,0-0.8-1.6-0.8-2.4l-72.8-72.8
	c-3.2-3.2-8-3.2-11.2,0s-3.2,8.8,0,12l62.4,63.2H64.8l62.4-63.2c3.2-3.2,3.2-8.8,0-12c-3.2-3.2-8-3.2-11.2,0l-72.8,73.6l-0.8,2.4H8
	c-4.8,0-8,3.2-8,8s4,8,8,8h446.4c24.8,0,45.6-21.6,45.6-46.4C499.2,414.4,496,409.6,491.2,409.6z"/>
<path style="fill:#E03838;" d="M450.4,320.8c0-8-1.6-25.6-4.8-44.8c-4-28,16.8-45.6,2.4-50.4s4,27.2-35.2,24.8
	c-39.2-2.4-29.6,20-43.2,48c-8,17.6-19.2,22.4-25.6,22.4h-91.2c-9.6,0-44.8-3.2-44-44.8c0.8-57.6-49.6-120-138.4-121.6
	C-18.4,152,0,185.6,21.6,189.6s45.6,13.6,12.8,79.2c-15.2,30.4-21.6,44.8-21.6,55.2c0,0.8,0,3.2,0,4c0,35.2,28.8,65.6,64,65.6h309.6
	c35.2,0,64-30.4,64-66.4C451.2,325.6,451.2,320.8,450.4,320.8L450.4,320.8z"/>
<path style="fill:#2F919B;" d="M41.6,448.8c4,0.8,10.4,0,15.2,0H416c2.4,0,7.2,0,10.4,0l0,0l-75.2-75.2c-3.2-3.2-8-3.2-11.2,0
	s-3.2,8.8,0,12l61.6,63.2H64.8l62.4-63.2c3.2-3.2,3.2-8.8,0-12c-3.2-3.2-8-3.2-11.2,0L41.6,448.8C40.8,448.8,41.6,448.8,41.6,448.8z
	"/>
<path style="fill:#C92D2D;" d="M22.4,189.6c22.4,4,45.6,12.8,12.8,78.4c-15.2,30.4-21.6,44.8-21.6,55.2c0,0.8,0,3.2,0,4
	c0,35.2,28.8,65.6,64,65.6h309.6c35.2,0,64-30.4,64-66.4c0-1.6,0-5.6,0-5.6l0,0c0-8-1.6-25.6-4.8-44.8c-4-28,16.8-45.6,2.4-50.4
	s4,27.2-35.2,24.8c-39.2-2.4-29.6,20-43.2,48c-8,17.6-19.2,22.4-25.6,22.4h-92c-9.6,0-44.8-3.2-44-44.8
	c0.8-57.6-49.6-120-138.4-121.6"/>
<path style="fill:#AA1717;" d="M13.6,323.2c0,0.8,0,3.2,0,4c0,35.2,28.8,65.6,64,65.6h309.6c35.2,0,64-30.4,64-66.4
	c0-1.6,0-5.6,0-5.6l0,0c0-8-1.6-25.6-4.8-44.8c-4-28,16.8-45.6,2.4-50.4s4,27.2-35.2,24.8c-39.2-2.4-29.6,20-43.2,48
	c-8,17.6-19.2,22.4-25.6,22.4h-92c-9.6,0-44.8-3.2-44-44.8"/>
<path style="fill:#870B0B;" d="M387.2,392.8c36.8,0,64.8-32,64-67.2c0-1.6,0-4.8,0-4.8l0,0c0-8-1.6-25.6-4.8-44.8
	c-4-28,16.8-45.6,2.4-50.4s4,27.2-35.2,24.8c-39.2-2.4-29.6,20-43.2,48c-8,17.6-19.2,22.4-25.6,22.4h-95.2"/>
<path style="fill:#680B0B;" d="M451.2,325.6c0-1.6,0-4.8,0-4.8l0,0c0-8-1.6-25.6-4.8-44.8c-4-28,16.8-45.6,2.4-50.4
	s4,27.2-35.2,24.8c-39.2-2.4-29.6,20.8-43.2,48.8c-8,17.6-19.2,21.6-25.6,23.2"/>
<polygon style="fill:#7F1313;" points="118.4,222.4 130.4,248 159.2,252 138.4,272 143.2,300 118.4,286.4 92.8,300 97.6,272 
	76.8,252 105.6,248 "/>
<polygon style="fill:#680B0B;" points="118.4,222.4 130.4,248 159.2,252 138.4,272 143.2,300 118.4,286.4 92.8,300 109.6,278.4 
	76.8,252 113.6,254.4 "/>
<g>
	<circle style="fill:#F2BF4C;" cx="84.8" cy="354.4" r="6.4"/>
	<circle style="fill:#F2BF4C;" cx="118.4" cy="354.4" r="6.4"/>
	<circle style="fill:#F2BF4C;" cx="151.2" cy="354.4" r="6.4"/>
	<path style="fill:#F2BF4C;" d="M417.6,356.8c0,1.6-1.6,4-3.2,4H200c-1.6,0-3.2-2.4-3.2-4l0,0c0-1.6,1.6-4,3.2-4h213.6
		C416,352.8,417.6,355.2,417.6,356.8L417.6,356.8z"/>
</g>
<circle style="fill:#E5DE98;" cx="335.2" cy="125.6" r="91.2"/>
<path style="fill:#D8CA82;" d="M270.4,61.6c36-36,93.6-36,128.8,0c36,36,36,93.6,0,128.8"/>
<g>
	<circle style="fill:#E5DE98;" cx="328" cy="56.8" r="8"/>
	<circle style="fill:#E5DE98;" cx="375.2" cy="88" r="6.4"/>
	<circle style="fill:#E5DE98;" cx="341.6" cy="92.8" r="3.2"/>
	<circle style="fill:#E5DE98;" cx="380" cy="135.2" r="9.6"/>
	<circle style="fill:#E5DE98;" cx="408.8" cy="117.6" r="2.4"/>
	<circle style="fill:#E5DE98;" cx="358.4" cy="116" r="2.4"/>
	<circle style="fill:#E5DE98;" cx="363.2" cy="55.2" r="4"/>
	<circle style="fill:#E5DE98;" cx="310.4" cy="87.2" r="1.6"/>
	<circle style="fill:#E5DE98;" cx="334.4" cy="76.8" r="1.6"/>
	<circle style="fill:#E5DE98;" cx="303.2" cy="63.2" r="4.8"/>
</g>
<g>
	<circle style="fill:#D8CA82;" cx="274.4" cy="109.6" r="9.6"/>
	<circle style="fill:#D8CA82;" cx="287.2" cy="136.8" r="2.4"/>
	<circle style="fill:#D8CA82;" cx="306.4" cy="121.6" r="2.4"/>
	<circle style="fill:#D8CA82;" cx="331.2" cy="139.2" r="0.8"/>
	<circle style="fill:#D8CA82;" cx="343.2" cy="160" r="0.8"/>
	<circle style="fill:#D8CA82;" cx="311.2" cy="176.8" r="4.8"/>
	<circle style="fill:#D8CA82;" cx="316.8" cy="148.8" r="3.2"/>
	<circle style="fill:#D8CA82;" cx="364.8" cy="194.4" r="9.6"/>
	<circle style="fill:#D8CA82;" cx="342.4" cy="174.4" r="1.6"/>
	<circle style="fill:#D8CA82;" cx="339.2" cy="188.8" r="4"/>
	<circle style="fill:#D8CA82;" cx="269.6" cy="163.2" r="2.4"/>
	<circle style="fill:#D8CA82;" cx="292.8" cy="160" r="1.6"/>
</g>
<g>
	<path style="fill:#515151;" d="M409.6,157.6c0,15.2-12,27.2-27.2,27.2h-1.6c-15.2,0-27.2-12-27.2-27.2V156
		c0-15.2,12-27.2,27.2-27.2h1.6c15.2,0,27.2,12,27.2,27.2V157.6z"/>
	<path style="fill:#515151;" d="M426.4,168.8c2.4-4,4-8.8,4-13.6c0-16-12.8-28-28-28c-3.2,0-7.2,0.8-10.4,1.6c-1.6-7.2-8-12-15.2-12
		c-4.8,0-8.8,2.4-12,5.6c-5.6-3.2-12-4.8-19.2-4.8c-19.2,0-35.2,13.6-38.4,31.2c-0.8,0-0.8,0-1.6,0c-8.8,0-16,7.2-16,16
		c0,2.4,0.8,4,1.6,6.4c-8.8,4.8-14.4,11.2-14.4,21.6c0,14.4,12,24.8,26.4,24.8h114.4c14.4,0,26.4-10.4,26.4-24.8
		C444.8,180,436.8,172,426.4,168.8z"/>
</g>
<g>
	<path style="fill:#777776;" d="M426.4,176c9.6,3.2,16.8,11.2,18.4,21.6c0-0.8,0-2.4,0-3.2c0-11.2-3.2-18.4-16-24
		C428,172,427.2,173.6,426.4,176z"/>
	<path style="fill:#777776;" d="M304.8,155.2c0.8,0,0.8,0,1.6,0c4-17.6,19.2-31.2,38.4-31.2c7.2,0,13.6,1.6,19.2,4.8
		c3.2-3.2,7.2-5.6,12-5.6c7.2,0,13.6,4.8,15.2,12c3.2-1.6,6.4-1.6,10.4-1.6c14.4,0,26.4,11.2,28,25.6c0-1.6,0-2.4,0-4
		c0-16-12.8-28-28-28c-3.2,0-7.2,0.8-10.4,1.6c-1.6-7.2-8-12-15.2-12c-4.8,0-8.8,2.4-12,5.6c-5.6-3.2-12-4.8-19.2-4.8
		c-19.2,0-35.2,13.6-38.4,31.2c-0.8,0-0.8,0-1.6,0c-8.8,0-16,7.2-16,16c0,1.6,0,2.4,0.8,3.2C291.2,160.8,297.6,155.2,304.8,155.2z"
		/>
	<path style="fill:#777776;" d="M290.4,177.6c-0.8-1.6-1.6-4-1.6-6.4l0,0c-8,4.8-13.6,12.8-13.6,23.2c0,0.8,0,2.4,0,3.2
		C277.6,188,283.2,180.8,290.4,177.6z"/>
</g>
<g>
</g>
<g>
</g>
<g>
</g>
<g>
</g>
<g>
</g>
<g>
</g>
<g>
</g>
<g>
</g>
<g>
</g>
<g>
</g>
<g>
</g>
<g>
</g>
<g>
</g>
<g>
</g>
<g>
</g>
</svg>
