<?xml version="1.0" encoding="iso-8859-1"?>
<!-- Generator: Adobe Illustrator 19.0.0, SVG Export Plug-In . SVG Version: 6.00 Build 0)  -->
<svg version="1.1" id="Layer_1" xmlns="http://www.w3.org/2000/svg" xmlns:xlink="http://www.w3.org/1999/xlink" x="0px" y="0px"
	 viewBox="0 0 496 496" style="enable-background:new 0 0 496 496;" xml:space="preserve">
<path style="fill:#AFEBF9;" d="M496,396.528c-40-28.8-93.6-48.8-161.6-48.8c-132.8,0-279.2,76-334.4,148h496V396.528z"/>
<path style="fill:#77CCED;" d="M0,495.728h496v-99.2c-40-28.8-93.6-48.8-161.6-48.8"/>
<path style="fill:#B5486D;" d="M455.2,349.328c12.8,36.8-48.8,92-138.4,123.2s-172,27.2-184.8-9.6s48.8-92,138.4-123.2
	C359.2,308.528,442.4,312.528,455.2,349.328z"/>
<path style="fill:#AFEBF9;" d="M474.4,295.728c0,118.4-96,160.8-213.6,160.8c-118.4-0.8-214.4-43.2-214.4-160.8
	s96-213.6,213.6-213.6C378.4,81.328,474.4,177.328,474.4,295.728z"/>
<g>
	<path style="fill:#77CCED;" d="M466.4,275.728l5.6-12c-15.2-103.2-104-182.4-211.2-182.4c-46.4,0-88.8,14.4-124,39.2L466.4,275.728
		z"/>
	<path style="fill:#77CCED;" d="M264,81.328v0.8c104,11.2,193.6,102.4,193.6,213.6s-89.6,155.2-193.6,160l0,0
		c112,0,213.6-42.4,213.6-160.8S376,81.328,264,81.328z"/>
</g>
<g>
	<path style="fill:#00233F;" d="M134.4,146.128c-12,0.8-21.6,6.4-21.6,12l44-2.4C156,149.328,146.4,145.328,134.4,146.128z"/>
	<path style="fill:#00233F;" d="M278.4,146.128c12,0.8,21.6,6.4,21.6,12l-44-3.2C256.8,149.328,266.4,145.328,278.4,146.128z"/>
</g>
<g>
	<path style="fill:#E3FCFC;" d="M126.4,242.928c-28.8,0-52,6.4-52,15.2c0,8,23.2,4,52,4s52,4,52-4
		C178.4,249.328,155.2,242.928,126.4,242.928z"/>
	<path style="fill:#E3FCFC;" d="M286.4,242.928c-28.8,0-52,6.4-52,15.2c0,8,23.2,4,52,4s52,4,52-4
		C339.2,249.328,316,242.928,286.4,242.928z"/>
</g>
<g>
	<path style="fill:#77CCED;" d="M159.2,232.528c0,12-9.6,21.6-21.6,21.6s-21.6-9.6-21.6-21.6s9.6-21.6,21.6-21.6
		C149.6,210.928,159.2,220.528,159.2,232.528z"/>
	<circle style="fill:#77CCED;" cx="277.6" cy="232.528" r="21.6"/>
</g>
<path style="fill:#1E4784;" d="M159.2,226.128c0,12-9.6,21.6-21.6,21.6s-21.6-9.6-21.6-21.6s9.6-21.6,21.6-21.6
	C149.6,204.528,159.2,214.128,159.2,226.128z"/>
<path style="fill:#00233F;" d="M138.4,204.528c12,0,21.6,9.6,21.6,21.6s-9.6,21.6-21.6,21.6"/>
<path style="fill:#1E4784;" d="M298.4,226.128c0,12-9.6,21.6-21.6,21.6s-21.6-9.6-21.6-21.6s9.6-21.6,21.6-21.6
	C288.8,204.528,298.4,214.128,298.4,226.128z"/>
<path style="fill:#00233F;" d="M277.6,204.528c12,0,21.6,9.6,21.6,21.6s-9.6,21.6-21.6,21.6"/>
<polygon style="fill:#E88813;" points="223.2,292.528 179.2,337.328 26.4,292.528 179.2,248.528 "/>
<polygon style="fill:#C16705;" points="223.2,292.528 179.2,337.328 26.4,292.528 172,297.328 "/>
<path style="fill:#0E5E8E;" d="M207.2,387.728c0,13.6-6.4,24-14.4,24s-14.4-10.4-14.4-24s-1.6-24,7.2-24
	C192.8,363.728,207.2,374.128,207.2,387.728z"/>
<path style="fill:#00233F;" d="M178.4,387.728c0-13.6-1.6-24,7.2-24c8,0,22.4,10.4,22.4,24"/>
<ellipse transform="matrix(0.1621 -0.9868 0.9868 0.1621 176.5166 343.205)" style="fill:#DD588E;" cx="290.35" cy="67.663" rx="65.602" ry="115.203"/>
<path style="fill:#B5486D;" d="M301.6,2.128c62.4,10.4,108.8,48,103.2,83.2c-5.6,36-61.6,56.8-124,46.4"/>
<path style="fill:#1E4784;" d="M427.2,122.928c-4.8,24-84.8,9.6-159.2-6.4s-115.2-27.2-110.4-51.2s69.6-30.4,144-14.4
	S432,98.928,427.2,122.928z"/>
<path style="fill:#00233F;" d="M301.6,50.928c74.4,16,130.4,48,125.6,72"/>
<path style="fill:#DD588E;" d="M457.6,130.928c-2.4,24.8-92,12-202.4,0c-110.4-11.2-200-17.6-197.6-42.4
	c2.4-24,94.4-34.4,204.8-23.2C372.8,77.328,460,106.128,457.6,130.928z"/>
<path style="fill:#B5486D;" d="M457.6,130.928c-2.4,24.8-92,12-202.4,0c-110.4-11.2-200-17.6-197.6-42.4"/>
<g>
	<circle style="fill:#E3FCFC;" cx="350.4" cy="302.128" r="4.8"/>
	<circle style="fill:#E3FCFC;" cx="284" cy="302.128" r="7.2"/>
	<circle style="fill:#E3FCFC;" cx="308" cy="346.928" r="5.6"/>
	<circle style="fill:#E3FCFC;" cx="321.6" cy="291.728" r="5.6"/>
	<circle style="fill:#E3FCFC;" cx="251.2" cy="342.928" r="8"/>
	<circle style="fill:#E3FCFC;" cx="193.6" cy="220.528" r="3.2"/>
	<circle style="fill:#E3FCFC;" cx="197.6" cy="178.928" r="4.8"/>
	<circle style="fill:#E3FCFC;" cx="98.4" cy="215.728" r="1.6"/>
	<circle style="fill:#E3FCFC;" cx="126.4" cy="364.528" r="8"/>
	<circle style="fill:#E3FCFC;" cx="91.2" cy="342.128" r="7.2"/>
	<circle style="fill:#E3FCFC;" cx="121.6" cy="333.328" r="2.4"/>
	
		<ellipse transform="matrix(-0.8049 -0.5935 0.5935 -0.8049 39.5836 403.9824)" style="fill:#E3FCFC;" cx="86.21" cy="195.483" rx="7.2" ry="24.801"/>
</g>
<g>
</g>
<g>
</g>
<g>
</g>
<g>
</g>
<g>
</g>
<g>
</g>
<g>
</g>
<g>
</g>
<g>
</g>
<g>
</g>
<g>
</g>
<g>
</g>
<g>
</g>
<g>
</g>
<g>
</g>
</svg>
