<?xml version="1.0" encoding="iso-8859-1"?>
<!-- Generator: Adobe Illustrator 19.0.0, SVG Export Plug-In . SVG Version: 6.00 Build 0)  -->
<svg version="1.1" id="Layer_1" xmlns="http://www.w3.org/2000/svg" xmlns:xlink="http://www.w3.org/1999/xlink" x="0px" y="0px"
	 viewBox="0 0 473.961 473.961" style="enable-background:new 0 0 473.961 473.961;" xml:space="preserve">
<g>
	<circle style="fill:#A2D4DE;" cx="236.994" cy="236.992" r="236.966"/>
	<path style="fill:#A2D4DE;" d="M460.628,315.356c8.602-24.542,13.332-50.903,13.332-78.375C473.959,106.094,367.862,0,236.983,0
		S0.002,106.094,0.002,236.981c0,29.552,5.455,57.821,15.341,83.913c61.496-36.183,140.866-53.38,227.54-53.38
		C325.015,267.513,400.602,282.948,460.628,315.356z"/>
</g>
<path style="fill:#D3E9D0;" d="M236.983,473.961c103.4,0,191.283-66.255,223.649-158.606
	c-60.025-32.407-135.613-47.842-217.744-47.842c-86.67,0-166.044,17.197-227.54,53.38
	C49.228,410.344,135.656,473.961,236.983,473.961z"/>
<g>
	<circle style="fill:#E8F5F4;" cx="243.504" cy="232.577" r="78.577"/>
	<circle style="fill:#E8F5F4;" cx="243.504" cy="152.769" r="62.364"/>
	<circle style="fill:#E8F5F4;" cx="243.504" cy="322.416" r="108.511"/>
</g>
<g>
	<path style="fill:#F6A2A3;" d="M300.312,178.4c-9.781,21.646-31.513,36.729-56.807,36.729c-25.298,0-47.026-15.083-56.811-36.729
		c0,0-5.25,1.878-8.752,5.628c-3.274,3.51-1.429,7.577-1.429,7.577c-2.174,6.563,30.798,38.907,65.728,39.098
		c35.831,0.198,72.194-32.58,68.579-38.559c0,0-0.516-4.846-3.555-7.884C304.465,181.453,300.312,178.4,300.312,178.4z"/>
	<path style="fill:#F6A2A3;" d="M306.804,284.587c0,0-3.274,3.274-8.887,3.274s-8.887-3.274-8.887-3.274s3.742-32.033,3.742-52.613
		c0-20.587-4.131-36.175-4.131-36.175s3.82-3.895,6.159-7.562c2.728-4.599,5.515-9.837,5.515-9.837s5.01,9.216,6.488,15.45
		c1.482,6.241,3.742,19.412,3.742,39.992S306.804,284.587,306.804,284.587z"/>
</g>
<circle style="fill:#717171;" cx="273.139" cy="144.971" r="10.29"/>
<g>
	<circle style="fill:#664219;" cx="243.504" cy="253.744" r="12.277"/>
	<circle style="fill:#664219;" cx="243.504" cy="295.962" r="12.277"/>
	<circle style="fill:#664219;" cx="243.504" cy="334.914" r="12.277"/>
</g>
<g>
	<circle style="fill:#E59C31;" cx="243.504" cy="172.708" r="10.29"/>
	<polygon style="fill:#E59C31;" points="234.775,168.671 226.356,189.251 227.606,192.057 247.56,182.082 252.863,168.357 	"/>
</g>
<circle style="fill:#EDB04E;" cx="227.606" cy="190.186" r="1.871"/>
<g>
	<path style="fill:#717171;" d="M299.635,95.392c0,6.892-5.583,12.475-12.471,12.475h-89.802c-6.892,0-12.475-5.583-12.475-12.475
		l0,0c0-6.885,5.583-12.468,12.475-12.468h89.802C294.048,82.925,299.635,88.508,299.635,95.392L299.635,95.392z"/>
	<path style="fill:#717171;" d="M244.754,95.392c-16.789,0-30.402-3.581-30.402-7.996V29.803c0-4.415,13.613-7.996,30.402-7.996l0,0
		c16.786,0,30.402,3.581,30.402,7.996v57.593C275.156,91.812,261.54,95.392,244.754,95.392L244.754,95.392z"/>
	<circle style="fill:#717171;" cx="217.013" cy="144.971" r="10.29"/>
</g>
<path style="fill:#FFFFFF;" d="M120.722,287.569l-2.462-4.269h-10.892l4.756-8.236l-2.473-4.277h-4.932L97.505,283.3H81.366
	l8.071-13.987h14.428l2.462-4.269l-2.462-4.262h-9.508l5.444-9.455l-2.455-4.269h-4.932l-5.448,9.433l-4.76-8.221h-4.92
	l-2.473,4.269l7.222,12.505l-8.071,13.979l-8.075-13.979l7.218-12.505l-2.458-4.269h-4.932l-4.756,8.221l-5.455-9.433h-4.92
	l-2.47,4.269l5.452,9.455h-9.508l-2.466,4.262l2.466,4.269h14.436l8.075,13.987H50.415l-7.21-12.512h-4.935l-2.473,4.277
	l4.752,8.236H29.655l-2.47,4.269l2.47,4.269h10.892l-4.752,8.228l2.473,4.277h4.924l7.21-12.505H66.56l-8.075,13.979H44.05
	l-2.466,4.269l2.466,4.277h9.508l-5.452,9.433l2.47,4.277h4.92l5.455-9.44l4.756,8.236h4.932l2.458-4.277l-7.218-12.505
	l8.075-13.972l8.071,13.972l-7.214,12.505l2.466,4.277h4.92l4.76-8.228l5.448,9.433h4.932l2.455-4.277l-5.433-9.437h9.504
	l2.462-4.277l-2.462-4.269H89.434l-8.071-13.979h16.138l7.214,12.505h4.932l2.473-4.277l-4.756-8.228h10.892L120.722,287.569z"/>
<g>
</g>
<g>
</g>
<g>
</g>
<g>
</g>
<g>
</g>
<g>
</g>
<g>
</g>
<g>
</g>
<g>
</g>
<g>
</g>
<g>
</g>
<g>
</g>
<g>
</g>
<g>
</g>
<g>
</g>
</svg>
