<?xml version="1.0" encoding="iso-8859-1"?>
<!-- Generator: Adobe Illustrator 19.0.0, SVG Export Plug-In . SVG Version: 6.00 Build 0)  -->
<svg version="1.1" id="Layer_1" xmlns="http://www.w3.org/2000/svg" xmlns:xlink="http://www.w3.org/1999/xlink" x="0px" y="0px"
	 viewBox="0 0 473.66 473.66" style="enable-background:new 0 0 473.66 473.66;" xml:space="preserve">
<circle style="fill:#D7DABA;" cx="236.83" cy="236.83" r="236.83"/>
<path style="fill:#466A32;" d="M390.584,230.534c2.921-45.716-19.45-61.28-19.45-61.28c-4.865-31.121-39.879-44.744-39.879-44.744
	c-18.485-35.014-41.831-22.37-41.831-22.37c-28.204-30.152-58.356-12.644-58.356-12.644c-34.045-13.623-71.007,19.45-71.007,19.45
	c-47.661,5.837-44.744,36.966-44.744,36.966c-22.37,10.699-23.342,38.907-23.342,38.907c-22.37,20.429-12.389,60.375-12.389,60.375
	c-11.417,14.652,12.389,58.3,12.389,58.3c2.917,39.879,25.291,42.799,25.291,42.799c9.727,28.208,35.99,31.121,35.99,31.121
	c11.671,20.429,49.609,20.429,49.609,20.429c26.259,14.592,55.443,0.972,55.443,0.972c35.986,3.893,54.463-19.45,54.463-19.45
	c24.322,0.972,36.966-28.215,36.966-28.215c22.37-13.616,20.429-29.18,20.429-29.18c21.402-17.509,17.509-42.792,17.509-42.792
	C407.12,253.88,390.584,230.534,390.584,230.534z M338.2,272.847c0,0-1.862,33.525-24.681,43.304c0,0-6.054,22.811-33.985,21.876
	c0,0-5.127,17.228-30.736,9.312c0,0-23.275,10.246-40.5-2.33c0,0-18.167,3.265-38.656-20.014c0,0-19.087-3.265-21.884-24.681
	c0,0-13.967-10.239-12.101-28.873c0,0-8.377-6.522-4.192-23.746c0,0-7.913-20.022,4.192-31.196c0,0-2.326-20.025,16.757-35.388
	c0,0,7.453-20.493,27.011-26.076c0,0,18.159-18.156,33.522-13.971c0,0,13.971-11.174,32.13-2.33c0,0,12.105-9.312,32.594,8.384
	c0,0,32.284,9.495,33.832,21.97c0,0,23.9,14.345,22.972,34.83c0,0,13.036,13.971,7.442,29.801
	C341.92,233.727,358.221,247.231,338.2,272.847z"/>
<path style="fill:#497336;" d="M390.584,230.534c2.921-45.716-19.45-61.28-19.45-61.28c-4.865-31.121-39.879-44.744-39.879-44.744
	c-18.485-35.014-41.831-22.37-41.831-22.37c-28.204-30.152-58.356-12.644-58.356-12.644c-34.045-13.623-71.007,19.45-71.007,19.45
	c-47.661,5.837-44.744,36.966-44.744,36.966c-22.37,10.699-23.342,38.907-23.342,38.907c-22.37,20.429-12.389,60.375-12.389,60.375
	c-11.417,14.652,12.389,58.3,12.389,58.3c2.917,39.879,25.291,42.799,25.291,42.799c9.727,28.208,35.99,31.121,35.99,31.121
	c11.671,20.429,49.609,20.429,49.609,20.429c26.259,14.592,55.443,0.972,55.443,0.972c35.986,3.893,54.463-19.45,54.463-19.45
	c24.322,0.972,36.966-28.215,36.966-28.215c22.37-13.616,20.429-29.18,20.429-29.18c21.402-17.509,17.509-42.792,17.509-42.792
	C407.12,253.88,390.584,230.534,390.584,230.534z M363.875,273.707c0,0,3.28,21.304-14.745,36.053c0,0,1.638,13.103-17.21,24.576
	c0,0-10.65,24.576-31.128,23.754c0,0-15.564,19.67-45.877,16.391c0,0-24.58,11.466-46.696-0.819c0,0-31.955,0-41.786-17.21
	c0,0-22.12-2.453-30.309-26.214c0,0-18.844-2.461-21.301-36.053c0,0-20.048-36.76-10.433-49.104c0,0-8.407-33.641,10.433-50.851
	c0,0,0.823-23.761,19.663-32.766c0,0-2.457-26.222,37.684-31.136c0,0,31.132-27.856,59.811-16.383c0,0,25.395-14.745,49.157,10.65
	c0,0,19.659-10.65,35.223,18.844c0,0,29.494,11.466,33.589,37.687c0,0,18.844,13.103,16.383,51.617
	C366.329,232.747,380.255,252.403,363.875,273.707z"/>
<path style="fill:#598E3F;" d="M287.45,139.325c4.394-2.528,9.667-3.111,13.085-2.704c4.091,0.497,10.108,6.155,10.108,6.155
	c7.288-4.566,10.523-5.464,15.74-5.37c3.478,0.06,9.757,3.732,9.757,3.732c10.086-4.843,18.305-7.677,18.305-7.677l-0.052-0.06
	c0,0-6.507-6.806-13.343-14.431c0,0-8.399,1.204-11.641-0.037c-4.88-1.855-8.522-4.753-12.206-10.482c0,0-7.924,3.044-11.899,1.971
	c-3.332-0.89-8.145-3.986-10.568-7.225c0,0-10.194,6.324-13.047,15.287l0.075,0.015C281.104,127.871,287.45,139.325,287.45,139.325z
	"/>
<path style="fill:#7CC142;" d="M284.069,116.697c9.843,4.674,70.326,16.712,70.326,16.712L284.069,116.697z"/>
<path style="fill:#598E3F;" d="M293.171,145.757c2.105-4.607,6.054-8.152,9.08-9.809c3.609-1.971,11.802-0.868,11.802-0.868
	c3.28-7.954,5.381-10.568,9.685-13.526c2.857-1.963,10.108-2.636,10.108-2.636c5.381-9.809,10.422-16.88,10.422-16.88l-0.079-0.03
	c0,0-9.255-1.754-19.244-3.975c0,0-6.129,5.856-9.487,6.742c-5.056,1.324-9.7,1.081-16.032-1.432c0,0-4.667,7.086-8.53,8.522
	c-3.224,1.212-8.941,1.488-12.793,0.262c0,0-4.618,11.08-1.728,20.025l0.071-0.03C281.351,140.129,293.171,145.757,293.171,145.757z
	"/>
<path style="fill:#7CC142;" d="M277.259,129.318c10.733-1.922,66.927-27.31,66.927-27.31L277.259,129.318z"/>
<path style="fill:#5E9842;" d="M284.223,145.41c4.94-1.118,10.149-0.123,13.305,1.271c3.755,1.679,7.846,8.859,7.846,8.859
	c8.313-2.221,11.671-2.124,16.622-0.505c3.302,1.081,8.231,6.436,8.231,6.436c11.073-1.649,19.749-1.948,19.749-1.948l-0.037-0.067
	c0,0-4.207-8.429-8.5-17.718c0,0-8.384-1.324-11.118-3.463c-4.114-3.205-6.75-7.049-8.575-13.608c0,0-8.481,0.583-11.963-1.615
	c-2.913-1.832-6.604-6.2-7.969-10.022c0,0-11.608,3.051-16.97,10.774l0.071,0.037C281.526,132.598,284.223,145.41,284.223,145.41z"
	/>
<path style="fill:#7CC142;" d="M287.648,122.796c8.029,7.363,62.29,36.659,62.29,36.659L287.648,122.796z"/>
<path style="fill:#65A844;" d="M277.185,134.804c4.652,2.001,8.279,5.879,9.996,8.867c2.057,3.564,1.126,11.78,1.126,11.78
	c8.018,3.104,10.68,5.157,13.728,9.394c2.031,2.82,2.85,10.052,2.85,10.052c9.917,5.179,17.097,10.063,17.097,10.063l0.015-0.075
	c0,0,1.563-9.282,3.579-19.326c0,0-5.991-6.009-6.944-9.349c-1.432-5.019-1.294-9.671,1.096-16.054c0,0-7.18-4.529-8.706-8.347
	c-1.279-3.205-1.672-8.904-0.535-12.797c0,0-11.174-4.368-20.063-1.294l0.037,0.067
	C282.562,122.852,277.185,134.804,277.185,134.804z"/>
<path style="fill:#7CC142;" d="M293.284,118.552c2.154,10.676,28.712,66.333,28.712,66.333L293.284,118.552z"/>
<path style="fill:#598E3F;" d="M182.252,143.727c-4.39-2.528-9.663-3.111-13.089-2.704c-4.084,0.497-10.101,6.155-10.101,6.155
	c-7.296-4.566-10.527-5.464-15.747-5.37c-3.474,0.06-9.757,3.732-9.757,3.732c-10.086-4.843-18.298-7.677-18.298-7.677l0.049-0.06
	c0,0,6.503-6.806,13.339-14.431c0,0,8.399,1.204,11.645-0.037c4.876-1.855,8.522-4.753,12.206-10.482c0,0,7.92,3.044,11.896,1.971
	c3.336-0.89,8.145-3.986,10.568-7.225c0,0,10.198,6.324,13.051,15.287l-0.075,0.015
	C188.598,132.269,182.252,143.727,182.252,143.727z"/>
<path style="fill:#7CC142;" d="M185.636,121.102c-9.843,4.674-70.326,16.712-70.326,16.712L185.636,121.102z"/>
<path style="fill:#598E3F;" d="M166.594,154.759c-1.369-4.88-4.727-8.982-7.46-11.088c-3.261-2.513-11.522-2.681-11.522-2.681
	c-2.019-8.362-3.698-11.271-7.49-14.85c-2.524-2.39-9.585-4.162-9.585-4.162c-3.814-10.519-7.7-18.29-7.7-18.29l0.079-0.007
	c0,0,9.413-0.314,19.629-0.972c0,0,5.161,6.735,8.343,8.122c4.779,2.09,9.416,2.573,16.058,1.051c0,0,3.523,7.726,7.109,9.738
	c3.007,1.694,8.612,2.85,12.606,2.236c0,0,2.857,11.656-1.372,20.055l-0.067-0.045C179.141,151.019,166.594,154.759,166.594,154.759
	z"/>
<path style="fill:#7CC142;" d="M184.847,140.96c-10.306-3.549-61.931-37.28-61.931-37.28L184.847,140.96z"/>
<path style="fill:#5E9842;" d="M180.132,153.218c-4.94-1.111-10.153-0.123-13.305,1.271c-3.758,1.679-7.846,8.859-7.846,8.859
	c-8.317-2.214-11.667-2.117-16.626-0.505c-3.298,1.081-8.231,6.436-8.231,6.436c-11.065-1.649-19.745-1.945-19.745-1.945
	l0.037-0.075c0,0,4.207-8.429,8.496-17.718c0,0,8.384-1.324,11.121-3.463c4.114-3.205,6.75-7.049,8.579-13.608
	c0,0,8.478,0.583,11.959-1.615c2.913-1.832,6.604-6.2,7.969-10.022c0,0,11.604,3.051,16.97,10.781l-0.067,0.03
	C182.832,140.406,180.132,153.218,180.132,153.218z"/>
<path style="fill:#7CC142;" d="M176.706,130.605c-8.033,7.363-62.29,36.659-62.29,36.659L176.706,130.605z"/>
<path style="fill:#65A844;" d="M191.062,134.834c-4.652,2.001-8.279,5.871-9.996,8.867c-2.061,3.556-1.126,11.772-1.126,11.772
	c-8.018,3.111-10.68,5.164-13.728,9.401c-2.031,2.812-2.853,10.044-2.853,10.044c-9.914,5.187-17.101,10.071-17.101,10.071
	l-0.011-0.075c0,0-1.563-9.289-3.579-19.334c0,0,5.995-6.002,6.944-9.349c1.429-5.018,1.298-9.663-1.092-16.047
	c0,0,7.18-4.529,8.706-8.354c1.279-3.197,1.672-8.904,0.535-12.789c0,0,11.174-4.375,20.055-1.301l-0.03,0.075
	C185.681,122.882,191.062,134.834,191.062,134.834z"/>
<path style="fill:#7CC142;" d="M174.963,118.582c-2.154,10.673-28.716,66.333-28.716,66.333L174.963,118.582z"/>
<path style="fill:#ED2329;" d="M251.333,89.716c0,0,44.819-32.759,64.926-31.035c0,0,20.684-5.74,4.024,33.903
	c0,0-2.872,5.74-2.3,14.367c0,0,11.495,56.883-22.408,47.687c0,0-12.064-0.576-25.852-12.643
	c-13.792-12.068-19.539-20.684-19.539-20.684L251.333,89.716z"/>
<path style="fill:#D61F27;" d="M259.381,121.312c0,0,44.243,17.815,40.219,27.579c0,0-32.751-10.344-37.923-20.684
	C261.677,128.208,258.233,125.336,259.381,121.312z"/>
<path style="fill:#ED2329;" d="M234.673,128.208c0,0,0,29.879,13.216,63.206c0,0,20.111,51.135,29.879,71.25l1.724-37.93
	c0,0,9.192,12.075,34.475,14.367c0,0-29.307-27.579-40.223-62.623c0,0-8.044-38.499-22.411-50.563L234.673,128.208z"/>
<path style="fill:#D61F27;" d="M247.672,132.344c0,0,3.627,8.728,9.154,17.991c0,0-3.874-0.322-6.57-4.951
	c0,0-0.86,12.498,19.177,56.094c0,0-14.76-13.074-26.398-68.161L247.672,132.344z"/>
<path style="fill:#ED2329;" d="M219.614,89.716c0,0-44.819-32.759-64.93-31.035c0,0-20.684-5.74-4.02,33.903
	c0,0,2.876,5.74,2.3,14.367c0,0-11.495,56.883,22.404,47.687c0,0,12.071-0.576,25.855-12.643
	c13.792-12.068,19.539-20.684,19.539-20.684L219.614,89.716z"/>
<path style="fill:#D61F27;" d="M211.566,121.312c0,0-44.239,17.815-40.219,27.579c0,0,32.755-10.344,37.927-20.684
	C209.274,128.208,212.722,125.336,211.566,121.312z"/>
<path style="fill:#ED2329;" d="M236.278,128.208c0,0,0,29.879-13.212,63.206c0,0-20.111,51.135-29.879,71.25l-1.728-37.93
	c0,0-9.188,12.075-34.471,14.367c0,0,29.303-27.579,40.223-62.623c0,0,8.04-38.499,22.408-50.563L236.278,128.208z"/>
<g>
	<path style="fill:#D61F27;" d="M223.279,132.344c0,0-3.631,8.728-9.154,17.991c0,0,3.874-0.322,6.567-4.951
		c0,0,0.864,12.498-19.177,56.094c0,0,14.76-13.074,26.398-68.161L223.279,132.344z"/>
	<path style="fill:#D61F27;" d="M253.633,119.266c0,5.849-4.749,10.598-10.598,10.598h-14.424c-5.856,0-10.602-4.749-10.602-10.598
		V95.718c0-5.856,4.745-10.605,10.602-10.605h14.424c5.849,0,10.598,4.749,10.598,10.605V119.266z"/>
</g>
<path style="fill:#ED2329;" d="M251.808,117.378c0,5.632-4.263,10.19-9.513,10.19h-12.943c-5.25,0-9.513-4.559-9.513-10.19V94.735
	c0-5.632,4.263-10.19,9.513-10.19h12.943c5.25,0,9.513,4.559,9.513,10.19V117.378z"/>
<path style="fill:#E7CE1B;" d="M325.104,287.476c-3.381,1.915-4.574,6.208-2.666,9.588c1.922,3.373,6.208,4.559,9.588,2.651
	c3.373-1.915,4.573-6.2,2.651-9.585C332.773,286.754,328.48,285.569,325.104,287.476z M331.102,297.876
	c-2.061,1.163-4.667,0.438-5.83-1.615c-1.163-2.061-0.438-4.667,1.615-5.837c2.061-1.163,4.667-0.438,5.83,1.623
	C333.884,294.099,333.162,296.716,331.102,297.876z"/>
<path style="fill:#D9BB27;" d="M330.511,356.445c0,0,14.237,1.036,29.363-7.524c15.127-8.56,22.063-21.577,22.063-21.577
	s-16.581,2.98-28.705,9.839C341.109,344.052,330.511,356.445,330.511,356.445z"/>
<circle style="fill:#DDD555;" cx="355.26" cy="341.31" r="6.499"/>
<path style="fill:#E7CE1B;" d="M329.898,295.845c-11.679,6.612-6.806,26.431-2.872,40.888c0.161,0.561-1.791,4.076-1.47,8.268
	c0.337,4.185,4.843,11.51,4.951,11.447c0.475-0.262,13.907-12.744,23.38-18.107c9.457-5.355,28.185-10.751,28.185-10.751
	s-4.749-8.444-7.793-10.276c-3.051-1.832-7.086-2.262-7.517-2.719C356.284,303.713,341.625,289.207,329.898,295.845z"/>
<path style="fill:#F3D633;" d="M324.995,310.833c-2.315-4.099,0.314-9.985,5.879-13.133c5.564-3.156,11.955-2.382,14.278,1.724
	C347.485,303.53,327.317,314.939,324.995,310.833z"/>
<circle style="fill:#D72128;" cx="127.82" cy="334.8" r="25.725"/>
<path style="fill:#ED2E3A;" d="M118.799,329.453c5.37-9.08,15.972-13.141,25.698-10.628c-1.462-1.548-3.149-2.928-5.067-4.061
	c-10.998-6.507-25.186-2.857-31.697,8.145c-6.503,10.998-2.865,25.19,8.137,31.693c1.922,1.141,3.942,1.956,5.998,2.491
	C114.988,349.777,113.433,338.529,118.799,329.453z"/>
<g style="opacity:0.5;">
	<path style="fill:#EE4452;" d="M148.536,333.058c-2.779,4.697-11.488,4.689-19.45-0.015c-7.958-4.712-12.157-12.344-9.386-17.034
		c2.779-4.712,11.484-4.697,19.45,0.015C147.107,320.728,151.311,328.357,148.536,333.058z"/>
</g>
<path style="fill:#F9C6CD;" d="M146.221,335.563c-1.507,2.55-4.794,3.388-7.341,1.885c-2.55-1.503-3.388-4.79-1.885-7.333
	c1.503-2.558,4.787-3.403,7.341-1.892C146.883,329.737,147.728,333.017,146.221,335.563z"/>
<path style="fill:#B39648;" d="M146.531,316.45l1.219-4.338l-9.585-5.572l-3.16,3.081c-0.243,0.146-0.441,0.329-0.576,0.561
	c-0.89,1.503,1.051,4.293,4.334,6.238c3.28,1.945,6.668,2.3,7.554,0.789C146.457,316.985,146.524,316.727,146.531,316.45z"/>
<g>
	
		<ellipse transform="matrix(-0.8607 -0.5091 0.5091 -0.8607 108.3246 648.4359)" style="fill:#BAA060;" cx="142.871" cy="309.399" rx="5.546" ry="1.447"/>
	<path style="fill:#BAA060;" d="M146.965,314.909l0.404-1.447c0,0-1.975,0.841-5.957-1.511c-3.994-2.367-4.45-4.237-4.45-4.237
		l-0.984,0.957c0,0,1.791,3.003,4.607,4.667S146.965,314.909,146.965,314.909z"/>
</g>
<path style="fill:#B39648;" d="M148.573,300.411c-2.577-1.526-5.912-0.673-7.434,1.915c-1.522,2.577-0.673,5.909,1.907,7.434
	c2.58,1.526,5.912,0.666,7.434-1.915C152.01,305.269,151.157,301.937,148.573,300.411z M143.125,309.629
	c-2.072-1.227-2.749-3.9-1.526-5.968c1.219-2.068,3.885-2.752,5.957-1.526c2.068,1.219,2.756,3.885,1.529,5.961
	C147.867,310.153,145.193,310.848,143.125,309.629z"/>
<polygon style="fill:#E7CE1B;" points="371.31,279.025 356.359,267.69 338.536,273.583 344.703,255.858 333.592,240.739 
	352.35,241.117 363.303,225.881 368.737,243.843 386.612,249.546 371.209,260.263 "/>
<polygon style="fill:#DCBE25;" points="356.359,267.69 338.536,273.583 344.703,255.858 333.592,240.739 352.35,241.117 
	363.303,225.881 "/>
<polygon style="fill:#E7CE1B;" points="223.537,374.238 209.487,376.175 203.115,388.845 196.937,376.085 182.921,373.931 
	193.149,364.115 190.864,350.114 203.362,356.811 215.968,350.305 213.462,364.268 "/>
<polygon style="fill:#DCBE25;" points="209.487,376.175 203.115,388.845 196.937,376.085 182.921,373.931 193.149,364.115 
	190.864,350.114 "/>
<path style="fill:#E3E5E3;" d="M301.361,403.212c0,0,1.971,6.144,0.912,9.585c-0.782,2.558-3.534,2.936-8.298,1.937
	C293.975,414.73,301.062,403.257,301.361,403.212z"/>
<path style="fill:#D72128;" d="M300.127,394.791c0,0,0.995,7.318-5.624,12.139c0,0-1.795,1.01-1.694,3.841
	c0.075,1.802,1.171,3.96,1.171,3.96s6.17-2.592,7.165-7.999C302.135,401.32,300.127,394.791,300.127,394.791z"/>
<path style="fill:#F1F1F1;" d="M299.117,388.822c0,0,1.189,7.135-6.137,11.709c0,0-1.212,1.556-1.171,4.39
	c0.03,1.81,1.586,3.104,1.586,3.104s5.478-3.511,6.567-8.896C301.062,393.747,299.117,388.822,299.117,388.822z"/>
<path style="fill:#D72128;" d="M298.242,383.127c0,0,1.096,6.799-6.062,11.686c0,0-1.163,1.608-1.021,4.443
	c0.086,1.81,1.227,2.797,1.227,2.797s5.808-3.508,6.728-8.941C300.034,387.678,298.242,383.127,298.242,383.127z"/>
<path style="fill:#F1F1F1;" d="M296.481,376.796c0,0,0.228,6.283-6.413,12.038c0,0-0.329,1.096,0.067,3.908
	c0.254,1.802,1.593,2.973,1.593,2.973s6.107-3.511,6.522-9.057C298.657,381.119,296.481,376.796,296.481,376.796z"/>
<path style="fill:#D72128;" d="M296.597,371.471c0,0,0.849,6.312-5.845,10.62c0,0-1.81,0.89-1.776,3.339
	c0.03,1.571,1.088,3.403,1.088,3.403s6.208-2.36,7.311-7.057C298.474,377.08,296.597,371.471,296.597,371.471z"/>
<path style="fill:#F1F1F1;" d="M295.722,366.336c0,0,1.036,6.152-6.361,10.246c0,0-1.234,1.372-1.245,3.818
	c0,1.563,1.515,2.659,1.515,2.659s5.531-3.164,6.735-7.838C297.554,370.558,295.722,366.336,295.722,366.336z"/>
<path style="fill:#D72128;" d="M294.97,361.426c0,0,0.957,5.856-6.286,10.224c0,0-1.193,1.417-1.111,3.863
	c0.06,1.563,1.167,2.397,1.167,2.397s5.864-3.156,6.888-7.872C296.653,365.323,294.97,361.426,294.97,361.426z"/>
<path style="fill:#F1F1F1;" d="M293.332,355.985c0,0,1.571,5.725-5.161,10.83c0,0-1.043,1.533-0.699,3.96
	c0.217,1.556,0.748,1.664,0.748,1.664s6.148-3.171,6.671-7.962S293.332,355.985,293.332,355.985z"/>
<path style="fill:#D72128;" d="M290.763,349.923c0,0,0.744,6.137-3.541,9.809c0,0-0.819,1.649-0.157,4.009
	c0.419,1.511,0.684,4.016,0.684,4.016s5.823-4.798,5.703-9.618C293.325,353.311,290.763,349.923,290.763,349.923z"/>
<path style="fill:#F1F1F1;" d="M285.101,341.606c0,0,1.881,5.149-0.538,10.175c0,0,1.126,6.421,2.655,7.954
	c0,0,4.996-2.898,3.508-12.782C290.726,346.95,290.8,344.422,285.101,341.606z"/>
<path style="fill:#D72128;" d="M284.567,351.778c0,0,2.599-4.865,0.539-10.175c0,0-3.115-5.389-9.678-3.747
	c0,0,6.021,5.411,6.963,11.656C282.637,351.157,284.567,351.778,284.567,351.778z"/>
<path style="fill:#F1F1F1;" d="M282.484,350.151c0,0,0.737-6.282-7.06-12.292c0,0-6.589,0.228-8.459,3.841
	c0,0,4.798-0.688,11.043,4.192C278.011,345.892,279.716,347.814,282.484,350.151z"/>
<path style="fill:#D72128;" d="M262.081,348.061c0,0,5.841-3.87,9.581-1.907c0,0,5.834-0.415,6.35-0.262
	c0,0-5.52-4.914-11.043-4.192C266.968,341.7,264.358,342.672,262.081,348.061z"/>
<path style="fill:#F1F1F1;" d="M260.529,355.301c0,0,1.544-3.448,8.586-7.034l2.547-2.109c0,0-4.061-2.592-10.194,2.461
	C261.467,348.618,259.927,354.366,260.529,355.301z"/>
<path style="fill:#D72128;" d="M261.037,358.644c0,0,2.887,0.168,4.263-0.613c1.384-0.789,3.818-9.764,3.818-9.764
	s-6.713,2.577-8.65,6.589C259.811,356.191,261.037,358.644,261.037,358.644z"/>
<g>
	<path style="fill:#EE3B48;" d="M282.08,339.692c1.058,0.811,1.93,1.601,1.492,2.169c-0.438,0.576-4.394-1.892-4.203-2.592
		C279.716,337.945,281.014,338.88,282.08,339.692z"/>
	<path style="fill:#EE3B48;" d="M292.895,355.693c0.247,1.309,0.389,2.476-0.322,2.607c-0.707,0.146-2.038-4.315-1.44-4.719
		C292.274,352.825,292.633,354.384,292.895,355.693z"/>
	<path style="fill:#EE3B48;" d="M266.347,354.22c-0.464,1.593-0.976,2.965-1.844,2.719c-0.868-0.247,0.209-5.983,1.107-6.077
		C267.316,350.675,266.811,352.612,266.347,354.22z"/>
	<path style="fill:#EE3B48;" d="M295.568,368.703c-0.045,0.995-0.161,1.862-0.703,1.832s-0.696-3.508-0.183-3.687
		C295.647,366.512,295.621,367.709,295.568,368.703z"/>
	<path style="fill:#EE3B48;" d="M297.423,379.058c-0.052,0.995-0.168,1.862-0.703,1.832c-0.542-0.022-0.696-3.508-0.183-3.68
		C297.506,376.867,297.483,378.067,297.423,379.058z"/>
	<path style="fill:#EE3B48;" d="M299.069,391.103c-0.045,0.995-0.161,1.862-0.703,1.832c-0.542-0.022-0.688-3.508-0.183-3.687
		C299.155,388.904,299.125,390.109,299.069,391.103z"/>
	<path style="fill:#EE3B48;" d="M300.587,406.054c-0.06,1.156-0.191,2.161-0.819,2.124c-0.621-0.03-0.797-4.061-0.206-4.267
		C300.68,403.519,300.643,404.899,300.587,406.054z"/>
	<path style="fill:#EE3B48;" d="M274.705,344.774c-0.022,0.546-0.116,1.028-0.666,1.002c-0.55-0.03-0.778-1.956-0.269-2.038
		C274.743,343.57,274.743,344.235,274.705,344.774z"/>
</g>
<path style="fill:#466A32;" d="M256.684,366.071c0,0,13.171-3.975,16.742-19.539c0,0-6.507,3.287-17.554,3.171
	C255.869,349.706,259.28,363.487,256.684,366.071z"/>
<circle style="fill:#D72128;" cx="359.22" cy="186.21" r="16.11"/>
<path style="fill:#ED2E3A;" d="M352.844,187.704c-1.503-6.428,1.526-12.86,7.019-15.938c-1.335-0.067-2.689,0.045-4.054,0.366
	c-7.793,1.817-12.629,9.611-10.811,17.411c1.817,7.786,9.618,12.629,17.411,10.811c1.357-0.322,2.629-0.826,3.792-1.481
	C359.923,198.553,354.351,194.14,352.844,187.704z"/>
<g style="opacity:0.5;">
	
		<ellipse transform="matrix(-0.9737 0.2278 -0.2278 -0.9737 746.6443 271.5011)" style="fill:#EE4452;" cx="357.654" cy="178.839" rx="10.486" ry="6.189"/>
</g>
<circle style="fill:#F9C6CD;" cx="364.61" cy="179.35" r="3.358"/>
<path style="fill:#B39648;" d="M359.754,169.81l-1.328-2.491l-6.75,1.638l-0.101,2.76c-0.037,0.176-0.045,0.344-0.015,0.505
	c0.254,1.066,2.337,1.481,4.674,0.942c2.315-0.542,4.001-1.847,3.755-2.906C359.953,170.087,359.87,169.941,359.754,169.81z"/>
<g>
	
		<ellipse transform="matrix(-0.9736 0.2282 -0.2282 -0.9736 739.1622 250.954)" style="fill:#BAA060;" cx="355.073" cy="168.211" rx="3.474" ry="0.905"/>
	<path style="fill:#BAA060;" d="M359.28,168.935l-0.438-0.826c0,0-0.535,1.227-3.351,1.885c-2.827,0.666-3.848,0.022-3.848,0.022
		l-0.037,0.849c0,0,2.117,0.583,4.114,0.116S359.28,168.935,359.28,168.935z"/>
</g>
<path style="fill:#B39648;" d="M353.73,161.673c-1.825,0.423-2.965,2.259-2.535,4.091c0.43,1.817,2.259,2.958,4.091,2.535
	c1.825-0.43,2.958-2.259,2.535-4.084C357.387,162.384,355.562,161.25,353.73,161.673z M355.256,168.202
	c-1.462,0.344-2.936-0.568-3.28-2.038c-0.337-1.462,0.568-2.928,2.038-3.272c1.47-0.344,2.928,0.568,3.28,2.038
	C357.63,166.392,356.718,167.862,355.256,168.202z"/>
<path style="fill:#E7CE1B;" d="M114.966,190.348c-2.883-0.789-5.852,0.912-6.641,3.792c-0.782,2.879,0.92,5.849,3.796,6.63
	c2.883,0.789,5.849-0.905,6.634-3.792C119.539,194.103,117.841,191.13,114.966,190.348z M112.61,199.267
	c-1.754-0.475-2.786-2.285-2.304-4.031c0.479-1.754,2.281-2.79,4.031-2.307c1.758,0.475,2.79,2.285,2.311,4.039
	C116.166,198.713,114.36,199.749,112.61,199.267z"/>
<path style="fill:#D9BB27;" d="M80.595,230.915c0,0,7.21,8.261,20.1,11.772c12.887,3.519,23.709,0.168,23.709,0.168
	s-10.658-7.341-20.983-10.16C93.085,229.879,80.595,230.915,80.595,230.915z"/>
<circle style="fill:#DDD555;" cx="102.29" cy="236.04" r="4.996"/>
<path style="fill:#E7CE1B;" d="M113.051,197.506c-9.951-2.711-18.017,10.744-23.69,20.766c-0.221,0.389-3.19,1.256-5.273,3.717
	s-3.59,8.896-3.496,8.926c0.404,0.101,14.487,0.561,22.553,2.767c8.063,2.191,21.2,9.379,21.2,9.379s1.978-7.173,1.309-9.824
	s-2.64-5.063-2.629-5.542C123.193,216.08,123.039,200.232,113.051,197.506z"/>
<path style="fill:#F3D633;" d="M102.27,203.044c0.954-3.5,5.568-5.288,10.314-3.994c4.749,1.294,7.812,5.179,6.858,8.668
	C118.485,211.215,101.313,206.533,102.27,203.044z"/>
<g>
</g>
<g>
</g>
<g>
</g>
<g>
</g>
<g>
</g>
<g>
</g>
<g>
</g>
<g>
</g>
<g>
</g>
<g>
</g>
<g>
</g>
<g>
</g>
<g>
</g>
<g>
</g>
<g>
</g>
</svg>
