<?xml version="1.0" encoding="iso-8859-1"?>
<!-- Generator: Adobe Illustrator 19.0.0, SVG Export Plug-In . SVG Version: 6.00 Build 0)  -->
<svg version="1.1" id="Layer_1" xmlns="http://www.w3.org/2000/svg" xmlns:xlink="http://www.w3.org/1999/xlink" x="0px" y="0px"
	 viewBox="0 0 473.66 473.66" style="enable-background:new 0 0 473.66 473.66;" xml:space="preserve">
<circle style="fill:#D62127;" cx="236.83" cy="236.83" r="236.83"/>
<path style="fill:#BB813C;" d="M253.397,386.448c0,14.042-1.249,25.433-10.721,25.433H230.53c-9.465,0-10.714-11.391-10.714-25.433
	v-82.641c0-14.042,1.249-25.425,10.714-25.425h12.146c9.472,0,10.721,11.383,10.721,25.422L253.397,386.448L253.397,386.448z"/>
<path style="fill:#C58540;" d="M236.67,411.88h-6.144c-9.465,0-10.714-11.391-10.714-25.433v-82.641
	c0-14.042,1.249-25.425,10.714-25.425h6.612L236.67,411.88z"/>
<polygon style="fill:#65A844;" points="300.654,273.617 339.015,273.617 270.394,181.16 291.361,181.16 237.007,94.738 
	236.82,94.424 236.584,94.806 182.274,181.16 203.242,181.16 134.621,273.617 172.981,273.617 101.462,368.759 372.174,368.759 "/>
<path style="fill:#7FBB42;" d="M357.892,349.762l-57.238-76.145h38.361l-37.572-50.623c-67.78-0.681-94.383-47.208-102.831-67.806
	l-16.338,25.971h20.968l-30.507,41.094c4.944,13.305,15.074,35.728,33.312,57.948C242.822,325.021,293.912,348.364,357.892,349.762z
	"/>
<path style="fill:#9BCA3B;" d="M295.797,215.392l-25.403-34.228h20.968l-54.355-86.422l-0.191-0.314l-0.236,0.385l-33.028,52.522
	C208.1,161.385,229.068,211.989,295.797,215.392z"/>
<path style="fill:#65A844;" d="M372.174,368.759l-8.575-11.406c-86.111-0.116-136.45-39.565-163.532-72.675
	c-16.966-20.743-27.052-41.315-32.628-55.282l-32.815,44.217h38.361l-71.523,95.146L372.174,368.759L372.174,368.759z"/>
<g>
	<path style="fill:#EDC92C;" d="M301.443,222.995l-5.647-7.603c-66.729-3.399-87.697-54.003-92.24-68.06l-4.944,7.861
		C207.06,175.786,233.664,222.314,301.443,222.995z"/>
	<path style="fill:#EDC92C;" d="M363.599,357.354l-5.703-7.591c-63.98-1.399-115.07-24.741-151.845-69.56
		c-18.238-22.221-28.368-44.643-33.312-57.948l-5.295,7.143c5.572,13.967,15.661,34.539,32.628,55.282
		C227.149,317.789,277.488,357.238,363.599,357.354z"/>
</g>
<circle style="fill:#C32126;" cx="192.98" cy="223.21" r="9.798"/>
<path style="fill:#D62127;" d="M199.91,230.137c-3.833,3.829-10.037,3.829-13.855,0c-3.833-3.829,10.03-17.684,13.855-13.851
	C203.732,220.111,203.732,226.304,199.91,230.137z"/>
<circle style="fill:#C32126;" cx="235.26" cy="164.77" r="9.801"/>
<path style="fill:#D62127;" d="M242.201,171.68c-3.833,3.822-10.037,3.822-13.863,0s10.03-17.681,13.863-13.855
	C246.019,161.654,246.019,167.858,242.201,171.68z"/>
<circle style="fill:#C32126;" cx="133.68" cy="352.42" r="9.798"/>
<path style="fill:#D62127;" d="M140.612,359.358c-3.833,3.822-10.037,3.822-13.863,0c-3.826-3.818,10.037-17.681,13.863-13.851
	C144.43,349.329,144.43,355.536,140.612,359.358z"/>
<circle style="fill:#C32126;" cx="297.93" cy="243.33" r="9.798"/>
<path style="fill:#D62127;" d="M304.854,250.278c-3.826,3.818-10.03,3.818-13.855,0.004c-3.826-3.829,10.03-17.684,13.855-13.859
	S308.679,246.449,304.854,250.278z"/>
<circle style="fill:#C32126;" cx="193.38" cy="312.63" r="9.798"/>
<path style="fill:#D62127;" d="M200.307,319.562c-3.826,3.818-10.03,3.818-13.855,0c-3.826-3.826,10.03-17.681,13.855-13.859
	C204.125,309.532,204.125,315.736,200.307,319.562z"/>
<circle style="fill:#C32126;" cx="244.38" cy="351.6" r="9.798"/>
<path style="fill:#D62127;" d="M251.303,358.528c-3.826,3.826-10.03,3.826-13.855,0c-3.826-3.822,10.03-17.681,13.855-13.851
	C255.121,348.502,255.121,354.702,251.303,358.528z"/>
<circle style="fill:#C32126;" cx="299.35" cy="311.88" r="9.798"/>
<path style="fill:#D62127;" d="M306.279,318.821c-3.826,3.829-10.037,3.829-13.855,0.004c-3.826-3.829,10.03-17.681,13.855-13.855
	C310.097,308.795,310.097,314.992,306.279,318.821z"/>
<circle style="fill:#C32126;" cx="248.34" cy="265.06" r="9.798"/>
<path style="fill:#D62127;" d="M255.282,271.972c-3.826,3.826-10.03,3.826-13.855,0.004c-3.826-3.829,10.03-17.684,13.855-13.855
	C259.104,261.946,259.104,268.146,255.282,271.972z"/>
<polygon style="fill:#EDC92C;" points="245.196,82.334 253.674,74.07 241.962,72.365 236.715,61.748 231.48,72.365 219.764,74.07 
	228.245,82.334 226.24,94.005 234.299,89.772 233.245,100.03 240.44,100.03 239.374,89.892 247.197,94.005 "/>
<polygon style="fill:#FDDA47;" points="236.715,61.748 231.48,72.365 219.764,74.07 228.245,82.334 226.24,94.005 234.299,89.772 
	233.245,100.03 236.977,100.03 "/>
<g>
</g>
<g>
</g>
<g>
</g>
<g>
</g>
<g>
</g>
<g>
</g>
<g>
</g>
<g>
</g>
<g>
</g>
<g>
</g>
<g>
</g>
<g>
</g>
<g>
</g>
<g>
</g>
<g>
</g>
</svg>
