<?xml version="1.0" encoding="iso-8859-1"?>
<!-- Generator: Adobe Illustrator 19.0.0, SVG Export Plug-In . SVG Version: 6.00 Build 0)  -->
<svg version="1.1" id="Layer_1" xmlns="http://www.w3.org/2000/svg" xmlns:xlink="http://www.w3.org/1999/xlink" x="0px" y="0px"
	 viewBox="0 0 498.43 498.43" style="enable-background:new 0 0 498.43 498.43;" xml:space="preserve">
<path style="fill:#38A31D;" d="M298.015,96.03c0,0,76.8-20,70.4-45.6s-84-81.6-108-28s-7.2,84.8-7.2,84.8l47.2,1.6L298.015,96.03z"
	/>
<path style="fill:#20890A;" d="M260.415,22.43c-24,53.6-7.2,84.8-7.2,84.8l47.2,1.6l-1.6-12.8c0,0,76.8-20,70.4-45.6"/>
<path style="fill:#136804;" d="M260.415,22.43c-24,53.6-7.2,84.8-7.2,84.8l47.2,1.6l-1.6-12.8"/>
<path style="fill:#38A31D;" d="M200.415,96.03c0,0-76.8-20-70.4-45.6c6.4-25.6,84.8-81.6,108.8-28s7.2,84.8,7.2,84.8l-47.2,1.6
	L200.415,96.03z"/>
<path style="fill:#20890A;" d="M238.015,22.43c24,53.6,7.2,84.8,7.2,84.8l-47.2,1.6l1.6-12.8c0,0-76.8-20-70.4-45.6"/>
<path style="fill:#136804;" d="M238.015,22.43c24,53.6,7.2,84.8,7.2,84.8l-47.2,1.6l1.6-12.8"/>
<path style="fill:#21B3F4;" d="M449.215,473.63c0,14.4-14.4,24.8-28.8,24.8h-340.8c-15.2,0-30.4-10.4-30.4-24.8v-340.8
	c0-14.4,15.2-26.4,30.4-26.4h340.8c14.4,0,28.8,11.2,28.8,26.4L449.215,473.63L449.215,473.63z"/>
<path style="fill:#098CC6;" d="M52.415,132.03c0-14.4,12-25.6,27.2-25.6h340.8c14.4,0,28.8,11.2,28.8,26.4v340.8
	c0,14.4-14.4,24.8-28.8,24.8h-171.2"/>
<g>
	<path style="fill:#F4CE89;" d="M54.015,185.63c19.2,0,35.2,16,35.2,35.2s-16,35.2-35.2,35.2"/>
	<circle style="fill:#F4CE89;" cx="152.415" cy="220.83" r="35.2"/>
	<circle style="fill:#F4CE89;" cx="250.015" cy="220.83" r="35.2"/>
	<circle style="fill:#F4CE89;" cx="347.615" cy="220.83" r="35.2"/>
	<path style="fill:#F4CE89;" d="M445.215,256.03c-19.2,0-35.2-16-35.2-35.2s16-35.2,35.2-35.2"/>
</g>
<g>
	<path style="fill:#F4B840;" d="M54.015,185.63c19.2,0,35.2,16,35.2,35.2s-16,35.2-35.2,35.2"/>
	<path style="fill:#F4B840;" d="M152.415,185.63c19.2,0,35.2,16,35.2,35.2s-16,35.2-35.2,35.2"/>
	<path style="fill:#F4B840;" d="M250.015,185.63c19.2,0,35.2,16,35.2,35.2s-16,35.2-35.2,35.2"/>
	<path style="fill:#F4B840;" d="M347.615,185.63c19.2,0,35.2,16,35.2,35.2s-16,35.2-35.2,35.2"/>
</g>
<g>
	<circle style="fill:#F4CE89;" cx="104.415" cy="294.43" r="35.2"/>
	<circle style="fill:#F4CE89;" cx="202.015" cy="294.43" r="35.2"/>
	<circle style="fill:#F4CE89;" cx="299.615" cy="294.43" r="35.2"/>
	<circle style="fill:#F4CE89;" cx="398.015" cy="294.43" r="35.2"/>
</g>
<g>
	<path style="fill:#F4B840;" d="M104.415,259.23c19.2,0,35.2,16,35.2,35.2s-16,35.2-35.2,35.2"/>
	<path style="fill:#F4B840;" d="M202.015,259.23c19.2,0,35.2,16,35.2,35.2s-16,35.2-35.2,35.2"/>
	<path style="fill:#F4B840;" d="M299.615,259.23c19.2,0,35.2,16,35.2,35.2s-16,35.2-35.2,35.2"/>
	<path style="fill:#F4B840;" d="M398.015,259.23c19.2,0,35.2,16,35.2,35.2s-16,35.2-35.2,35.2"/>
</g>
<g>
	<path style="fill:#F4CE89;" d="M54.015,337.63c19.2,0,35.2,16,35.2,35.2s-16,35.2-35.2,35.2"/>
	<circle style="fill:#F4CE89;" cx="152.415" cy="372.83" r="35.2"/>
	<circle style="fill:#F4CE89;" cx="250.015" cy="372.83" r="35.2"/>
	<circle style="fill:#F4CE89;" cx="347.615" cy="372.83" r="35.2"/>
	<path style="fill:#F4CE89;" d="M445.215,408.03c-19.2,0-35.2-16-35.2-35.2s16-35.2,35.2-35.2"/>
</g>
<g>
	<path style="fill:#F4B840;" d="M54.015,337.63c19.2,0,35.2,16,35.2,35.2s-16,35.2-35.2,35.2"/>
	<path style="fill:#F4B840;" d="M152.415,337.63c19.2,0,35.2,16,35.2,35.2s-16,35.2-35.2,35.2"/>
	<path style="fill:#F4B840;" d="M250.015,337.63c19.2,0,35.2,16,35.2,35.2s-16,35.2-35.2,35.2"/>
	<path style="fill:#F4B840;" d="M347.615,337.63c19.2,0,35.2,16,35.2,35.2s-16,35.2-35.2,35.2"/>
</g>
<g>
	<circle style="fill:#F4CE89;" cx="104.415" cy="445.63" r="35.2"/>
	<circle style="fill:#F4CE89;" cx="202.015" cy="445.63" r="35.2"/>
	<circle style="fill:#F4CE89;" cx="299.615" cy="445.63" r="35.2"/>
	<circle style="fill:#F4CE89;" cx="398.015" cy="445.63" r="35.2"/>
</g>
<g>
	<path style="fill:#F4B840;" d="M104.415,410.43c19.2,0,35.2,16,35.2,35.2s-16,35.2-35.2,35.2"/>
	<path style="fill:#F4B840;" d="M202.015,410.43c19.2,0,35.2,16,35.2,35.2s-16,35.2-35.2,35.2"/>
	<path style="fill:#F4B840;" d="M299.615,410.43c19.2,0,35.2,16,35.2,35.2s-16,35.2-35.2,35.2"/>
	<path style="fill:#F4B840;" d="M398.015,410.43c19.2,0,35.2,16,35.2,35.2s-16,35.2-35.2,35.2"/>
	<rect x="41.215" y="98.43" style="fill:#F4B840;" width="416" height="72"/>
</g>
<rect x="73.215" y="98.43" style="fill:#E28C37;" width="384" height="72"/>
<rect x="201.215" y="98.43" style="opacity:0.7;fill:#136804;enable-background:new    ;" width="96" height="400"/>
<path style="fill:#38A31D;" d="M369.215,73.63c0,0,76,5.6,53.6,92.8s74.4,65.6,74.4,65.6s-22.4,24.8-36,27.2l24,30.4
	c0,0-74.4,4-99.2-41.6c-24.8-46.4,5.6-85.6,9.6-124C399.615,84.83,369.215,73.63,369.215,73.63z"/>
<path style="fill:#47B528;" d="M385.215,247.23c-24-45.6,6.4-84.8,10.4-123.2c4-39.2-26.4-50.4-26.4-50.4s76,5.6,53.6,92.8
	s74.4,65.6,74.4,65.6"/>
<path style="fill:#38A31D;" d="M395.615,124.03c4-39.2-26.4-50.4-26.4-50.4s76,5.6,53.6,92.8"/>
<path style="fill:#20890A;" d="M461.215,258.43l24,30.4c0,0-74.4,4-99.2-41.6"/>
<path style="fill:#38A31D;" d="M129.215,73.63c0,0-76,5.6-53.6,92.8c23.2,87.2-74.4,64.8-74.4,64.8s22.4,24.8,36,27.2l-24,30.4
	c0,0,74.4,4,99.2-41.6s-5.6-84.8-9.6-124C98.815,84.83,129.215,73.63,129.215,73.63z"/>
<path style="fill:#47B528;" d="M113.215,247.23c24.8-45.6-5.6-84.8-9.6-124c-4.8-38.4,25.6-49.6,25.6-49.6s-76,5.6-53.6,92.8
	c23.2,87.2-74.4,64.8-74.4,64.8"/>
<path style="fill:#38A31D;" d="M102.815,124.03c-4-39.2,26.4-50.4,26.4-50.4s-76,5.6-53.6,92.8"/>
<path style="fill:#20890A;" d="M37.215,258.43l-24,30.4c0,0,74.4,4,99.2-41.6"/>
<g style="opacity:0.4;">
	<circle style="fill:#91ED77;" cx="214.015" cy="110.43" r="5.6"/>
	<circle style="fill:#91ED77;" cx="237.215" cy="110.43" r="5.6"/>
	<circle style="fill:#91ED77;" cx="261.215" cy="110.43" r="5.6"/>
	<circle style="fill:#91ED77;" cx="284.415" cy="110.43" r="5.6"/>
	<circle style="fill:#91ED77;" cx="214.015" cy="133.63" r="5.6"/>
	<circle style="fill:#91ED77;" cx="237.215" cy="133.63" r="5.6"/>
	<circle style="fill:#91ED77;" cx="261.215" cy="133.63" r="5.6"/>
	<circle style="fill:#91ED77;" cx="284.415" cy="133.63" r="5.6"/>
	<circle style="fill:#91ED77;" cx="214.015" cy="156.83" r="5.6"/>
	<circle style="fill:#91ED77;" cx="237.215" cy="156.83" r="5.6"/>
	<circle style="fill:#91ED77;" cx="261.215" cy="156.83" r="5.6"/>
	<circle style="fill:#91ED77;" cx="284.415" cy="156.83" r="5.6"/>
	<circle style="fill:#91ED77;" cx="214.015" cy="180.03" r="5.6"/>
	<circle style="fill:#91ED77;" cx="237.215" cy="180.03" r="5.6"/>
	<circle style="fill:#91ED77;" cx="261.215" cy="180.03" r="5.6"/>
	<circle style="fill:#91ED77;" cx="284.415" cy="180.03" r="5.6"/>
	<circle style="fill:#91ED77;" cx="214.015" cy="202.43" r="5.6"/>
	<circle style="fill:#91ED77;" cx="237.215" cy="202.43" r="5.6"/>
	<circle style="fill:#91ED77;" cx="261.215" cy="202.43" r="5.6"/>
	<circle style="fill:#91ED77;" cx="284.415" cy="202.43" r="5.6"/>
	<circle style="fill:#91ED77;" cx="214.015" cy="225.63" r="5.6"/>
	<circle style="fill:#91ED77;" cx="237.215" cy="225.63" r="5.6"/>
	<circle style="fill:#91ED77;" cx="261.215" cy="225.63" r="5.6"/>
	<circle style="fill:#91ED77;" cx="284.415" cy="225.63" r="5.6"/>
	<circle style="fill:#91ED77;" cx="214.015" cy="248.83" r="5.6"/>
	<circle style="fill:#91ED77;" cx="237.215" cy="248.83" r="5.6"/>
	<circle style="fill:#91ED77;" cx="261.215" cy="248.83" r="5.6"/>
	<circle style="fill:#91ED77;" cx="284.415" cy="248.83" r="5.6"/>
	<circle style="fill:#91ED77;" cx="214.015" cy="272.03" r="5.6"/>
	<circle style="fill:#91ED77;" cx="237.215" cy="272.03" r="5.6"/>
	<circle style="fill:#91ED77;" cx="261.215" cy="272.03" r="5.6"/>
	<circle style="fill:#91ED77;" cx="284.415" cy="272.03" r="5.6"/>
	<circle style="fill:#91ED77;" cx="214.015" cy="295.23" r="5.6"/>
	<circle style="fill:#91ED77;" cx="237.215" cy="295.23" r="5.6"/>
	<circle style="fill:#91ED77;" cx="261.215" cy="295.23" r="5.6"/>
	<circle style="fill:#91ED77;" cx="284.415" cy="295.23" r="5.6"/>
	<circle style="fill:#91ED77;" cx="214.015" cy="318.43" r="5.6"/>
	<circle style="fill:#91ED77;" cx="237.215" cy="318.43" r="5.6"/>
	<circle style="fill:#91ED77;" cx="261.215" cy="318.43" r="5.6"/>
	<circle style="fill:#91ED77;" cx="284.415" cy="318.43" r="5.6"/>
	<circle style="fill:#91ED77;" cx="214.015" cy="341.63" r="5.6"/>
	<circle style="fill:#91ED77;" cx="237.215" cy="341.63" r="5.6"/>
	<circle style="fill:#91ED77;" cx="261.215" cy="341.63" r="5.6"/>
	<circle style="fill:#91ED77;" cx="284.415" cy="341.63" r="5.6"/>
	<circle style="fill:#91ED77;" cx="214.015" cy="364.83" r="5.6"/>
	<circle style="fill:#91ED77;" cx="237.215" cy="364.83" r="5.6"/>
	<circle style="fill:#91ED77;" cx="261.215" cy="364.83" r="5.6"/>
	<circle style="fill:#91ED77;" cx="284.415" cy="364.83" r="5.6"/>
	<circle style="fill:#91ED77;" cx="214.015" cy="388.03" r="5.6"/>
	<circle style="fill:#91ED77;" cx="237.215" cy="388.03" r="5.6"/>
	<circle style="fill:#91ED77;" cx="261.215" cy="388.03" r="5.6"/>
	<circle style="fill:#91ED77;" cx="284.415" cy="388.03" r="5.6"/>
	<circle style="fill:#91ED77;" cx="214.015" cy="411.23" r="5.6"/>
	<circle style="fill:#91ED77;" cx="237.215" cy="411.23" r="5.6"/>
	<circle style="fill:#91ED77;" cx="261.215" cy="411.23" r="5.6"/>
	<circle style="fill:#91ED77;" cx="284.415" cy="411.23" r="5.6"/>
	<circle style="fill:#91ED77;" cx="214.015" cy="434.43" r="5.6"/>
	<circle style="fill:#91ED77;" cx="237.215" cy="434.43" r="5.6"/>
	<circle style="fill:#91ED77;" cx="261.215" cy="434.43" r="5.6"/>
	<circle style="fill:#91ED77;" cx="284.415" cy="434.43" r="5.6"/>
	<circle style="fill:#91ED77;" cx="214.015" cy="457.63" r="5.6"/>
	<circle style="fill:#91ED77;" cx="237.215" cy="457.63" r="5.6"/>
	<circle style="fill:#91ED77;" cx="261.215" cy="457.63" r="5.6"/>
	<circle style="fill:#91ED77;" cx="284.415" cy="457.63" r="5.6"/>
	<circle style="fill:#91ED77;" cx="214.015" cy="480.83" r="5.6"/>
	<circle style="fill:#91ED77;" cx="237.215" cy="480.83" r="5.6"/>
	<circle style="fill:#91ED77;" cx="261.215" cy="480.83" r="5.6"/>
	<circle style="fill:#91ED77;" cx="284.415" cy="480.83" r="5.6"/>
</g>
<g>
</g>
<g>
</g>
<g>
</g>
<g>
</g>
<g>
</g>
<g>
</g>
<g>
</g>
<g>
</g>
<g>
</g>
<g>
</g>
<g>
</g>
<g>
</g>
<g>
</g>
<g>
</g>
<g>
</g>
</svg>
