<?xml version="1.0" encoding="iso-8859-1"?>
<!-- Generator: Adobe Illustrator 19.0.0, SVG Export Plug-In . SVG Version: 6.00 Build 0)  -->
<svg version="1.1" id="Layer_1" xmlns="http://www.w3.org/2000/svg" xmlns:xlink="http://www.w3.org/1999/xlink" x="0px" y="0px"
	 viewBox="0 0 494.975 494.975" style="enable-background:new 0 0 494.975 494.975;" xml:space="preserve">
<path style="fill:#777777;" d="M300.287,126.975h-14.4c0-40-43.2-92.8-92.8-92.8c-50.4,0-93.6,52.8-93.6,92.8h-14.4
	c0-48,48-107.2,108-107.2C252.287,19.775,300.287,78.975,300.287,126.975z"/>
<rect x="63.487" y="126.975" style="fill:#14845F;" width="360" height="352"/>
<polygon style="fill:#65EAA7;" points="63.487,126.975 96.287,178.175 55.487,494.975 "/>
<g>
	<path style="fill:#FF7C24;" d="M329.887,38.175c0,0,3.2-22.4-28.8-35.2c-31.2-12.8-41.6,18.4-23.2,42.4s34.4,11.2,34.4,11.2
		s-20-3.2-19.2-33.6c0-18.4,32.8,4,32.8,19.2l4.8,0.8L329.887,38.175z"/>
	<path style="fill:#FF7C24;" d="M329.087,38.175c0,0-3.2-22.4,28.8-35.2c31.2-12.8,41.6,18.4,23.2,42.4
		c-18.4,23.2-34.4,11.2-34.4,11.2s20-3.2,19.2-33.6c0-18.4-32.8,4-32.8,19.2h-5.6L329.087,38.175z"/>
</g>
<rect x="231.487" y="78.975" style="fill:#CC3636;" width="192" height="152"/>
<polyline style="fill:#A00D0D;" points="231.487,78.975 423.487,78.975 423.487,230.975 "/>
<rect x="231.487" y="86.975" style="fill:#1EE2BD;" width="192" height="8"/>
<polyline style="fill:#08BF9C;" points="231.487,86.975 423.487,86.975 423.487,94.975 "/>
<rect x="231.487" y="110.975" style="fill:#1EE2BD;" width="192" height="8"/>
<polyline style="fill:#08BF9C;" points="231.487,110.975 423.487,110.975 423.487,118.975 "/>
<rect x="231.487" y="134.975" style="fill:#1EE2BD;" width="192" height="8"/>
<polyline style="fill:#08BF9C;" points="231.487,134.975 423.487,134.975 423.487,142.975 "/>
<rect x="231.487" y="158.975" style="fill:#1EE2BD;" width="192" height="8"/>
<polyline style="fill:#08BF9C;" points="231.487,158.975 423.487,158.975 423.487,166.975 "/>
<rect x="231.487" y="182.975" style="fill:#1EE2BD;" width="192" height="8"/>
<g>
	<polyline style="fill:#08BF9C;" points="231.487,182.975 423.487,182.975 423.487,190.975 	"/>
	<polyline style="fill:#08BF9C;" points="231.487,198.975 423.487,198.975 423.487,198.975 	"/>
</g>
<rect x="231.487" y="214.975" style="fill:#1EE2BD;" width="192" height="8"/>
<polyline style="fill:#08BF9C;" points="231.487,214.975 423.487,214.975 423.487,222.975 "/>
<rect x="319.487" y="70.975" style="fill:#FFAA22;" width="24" height="160"/>
<polyline style="fill:#FF7C24;" points="319.487,70.975 343.487,70.975 343.487,230.975 "/>
<rect x="215.487" y="38.975" style="fill:#1E4784;" width="224" height="40"/>
<polyline style="fill:#00233F;" points="215.487,38.975 439.487,38.975 439.487,78.975 "/>
<polygon style="fill:#229968;" points="423.487,158.975 403.487,194.175 433.887,494.975 "/>
<polygon style="fill:#45DB93;" points="433.887,494.975 55.487,494.975 83.487,158.975 405.087,158.975 "/>
<polygon style="fill:#2CBF7F;" points="433.887,494.975 55.487,494.975 143.487,219.775 405.087,160.575 "/>
<polygon style="fill:#24A87C;" points="433.887,494.975 55.487,494.975 349.887,426.175 405.087,160.575 "/>
<path style="fill:#BFBFBF;" d="M368.287,166.975h-16.8c0-48-49.6-106.4-106.4-106.4c-57.6,0-107.2,58.4-107.2,106.4h-16.8
	c0-56,55.2-123.2,123.2-123.2C313.087,43.775,368.287,110.975,368.287,166.975z"/>
<path style="fill:#AAAAAA;" d="M244.287,43.775c68.8,0,123.2,67.2,123.2,123.2h-16c0-48-49.6-106.4-106.4-106.4"/>
<polygon style="fill:#FFD524;" points="345.087,382.975 244.287,282.175 144.287,382.975 "/>
<polygon style="fill:#EDB311;" points="345.087,382.975 244.287,282.175 216.287,382.975 "/>
<polygon style="fill:#FFD524;" points="325.087,342.975 245.087,262.975 165.087,342.975 "/>
<polygon style="fill:#EDB311;" points="325.087,342.975 245.087,262.975 222.687,342.975 "/>
<polygon style="fill:#FFD524;" points="308.287,310.975 245.087,247.775 181.887,310.975 "/>
<polygon style="fill:#EDB311;" points="308.287,310.975 245.087,247.775 227.487,310.975 "/>
<polygon style="fill:#FFD524;" points="291.487,286.975 245.087,240.575 198.687,286.975 "/>
<polygon style="fill:#EDB311;" points="291.487,286.975 245.087,240.575 232.287,286.975 "/>
<g>
	<circle style="fill:#FFD524;" cx="196.287" cy="424.575" r="7.2"/>
	<circle style="fill:#FFD524;" cx="244.287" cy="424.575" r="7.2"/>
	<circle style="fill:#FFD524;" cx="293.087" cy="424.575" r="7.2"/>
</g>
<g>
</g>
<g>
</g>
<g>
</g>
<g>
</g>
<g>
</g>
<g>
</g>
<g>
</g>
<g>
</g>
<g>
</g>
<g>
</g>
<g>
</g>
<g>
</g>
<g>
</g>
<g>
</g>
<g>
</g>
</svg>
