<?xml version="1.0" encoding="iso-8859-1"?>
<!-- Generator: Adobe Illustrator 19.0.0, SVG Export Plug-In . SVG Version: 6.00 Build 0)  -->
<svg version="1.1" id="Layer_1" xmlns="http://www.w3.org/2000/svg" xmlns:xlink="http://www.w3.org/1999/xlink" x="0px" y="0px"
	 viewBox="0 0 473.66 473.66" style="enable-background:new 0 0 473.66 473.66;" xml:space="preserve">
<circle style="fill:#D7DABA;" cx="236.83" cy="236.83" r="236.83"/>
<path style="fill:#F1EDCD;" d="M349.329,283.437c0,62.163-50.368,112.535-112.513,112.535c-62.137,0-112.509-50.372-112.509-112.535
	c0-62.126,50.372-112.505,112.509-112.505C298.96,170.932,349.329,221.312,349.329,283.437z"/>
<g>
	<ellipse style="fill:#343433;" cx="203.1" cy="274" rx="15.415" ry="16.282"/>
	<ellipse style="fill:#343433;" cx="269.88" cy="274" rx="15.415" ry="16.282"/>
</g>
<g>
	<path style="fill:#FFFFFF;" d="M280.868,267.81c0,3.59-2.749,6.522-6.163,6.522c-3.384,0-6.152-2.932-6.152-6.522
		c0-3.601,2.764-6.507,6.152-6.507C278.12,261.303,280.868,264.208,280.868,267.81z"/>
	<path style="fill:#FFFFFF;" d="M213.911,267.81c0,3.59-2.752,6.522-6.17,6.522c-3.399,0-6.159-2.932-6.159-6.522
		c0-3.601,2.76-6.507,6.159-6.507C211.159,261.303,213.911,264.208,213.911,267.81z"/>
</g>
<g>
	<circle style="fill:#343433;" cx="211.29" cy="349.39" r="4.674"/>
	<circle style="fill:#343433;" cx="262.41" cy="349.39" r="4.674"/>
	<circle style="fill:#343433;" cx="236.87" cy="357.99" r="4.674"/>
	<circle style="fill:#343433;" cx="249.95" cy="355.41" r="4.674"/>
	<circle style="fill:#343433;" cx="223.77" cy="355.41" r="4.674"/>
	<path style="fill:#343433;" d="M309.64,198.747c0,17.015-16.664,10.269-37.224,10.269h-75.48c-20.56,0-37.224,6.746-37.224-10.269
		L143.057,94.338c0-17.015,20.366-16.675,45.492-16.675h92.255c25.126,0,45.492-0.34,45.492,16.675L309.64,198.747z"/>
	<path style="fill:#343433;" d="M338.746,235.776c0,0,36.165-55.914-81.182-55.914c-7.475-0.165-18.028-0.247-21.719-0.247
		c-4.084,0-18.978,0.101-27.168,0.299c-116.731,0-73.109,55.862-73.109,55.862s53.917-15.373,100.273-15.373
		C282.199,220.399,338.746,235.776,338.746,235.776z"/>
</g>
<path style="fill:#D62127;" d="M235.844,179.612c3.687,0,14.244,0.082,21.719,0.247c23.858,0,41.371,2.311,54.134,5.995
	l2.289-13.066c-13.059-3.844-31.97-6.279-56.423-6.279c-7.475-0.165-18.028-0.247-21.719-0.247c-4.084,0-18.978,0.101-27.168,0.299
	c-23.107,0-41.061,2.195-53.394,5.703l2.292,13.089c12.049-3.354,28.582-5.441,51.101-5.441
	C216.865,179.716,231.76,179.612,235.844,179.612z"/>
<circle style="fill:#F37C2A;" cx="237.01" cy="309.97" r="21.345"/>
<circle style="fill:#EC722F;" cx="237.01" cy="309.97" r="13.556"/>
<circle style="fill:#E56E2B;" cx="237.01" cy="309.97" r="3.897"/>
<g>
</g>
<g>
</g>
<g>
</g>
<g>
</g>
<g>
</g>
<g>
</g>
<g>
</g>
<g>
</g>
<g>
</g>
<g>
</g>
<g>
</g>
<g>
</g>
<g>
</g>
<g>
</g>
<g>
</g>
</svg>
