<?xml version="1.0" encoding="iso-8859-1"?>
<!-- Generator: Adobe Illustrator 19.0.0, SVG Export Plug-In . SVG Version: 6.00 Build 0)  -->
<svg version="1.1" id="Layer_1" xmlns="http://www.w3.org/2000/svg" xmlns:xlink="http://www.w3.org/1999/xlink" x="0px" y="0px"
	 viewBox="0 0 498.4 498.4" style="enable-background:new 0 0 498.4 498.4;" xml:space="preserve">
<path style="fill:#EF4D4D;" d="M402.946,316l-58.4-60V112.8c0-37.6-32.8-64.8-70.4-64.8h-99.2c-37.6,0-70.4,27.2-70.4,64.8v176.8
	c0,2.4,1.6,4.8,1.6,7.2c-2.4,23.2,6.4,47.2,24,64.8l112.8,112.8c32,32,83.2,32,114.4,0l44.8-44
	C434.146,399.2,434.946,348,402.946,316z"/>
<path style="fill:#C92D2D;" d="M243.746,474.4c32,32,83.2,32,114.4,0l44-44c32-32,32.8-83.2,1.6-114.4l-59.2-60V112.8
	c0-37.6-32.8-64.8-70.4-64.8h-99.2c-37.6,0-68,28.8-68,66.4"/>
<path style="fill:#AF1E1E;" d="M402.146,430.4c32-32,32.8-83.2,1.6-114.4l-59.2-60V112.8c0-37.6-32.8-64.8-70.4-64.8h-99.2
	c-37.6,0-68,28.8-68,66.4"/>
<path style="fill:#890909;" d="M402.946,316l-58.4-60V112.8c0-37.6-32.8-64.8-70.4-64.8h-99.2c-37.6,0-67.2,28.8-67.2,66.4"/>
<path style="fill:#E4F4F2;" d="M378.146,68c0,37.6-9.6,68-47.2,68h-212c-37.6,0-47.2-30.4-47.2-68l0,0c0-37.6,30.4-68,68-68h171.2
	C347.746,0,378.146,30.4,378.146,68L378.146,68z"/>
<path style="fill:#CEEDE9;" d="M378.146,67.2L378.146,67.2c0,37.6-9.6,68.8-47.2,68.8h-212c-37.6,0-47.2-31.2-47.2-68.8l0,0"/>
<g>
	<path style="fill:#F5FFFE;" d="M160.546,28c0,8-8.8,14.4-20,14.4l0,0c-11.2,0-20-6.4-20-14.4v-1.6c0-8,8.8-14.4,20-14.4l0,0
		c11.2,0,20,6.4,20,14.4V28z"/>
	<path style="fill:#F5FFFE;" d="M328.546,28c0,8-8.8,14.4-20,14.4l0,0c-11.2,0-20-6.4-20-14.4v-1.6c0-8,8.8-14.4,20-14.4l0,0
		c11.2,0,20,6.4,20,14.4V28z"/>
	<path style="fill:#F5FFFE;" d="M240.546,24.8c0,4-3.2,7.2-7.2,7.2h-57.6c-4,0-7.2-3.2-7.2-7.2v-1.6c0-4,3.2-7.2,7.2-7.2h57.6
		c4,0,7.2,3.2,7.2,7.2V24.8z"/>
	<path style="fill:#F5FFFE;" d="M270.146,20.8c0,2.4-2.4,4.8-4.8,4.8l0,0c-2.4,0-4.8-2.4-4.8-4.8l0,0c0-2.4,2.4-4.8,4.8-4.8l0,0
		C267.746,16,270.146,18.4,270.146,20.8L270.146,20.8z"/>
</g>
<path style="fill:#30A078;" d="M112.546,220.8c-2.4,0,0,0-8,0v68.8c0,2.4,0,7.2,0,7.2c-2.4,23.2,8,47.2,25.6,64.8l45.6,44.8
	c24.8-18.4,40.8-48,40.8-81.6C216.546,267.2,169.346,220.8,112.546,220.8z"/>
<path style="fill:#308267;" d="M176.546,407.2c24.8-19.2,41.6-48.8,41.6-82.4c0-57.6-46.4-104-104-104c-2.4,0-4,0-6.4,0"/>
<g>
	<path style="fill:#F7B0B0;" d="M136.546,244c0,2.4-1.6,4-4,4l0,0c-2.4,0-4-1.6-4-4v-32c0-2.4,1.6-4,4-4l0,0c2.4,0,4,1.6,4,4V244z"
		/>
	<path style="fill:#F7B0B0;" d="M226.146,367.2c1.6,1.6,1.6,4.8,0,6.4l0,0c-1.6,1.6-4.8,1.6-6.4,0l-21.6-21.6
		c-1.6-1.6-1.6-4.8,0-6.4l0,0c1.6-1.6,4.8-1.6,6.4,0L226.146,367.2z"/>
	<path style="fill:#F7B0B0;" d="M201.346,401.6c1.6,1.6,1.6,4.8,0,6.4l0,0c-1.6,1.6-4.8,1.6-6.4,0l-21.6-21.6
		c-1.6-1.6-1.6-4.8,0-6.4l0,0c1.6-1.6,4.8-1.6,6.4,0L201.346,401.6z"/>
	<path style="fill:#F7B0B0;" d="M170.946,264c-2.4,1.6-4.8,0.8-6.4-0.8l0,0c-1.6-2.4-0.8-4.8,0.8-6.4l24.8-17.6
		c2.4-1.6,4.8-0.8,6.4,0.8l0,0c1.6,2.4,0.8,4.8-0.8,6.4L170.946,264z"/>
	<path style="fill:#F7B0B0;" d="M201.346,308c-2.4,0.8-4.8,0-6.4-1.6l0,0c-0.8-2.4,0-4.8,1.6-6.4l27.2-14.4c2.4-0.8,4.8,0,6.4,1.6
		l0,0c0.8,2.4,0,4.8-1.6,6.4L201.346,308z"/>
</g>
<g>
	<path style="fill:#ABD6D0;" d="M75.746,104c5.6,16,18.4,32,43.2,32h212c24,0,36.8-16,43.2-32H75.746z"/>
	<circle style="fill:#ABD6D0;" cx="146.146" cy="65.6" r="5.6"/>
	<circle style="fill:#ABD6D0;" cx="185.346" cy="65.6" r="5.6"/>
	<circle style="fill:#ABD6D0;" cx="224.546" cy="65.6" r="5.6"/>
	<circle style="fill:#ABD6D0;" cx="263.746" cy="65.6" r="5.6"/>
	<circle style="fill:#ABD6D0;" cx="302.946" cy="65.6" r="5.6"/>
</g>
<g>
	<circle style="fill:#EF4D4D;" cx="267.746" cy="343.2" r="5.6"/>
	<circle style="fill:#EF4D4D;" cx="305.346" cy="392" r="14.4"/>
	<circle style="fill:#EF4D4D;" cx="345.346" cy="380.8" r="1.6"/>
	<circle style="fill:#EF4D4D;" cx="261.346" cy="383.2" r="1.6"/>
	<circle style="fill:#EF4D4D;" cx="288.546" cy="445.6" r="7.2"/>
	<circle style="fill:#EF4D4D;" cx="245.346" cy="311.2" r="4"/>
	<circle style="fill:#EF4D4D;" cx="353.346" cy="435.2" r="8"/>
</g>
<g>
</g>
<g>
</g>
<g>
</g>
<g>
</g>
<g>
</g>
<g>
</g>
<g>
</g>
<g>
</g>
<g>
</g>
<g>
</g>
<g>
</g>
<g>
</g>
<g>
</g>
<g>
</g>
<g>
</g>
</svg>
