<?xml version="1.0" encoding="iso-8859-1"?>
<!-- Generator: Adobe Illustrator 19.0.0, SVG Export Plug-In . SVG Version: 6.00 Build 0)  -->
<svg version="1.1" id="Layer_1" xmlns="http://www.w3.org/2000/svg" xmlns:xlink="http://www.w3.org/1999/xlink" x="0px" y="0px"
	 viewBox="0 0 473.66 473.66" style="enable-background:new 0 0 473.66 473.66;" xml:space="preserve">
<circle style="fill:#65A844;" cx="236.83" cy="236.83" r="236.83"/>
<path style="fill:#D72128;" d="M346.176,197.577c1.126-5.83-2.696-11.462-8.53-12.584L217.572,161.95
	c-5.83-1.122-11.458,2.7-12.584,8.526L180.49,298.141c-43.757,19.917-70.117,56.127-60.424,86.392
	c10.935,34.161,63.666,47.799,117.767,30.47c40.331-12.92,72.828-32.355,80.24-70.958L346.176,197.577z"/>
<path style="fill:#F1F1F1;" d="M352.713,209.603c-3.661,19.064-22.078,31.555-41.143,27.893l-97.45-18.702
	c-19.057-3.661-31.555-22.078-27.893-41.147l2.214-11.503c3.661-19.068,22.078-31.555,41.143-27.897l97.442,18.705
	c19.064,3.661,31.555,22.078,27.901,41.147L352.713,209.603z"/>
<path style="fill:#E3E5E3;" d="M200.83,163.285c0,0,56.789,45.952,139.737,21.854C340.567,185.135,291.705,134.426,200.83,163.285z"
	/>
<path style="fill:#D72128;" d="M306.742,169.466c0,0-9.809,14.902-31.887,11.709c0,0-5.478-1.417-9.884,3.841
	c-0.856,1.021-1.563,2.274-2.117,3.519c0,0,23.234,5.411,26.6,4.155C302.12,187.951,306.742,169.466,306.742,169.466z"/>
<path style="fill:#F1F1F1;" d="M314.311,156.965c0,0-9.087,14.928-32.276,10.03c0,0-5.149,0.61-9.656,5.778
	c-2.891,3.306-1.672,8.407-1.672,8.407s17.501,3.478,28.623-4.211C310.452,169.272,314.311,156.965,314.311,156.965z"/>
<path style="fill:#D72128;" d="M321.73,145.219c0,0-8.728,14.139-32.078,10.086c0,0-5.12,0.804-9.435,6.129
	c-2.767,3.41-1.945,7.217-1.945,7.217s18.193,4.087,29.034-4.005C318.137,156.554,321.73,145.219,321.73,145.219z"/>
<path style="fill:#F1F1F1;" d="M328.267,130.702c0,0-7.18,14.988-30.837,13.429c0,0-5.004,1.335-8.736,7.09
	c-2.39,3.683-1.47,4.895-1.47,4.895s18.829,4.622,28.75-4.57C325.893,142.351,328.267,130.702,328.267,130.702z"/>
<path style="fill:#D72128;" d="M333.951,113.16c0,0-9.671,14.326-25.489,14.225c0,0-4.783,1.989-7.715,8.193
	c-1.877,3.975-5.946,9.768-5.946,9.768s21.151,0.546,29.756-9.891S333.951,113.16,333.951,113.16z"/>
<path style="fill:#F1F1F1;" d="M337.257,85.124c0,0-8.896,19.973-19.831,20.575c0,0-9.409,15.635-8.967,21.686
	c0,0,15.893,3.048,30.889-20.594C339.348,106.791,344.168,101.556,337.257,85.124z"/>
<path style="fill:#D72128;" d="M317.43,105.699c0,0,14.431-5.535,19.831-20.575c0,0,3.317-17.112-13.593-25.698
	c0,0,2.82,22.497-6.675,37.459C314.494,100.826,317.43,105.699,317.43,105.699z"/>
<path style="fill:#F1F1F1;" d="M316.028,98.411c0,0,13.081-11.922,7.64-38.985c0,0-14.36-11.615-24.943-7.401
	c0,0,11.409,7.359,15.673,29.15C314.397,81.179,314.479,88.381,316.028,98.411z"/>
<path style="fill:#D72128;" d="M276.672,56.505c0,0,19.479,2.558,23.787,13.578c0,0,13.111,9.816,13.937,11.095
	c0,0-2.681-20.53-15.673-29.15C298.725,52.029,291.421,49.28,276.672,56.505z"/>
<path style="fill:#F1F1F1;" d="M260.102,68.976c0,0,9.611-4.454,31.091,0.875l9.27,0.232c0,0-3.826-12.976-26.084-13.522
	C274.38,56.561,260.562,65.876,260.102,68.976z"/>
<path style="fill:#D72128;" d="M255.031,76.979c0,0,5.823,5.662,10.168,6.533c4.345,0.868,25.994-13.657,25.994-13.657
	s-18.926-6.87-30.414-1.948C256.954,69.541,255.031,76.979,255.031,76.979z"/>
<path style="fill:#F2F2F2;" d="M191.466,157.144c-1.38,2.782-2.412,5.8-3.025,9.001l-2.214,11.503
	c-3.661,19.068,8.837,37.485,27.893,41.147l97.45,18.702c19.064,3.661,37.482-8.829,41.143-27.893l2.214-11.503
	c1.141-5.957,0.703-11.854-1.013-17.254l-13.343,4.289c-82.951,24.098-139.737-21.854-139.737-21.854L191.466,157.144z"/>
<g>
</g>
<g>
</g>
<g>
</g>
<g>
</g>
<g>
</g>
<g>
</g>
<g>
</g>
<g>
</g>
<g>
</g>
<g>
</g>
<g>
</g>
<g>
</g>
<g>
</g>
<g>
</g>
<g>
</g>
</svg>
